<svg xmlns="http://www.w3.org/2000/svg" xmlns:xlink="http://www.w3.org/1999/xlink" version="1.1" x="0px" y="0px" viewBox="0 0 100 100" enable-background="new 0 0 100 100" xml:space="preserve"><path fill="#000000" d="M92.01,55.642c-1.307-0.956-2.943-2.408-2.943-4.789c0-4.414-0.873-6.853-0.873-6.853h-2.838  c0,0,0.788,4.409,0,7.09C84.567,53.77,82.518,56,76.369,56H9.626C11.308,54,14,53.081,14,53.081v-2.628c-6,1.472-9,4.625-9,8.093  v0.761c0,11.787,4.365,22.223,14.335,28.632c2.701-1.137,4.668-3.53,4.668-6.3c0,3.867,3.681,7.003,8.159,7.003  c4.477,0,8.132-3.136,8.132-7.003c0,3.867,3.643,7.003,8.119,7.003c4.478,0,8.112-3.136,8.112-7.003  c0,3.867,3.633,7.003,8.109,7.003c4.478,0,8.108-3.136,8.108-7.003c0,3.465,3.085,6.341,6.911,6.902  C90.385,82.238,95,71.783,95,60.884v-0.679C94,58.592,93.8,56.952,92.01,55.642z M78.418,86.271c0,0,12.255-17.271,7.035-30.271  h2.875C88.328,56,92.976,72.412,78.418,86.271z M87.589,27.493c0.999,0,1.811,0.507,1.811,1.507h0.846c0-1,0.812-1.507,1.812-1.507  c0.998,0,1.811,0.507,1.811,1.507h0.846c0-2-1.191-2.708-2.656-2.708c-0.937,0-1.761,0.253-2.234,0.903  c-0.473-0.649-1.298-0.814-2.233-0.814c-1.465,0-2.656,0.619-2.656,2.619h0.845C85.777,28,86.59,27.493,87.589,27.493z   M9.251,20.751c1.49,0,2.702,0.249,2.702,2.249h1.262c0-2,1.212-2.249,2.702-2.249S18.62,21,18.62,23h1.261  c0-2-1.778-3.804-3.964-3.804c-1.396,0-2.627,0.497-3.333,1.466c-0.706-0.969-1.937-1.393-3.333-1.393  C7.065,19.27,5.287,21,5.287,23h1.261C6.548,21,7.761,20.751,9.251,20.751z M21.484,12.493c0.999,0,1.811,0.507,1.811,1.507h0.846  c0-1,0.812-1.507,1.811-1.507c0.999,0,1.812,0.507,1.812,1.507h0.845c0-1-1.192-2.548-2.657-2.548c-0.936,0-1.76,0.333-2.233,0.983  c-0.473-0.65-1.298-0.935-2.234-0.935c-1.465,0-2.656,1.499-2.656,2.499h0.845C19.673,13,20.485,12.493,21.484,12.493z M16,43v11h54  V41.782l-4.91-8.32L60.135,43H16z M16.211,41h42.351l4.546-8h-41.29L16.211,41z M77.314,40.797c0,0,1.576,0.729,2.522-0.139  c0.945-0.867-1.183-2.788-1.183-2.788l-0.079-1.591l-1.182,1.174c-0.71-0.473-1.157-0.004-1.157-0.004L75,36.265v3.994L71.797,54  h3.152L77.314,40.797z M81.256,54l2.365-13.203c0,0,1.576,0.729,2.521-0.139c0.946-0.867-1.182-2.788-1.182-2.788l-0.079-1.591  l-1.183,1.174c-0.709-0.473-1.311-0.004-1.311-0.004L81,36.265v3.994L78.104,54H81.256z"></path></svg>