<svg xmlns="http://www.w3.org/2000/svg" xmlns:xlink="http://www.w3.org/1999/xlink" version="1.1" x="0px" y="0px" viewBox="0 0 90 90" enable-background="new 0 0 90 90" xml:space="preserve"><path d="M81.704,22.876c-4.259,0.546-9.668,6.771-12.62,10.046c-0.449,0.499-0.921,1.099-1.455,1.516  c-0.825-0.135-4.749-0.973-7.343-1.532c-0.648-3.644-3.423-6.696-8.261-4.425c-1.92-1.83-4.711-4.5-5.273-5.094  c0.043-0.676,0.275-1.404,0.436-2.055c1.049-4.283,3.153-12.256,1.212-16.086c-0.271-0.536-1.073-0.128-0.803,0.408  c1.785,3.52-0.301,11.451-1.284,15.463c-0.092,0.375-0.712,2.314-0.322,2.773c0.293,0.347,3.143,3.076,5.188,5.027  c-3.952,2.27-6.273,6.603-1.508,9.463c-1.81-0.046-4.058,1.468-5.884,3.958c-3.159-4.207-7.984-11.56-8.417-17.057  c-0.08-0.997-1.574-0.879-1.495,0.117c0.479,6.08,5.766,13.979,9.036,18.261c-0.14,0.236-0.277,0.476-0.408,0.724  c-0.542,1.024-0.952,2.056-1.241,3.054c-0.651-0.168-1.376-0.35-2.16-0.537c-5.732-1.372-9.868-2.119-15.696-1.67  c-1.902,0.146-3.416,0.328-3.416,0.328c-0.993,0.119-0.814,1.607,0.178,1.488c0.028-0.004,5.939-0.709,8.917-0.439  c3.848,0.35,8.756,1.497,11.839,2.291c-0.14,0.818-0.188,1.593-0.141,2.297c-2.908-0.187-5.113,1.661-6.575,4.334  c-2.334-0.125-4.866,0.154-6.852,1.364c-5.545,3.381-15.479,9.468-15.479,9.468c-0.852,0.522-0.069,1.8,0.784,1.279  c0,0,9.93-6.088,15.475-9.468c1.514-0.923,3.474-1.2,5.37-1.164c-2.705,6.588-1.606,16.222,3.739,14.847  c3.371-0.867,7.548-4.074,9.833-7.825c1.184,1.608,2.155,3.488,2.249,5.362c0.322,6.482,0.872,18.118,0.872,18.118  c0.047,0.998,1.546,0.927,1.497-0.071c0,0-0.551-11.638-0.873-18.124c-0.122-2.454-1.448-4.823-2.968-6.739  c1.374-3.017,1.384-6.225-1.265-8.771c0.588-0.393,1.177-0.889,1.746-1.478c0.725,0.617,1.844,1.587,3.139,2.767  c4.238,3.857,7.089,6.746,9.913,11.675c0.932,1.626,1.618,2.953,1.618,2.953c0.46,0.89,1.792,0.198,1.334-0.688  c-3.49-6.74-6.095-9.802-11.856-15.049c-1.306-1.19-2.435-2.168-3.17-2.795c0.543-0.698,1.054-1.479,1.509-2.332  c4.488,0.403,16.26,0.852,22.381-2.642c0.868-0.495,0.125-1.798-0.743-1.303c-5.51,3.145-16.338,2.864-20.956,2.502  c1.198-2.866,1.405-5.64,0.616-7.347c0.377,0.115,0.778,0.187,1.202,0.185c5.067,2.08,7.402-2.264,7.086-6.402  c2.771,0.597,6.771,1.448,7.233,1.497c0.362,0.039,0.723-0.35,0.948-0.576c3.363-3.353,8.686-10.422,13.229-11.007  C82.414,23.692,82.3,22.799,81.704,22.876z"></path></svg>