<svg xmlns="http://www.w3.org/2000/svg" xmlns:xlink="http://www.w3.org/1999/xlink" version="1.2" baseProfile="tiny" x="0px" y="0px" viewBox="0 0 32 32" xml:space="preserve"><path d="M3.228,13.121c0.279-0.91,0.412-0.822,0.852-1.366c0.441-0.543,0.559-0.734,1.836-1.498s2.85-1.527,3.848-1.248  s6.081,0.543,6.55,0.543s0.867,0.045,1.029-0.029c0.633-0.288,1.203-1.146,2.393-0.689c1.19,0.455,1.719,0.91,2.042,1.248  s1.321,0.676,1.968,0.881c0.646,0.206,1.982,0.999,1.982,0.455c0-0.543,0.661-1.204,0.94-0.925s0.484,0.676,0.396,1.307  c-0.088,0.632,0.103,0.794,0.338,1.087c0.234,0.294,0.749,0.867,0.983,1.16c0.235,0.294,0.235,0.573,0.221,0.896  s-0.25,0.631-0.015,1.013c0.235,0.383,0.528,0.896,0.69,1.176c0.161,0.278,0.059,0.411-0.162,0.558  c-0.22,0.146-0.367,0.514-0.528,0.514c-0.162,0-0.47-0.146-0.47,0.016c0,0.161,0.059,0.778-0.661,0.44s-0.852-1.087-1.278-0.911  c-0.426,0.177-1.086-0.176-1.542-0.499c-0.455-0.323-0.602-0.353-0.998-0.353s-0.44-0.044-0.471,0.044  c-0.029,0.088-0.352,0.088-0.352,0.265c0,0.176-0.045,1.953-0.045,2.07c0,0.118-0.249,0-0.264,0.147  c-0.015,0.146-0.059,0.22-0.059,0.309c0,0.088-0.06,0.103-0.06,0.337c0,0.235-0.322-0.029-0.249,0.162  c0.073,0.19-0.133,0.132-0.133,0.558s0,0.309-0.015,0.515c-0.015,0.205,0,0.558-0.015,0.91s-0.103,2.145,0.029,2.394  c0.133,0.25,0.221,0.323,0.661,0.515c0.44,0.19,0.661,0.22,0.822,0.382c0.162,0.161,0.588,0.205,0.544,0.426  c0,0-0.426-0.221-0.353-0.044c0.073,0.176,0.279,0.514,0.088,0.749C23.583,26.868,23.479,27,23.479,27s-0.059-0.367-0.22-0.309  c-0.162,0.059-0.265,0.146-0.177,0.221c0.088,0.073-0.279-0.191-0.396-0.191s-1.498-0.19-1.63-0.572s-0.338-0.632-0.338-0.632  s-0.132-0.073-0.132,0.015s-0.265-0.426-0.338-0.426s-0.015-0.559-0.177-0.705c-0.161-0.146-0.161-0.543-0.161-0.632  c0-0.088-0.088-0.411-0.279-0.602c-0.19-0.191-0.265-0.279-0.265-0.5c0-0.22-0.308-0.689-0.382-0.778  c-0.073-0.088-0.146-0.426-0.146-0.587c0-0.162,0.015-0.778,0-0.867c-0.015-0.088,0.206-0.322-0.146-0.19s-0.323,0.205-0.367,0.353  c-0.045,0.146-0.104,0.294-0.104,0.294s-0.233-0.382-0.411-0.147c-0.176,0.235-0.998,1.469-1.189,2.747  c-0.19,1.277-0.146,1.204,0.191,1.189c0.337-0.015,1.117-0.118,1.335,0.073c0.221,0.19,0.279,0.338,0.279,0.338  s-0.265,0.088-0.265,0.161s-0.733,0.72-0.925,0.72s-1.234,0.147-1.424,0.073c-0.191-0.073-0.338-0.19-0.44-0.132  c-0.104,0.059-0.544-0.103-0.544-0.265c0-0.161,0.147-0.396,0-0.396c-0.146,0-0.455-0.073-0.514-0.19  c-0.059-0.118-0.322-0.515-0.322-0.559s0.338-0.382,0.338-0.484s-0.133-0.279-0.016-0.47c0.118-0.191-0.088-0.191-0.072-0.353  c0.014-0.162,0.117-0.353,0.117-0.485c0-0.132,0.087-1.086,0.131-1.248c0.045-0.161-0.059-0.161,0-0.382  c0.06-0.22,0.133-0.309,0.074-0.44c-0.06-0.132-0.074-0.44-0.104-0.499c-0.029-0.06-0.131-0.029-0.088-0.294  c0.044-0.265,0.235-0.955,0.323-1.278c0.088-0.322,0.044-0.675-0.088-0.675c-0.133,0-0.705,0.103-0.705,0.103  s-1.396,0.793-2.072,0.866c-0.674,0.073-1.57,0.044-1.879,0.749s-0.383,2.526-0.367,2.791c0.014,0.264-0.354,0.616,0.117,0.881  s0.838,0.455,1.234,0.455s0.777,0.191,0.734,0.559c-0.045,0.367-0.852,0.514-0.705,0.66c0.146,0.147,0.221,0.749-0.455,0.911  c-0.676,0.161-2.014,0.161-2.469-0.015c-0.455-0.177-2.041-0.529-2.07-0.822c-0.029-0.294,0.514-0.955,0.176-1.337  c-0.223-0.253-0.24-0.408-0.227-0.485l-0.111,0.295c0,0,0.104-0.94-0.072-0.853c-0.176,0.089-0.074-0.338-0.162-0.484  s-0.146-0.294-0.176-0.47c-0.029-0.177-0.117-0.5-0.117-0.5l-0.045,0.206c0,0-0.162-0.617-0.338-0.91  c-0.176-0.294-0.381-0.382-0.559-0.588c-0.176-0.206-0.336-0.367-0.336-0.411s-0.178-0.881-0.428-1.277  c-0.248-0.397-0.234-1.028-0.439-1.807S2.948,14.031,3.228,13.121z"></path></svg>