<svg xmlns="http://www.w3.org/2000/svg" xmlns:xlink="http://www.w3.org/1999/xlink" version="1.1" x="0px" y="0px" viewBox="0 0 100 100" enable-background="new 0 0 100 100" xml:space="preserve"><g><path fill="#000000" d="M25.2,83.5c-0.5-0.3-1.1-0.4-1.7-0.2c-3.9,1.2-8.4,0.3-8.4,0.3c0.2,4.4,6.4,8.5,6.4,8.5   c-0.2-1.8,3-4.7,4.9-6.2c0.6-0.5,0.5-1.4-0.1-1.8L25.2,83.5z"></path><path fill="#000000" d="M60.6,69.8c0,0-3.9,3-3.7,4.7c0,0,0.7,2.8,0,4.1c-0.7,1.3,0.5,1.2,0.8,0.2c0.3-1,0.4-1.3,0.4-1.3   c0.4-1.4,0.4-3,0.4-3l3.9-3.5c0,0,2.8-0.8,3.2-7.2l-4,1.3C61.5,65.1,59.9,67,60.6,69.8z"></path><path fill="#000000" d="M52.2,36l0.3,0.2l0.3-0.3c0.7-0.6,1.9-0.9,3.5-0.9c0.6,0,1.2,0,1.6,0.1c0.3,0,0.5,0,0.7,0   c0.1,0,0.5,0,0.7-0.3l0.2-0.3l-0.2-0.3C46.3,13.8,36.4,8.4,36,8.1l-0.4-0.2l-0.3,0.4c-1.7,2.5,2.9,7.7,4.2,9.1   C36.5,25,51.5,35.6,52.2,36z M52.5,34.9c-1.6-1.1-8.5-6.4-11.2-11.5l8.5,4.7l3.9,6.3C53.3,34.5,52.9,34.7,52.5,34.9z M57.8,34.1   c-0.4,0-0.9-0.1-1.4-0.1c-0.6,0-1,0-1.5,0.1L43.5,15.8C47.4,19.7,52.3,25.5,57.8,34.1z M36,9.4c0.8,0.5,2.3,1.6,4.4,3.4l8.2,13.3   l-8.1-4.4c-0.5-1.5-0.6-2.9,0.1-4.2l0.2-0.3l-0.3-0.3C38.4,14.7,35.8,11.1,36,9.4z"></path><path fill="#000000" d="M74,73.5c0,0-0.4,3.4,1,3.4c1.4,0,2.3-1.3,2.7-2.8C77.7,74.1,76.8,71.9,74,73.5z"></path><path fill="#000000" d="M41.6,70.8c3.2-6.7,7.6-7.9,7.6-7.9c-3.9-4.9-5.2-9.5-5.2-13.3c0.8,0.2,1.7,0.3,2.4,0.5   c0.1,4,1.5,8,3.7,10.5c5.6,6.5,14.9,0.9,14.9,0.9c1.6-11.6,8.1-13,8.1-13c1-2.6-2.6-14.2-15.8-12.5c-3.5,0.5-6.1,2-7.8,4.1   c-7.3-5.4-16.2-10.9-19.2-12.4c-1.9-1-5.6-1.6-9.4-1.6c-3.3,0-14.1,0.6-15.5,7.8c-0.2,0.8,0.1,1.7,0.6,2.5   c2.2,3.2,10.3,6.2,19.3,8.8c0,0.1,0,0.2,0.1,0.4c9.7,12.6,7.5,13.8,7.5,13.8c-1.3,2.9-5.2,0-13.5-9.7c-2.1,2.4-4.2,7.3-4.2,7.3   c3.4,3.3,6.3,5.9,10.1,8.4c1.6,1,0.8,3.4-1.1,3.3c-4.4-0.2-8.7-3.9-11.4-5.6c-0.8,4.8-0.4,8.6-0.4,8.6c3.1,1.2,5.6,1.5,10.5,2.7   c2.3,0.5,1.9,4-0.5,4c-2.1-0.1-5.4-0.9-10.3-2.2c0.3,1.7,1.1,4.9,1.7,5.3c1.8,1.1,10.6,0,10.6,0l3.9,2.1   C31.3,81.5,38.5,77.5,41.6,70.8z M31.3,35.8l15.1,8.6L39,43.9l-12.4-5.7L23.7,36L31.3,35.8z M26.4,39.2l12.3,5.7l10.1,0.8l9.4,5.3   c-0.1,0-0.3,0-0.4,0c-7.9-1.2-26.3-4.7-38.8-8.9L26.4,39.2z M29.7,28.7c4.8,2.4,24.7,14.9,28.8,21.2c0,0,0.1,0.1,0.1,0.1L31.8,34.8   l-0.1-0.1l-2.5,0L17,27.5c1.3-0.2,2.6-0.2,3.9-0.2C24.5,27.3,28,27.8,29.7,28.7z M15.3,27.8l11.7,7l-7.5,0.1l-13-1.4   C7.5,30.3,11.1,28.6,15.3,27.8z M6.9,35.8c-0.3-0.4-0.4-0.8-0.5-1.2L19.5,36l2.4,0l3.3,2.5l-7.9,3.1C12.2,39.8,8.2,37.8,6.9,35.8z"></path><path fill="#000000" d="M90.6,56.4c-0.3-0.4-2-1.1-3.8-1.9c-1-4.2-4.3-5.3-4.3-5.3s0,0-0.1,0l3.7-3.7c0,0,6.1-1.8,7.5-2.3   s0-0.9,0-0.9s-6.5,1.9-7.5,2.3c-0.6,0.2-2.9,2.3-4.6,4.1c-1.3-0.5-3.7-0.7-7.2,1c-5.6,2.8-11.6,12.3-2.5,21.1l2.1,1.5   c0,0,1.9-2.1,4.4,0c0,0,8.8-3.5,8.8-15.4c0-0.4,0-0.8-0.1-1.2l2.7,1c0,0,3.8,5.6,4.7,6.6c0.8,1,0.9-0.3,0.9-0.3   S91.2,57.3,90.6,56.4z M77.7,60.3c-0.8,3.8-3.4,6.8-5.1,6.5c-1.7-0.4-3.1-3.7-2.3-7.6c0.8-3.8,3.5-6.7,5.2-6.3   C77.3,53.2,78.5,56.5,77.7,60.3z"></path><path fill="#000000" d="M53.4,78.4L53.4,78.4c0,0-2.5-1.6-2.8-3.9c0,0,1.4-3.1-1.4-9.5c0,0-3.5,1.1-3.5,3.2c0,0,1.4,5.6,3.5,6.3   c0,0,2.2,5,4,5.4c0,0,0.1,0,0.2,0c0,0,0,0,0,0c0,0,0,0,0.1,0v0c0.3-0.1,0.5-0.4,0.5-0.8C53.9,78.8,53.7,78.5,53.4,78.4z"></path><path fill="#000000" d="M45.8,86.8c-0.1-0.5-0.5-1.8-1.3-3.4c0,0-0.8-4.2-5-6.8L36.2,80c0,0,2.8,2.9,4.7,4.6c0.8,0.7,2,0.4,2.4-0.6   l1.9,3.2c0.1,0.2,0.2,0.3,0.3,0.3c0.2,0,0.4-0.2,0.4-0.5l0,0c0,0,0,0,0,0c0,0,0,0,0,0C45.9,87,45.9,86.9,45.8,86.8z"></path></g></svg>