<svg xmlns="http://www.w3.org/2000/svg" xmlns:xlink="http://www.w3.org/1999/xlink" version="1.1" x="0px" y="0px" viewBox="0 0 100 100" enable-background="new 0 0 100 100" xml:space="preserve"><path fill-rule="evenodd" clip-rule="evenodd" d="M98.883,50.565c-0.712,0-1.203,0-1.775,0c0.23,1.063,1.082,1.55,1.809,2.242  c-0.846,0.315-1.494,0.153-2.104-0.357c-0.287-0.243-0.438-0.801-0.913-0.646c-0.62,0.204,0.155,0.84-0.271,1.171  c-0.561-0.068-0.819-0.464-1.065-0.925c-0.2-0.371-0.074-1.349-1.058-0.402c-0.388,0.373-1.216-0.748-1.269-1.436  c-0.171-2.147-1.146-4.107-1.183-6.312c-0.038-2.176-2.645-3.892-5.21-3.726c0.882,1.765,1.878,3.437,2.561,5.272  c0.698,1.878-0.041,3.75,0.265,5.734c-0.523-0.291-0.951-0.529-1.526-0.85c0.229,1.792,0.812,3.297,1.977,4.59  c-0.665,0.458-1.172-0.715-1.719-0.201c-0.51,0.48-0.043,1.146-0.049,1.748c-0.354,0.54-0.921-0.775-1.141,0.07  c-0.213,0.823-0.283,1.73,0.48,2.376c0.748,0.634,1.647,0.932,2.622,1.026c1.379,0.137,1.969,0.702,1.776,2.276  c-0.415,3.398-0.069,6.812,0.18,10.22c0.044,0.614,0.807,2.043-1.041,1.757c-0.136-0.021-0.397,0.638-0.566,0.996  c-0.841,1.771-2.379,2.294-4.181,2.433c-1.11,0.086-1.115-1.202-1.998-1.504c-0.334-0.114,0.243-1.057,0.615-1.519  c0.628-0.782,1.3-1.529,1.946-2.297c1.398-1.656,1.563-3.51,0.875-5.502c-0.614-1.779-2.487-3.232-4.496-1.981  c-1.188,0.738-2.528,0.583-3.768,0.021c-3.819-1.736-6.922-4.419-9.551-7.62c-1.163-1.414-1.524-3.252-1.584-5.092  c-0.033-0.972-0.008-1.946-0.109-2.915c-0.855,2.55-0.412,5.042,0.443,7.463c0.333,0.943,0.232,1.41-0.657,1.896  c-1.985,1.087-4.03,2.028-6.175,2.738c-2.056,0.679-4.077,0-6.088-0.34c-2.222-0.375-4.412-0.957-6.641-1.259  c-1.213-0.163-1.074-0.618-0.744-1.447c0.66-1.658,1.8-3.007,2.753-4.477c0.988-1.524,1.758-3.121,1.829-5.054  c-2.125,4.803-5.905,8.699-6.843,13.958c-0.678,0.028-1.221-0.603-1.921-0.271c-0.128,0.672,0.68,0.622,0.866,1.192  c-1.677,0.329-1.609,1.692-1.74,2.98c-0.289,2.836-0.253,5.717-1.1,8.478c-0.575,1.875-3.976,3.659-5.912,3.215  c-0.829-0.192-0.465-1.336-1.358-1.467c-0.147-0.022,0.235-0.593,0.506-0.78c3.184-2.196,3.378-5.504,3.239-8.88  c-0.095-2.318-0.67-4.555-1.684-6.664c-1.394-2.901-2.263-5.973-2.918-9.121c-0.205,2.112,0.265,4.142,0.907,6.11  c0.38,1.166-0.078,1.262-1.01,1.234c-2.54-0.071-2.54-0.056-3.209,0.446c-0.437-0.195-0.221-0.709-0.466-0.998  c-0.198-0.232-0.603-0.584-0.702-0.428c-1.128,1.773-1.517-0.8-2.559-0.211c-0.325,0.314,0.436,0.742,0.22,1.208  c-1.069-0.262-1.069-0.262-1.309,1.211c-0.641-0.313-0.821-1.328-1.761-1.176c-0.097,0.485,0.493,0.591,0.501,1.026  c-0.619-0.031-1.194-0.216-1.643-0.625c-2.292-2.087-4.936-2.729-7.906-1.911c-2.388,0.657-4.448-0.021-6.372-1.39  c-0.389-0.276-0.649-0.723-1.282-0.327c-1.495,0.935-2.664,0.266-3.679-0.904c-0.53-0.609-1-1.26-1.286-2.021  c-0.36-0.961-0.275-1.58,0.97-1.813c1.202-0.226,2.132-1.104,2.896-2.021c1.245-1.495,2.704-2.646,4.462-3.483  c2.902-1.382,4.106-3.975,4.721-6.937c0.733-3.531,2.453-6.112,5.124-7.628c0.432,0.339-0.343,0.833,0.243,1.211  c0.709-0.595,1.447-1.241,2.219-1.844c0.2-0.156,0.46-0.451,0.782-0.173c0.82,0.708,0.822,0.716,1.611-0.063  c0.319-0.316,0.614-0.655,1.049-1.121c0.218,1.657,0.76,1.363,1.592,0.456c0.28-0.307,0.478-1.908,1.482-0.479  c0.132,0.189,0.381-0.211,0.516-0.401c0.491-0.696,0.927-1.438,1.471-2.088c0.348-0.415,0.701-1.374,1.417-0.205  c0.272,0.444,0.719,0.046,0.975-0.278c0.372-0.472,0.695-0.984,1.087-1.439c0.185-0.214,0.677-0.492,0.697-0.468  c1.393,1.693,1.968-0.332,2.908-0.629c0.419-0.131,0.625-0.677,1.228-0.608c0.056,0.518-0.674,1.186,0.087,1.558  c0.583,0.284,1.003-0.304,1.437-0.588c1.231-0.807,2.081-2.193,3.692-2.444c0.084,1.738,1.042,2.406,2.466,1.72  c1.106-0.534,2.182-1.657,3.23,0.155c0.167,0.29,0.927,0.293,1.419,0.32c0.678,0.036,1.675-0.611,1.549,0.854  c1.259-0.277,1.436,1.327,2.527,1.435c0.907,0.089,1.927-0.338,2.616,0.956c0.315,0.589,1.566-0.192,2.408-0.21  c0.504-0.011,1.274-0.501,0.938,0.729c-0.141,0.512,0.425,0.544,0.854,0.364c0.548-0.229,1.099-0.454,1.82-0.752  c-0.169,1.109-0.136,2.021,1.269,1.633c0.045-0.012,0.097,0.01,0.146,0.016c-0.843,2.361,2.706,0.329,2.328,2.294  c-0.01,0.052,0.695,0.315,1.08,0.355c5.005,0.523,9.535,2.244,13.554,5.296c0.725,0.552,1.594,0.818,2.48,1.035  c2.688,0.658,4.895,2.051,6.414,4.4c0.419,0.647,0.914,0.939,1.676,1.078c2.777,0.506,4.275,2.021,4.693,4.744  C98.005,48.586,98.056,49.62,98.883,50.565z M31.016,32.687c0.339,2.114-0.567,3.608-2.219,4.751  c-0.412,0.285-0.864,0.511-1.262,0.814c-0.256,0.195-0.674,0.471-0.294,0.836c0.568,0.546,1.232,0.227,1.835,0.006  c0.209-0.076,0.752-0.364,0.496-0.462c-1.143-0.441-0.138-0.542,0.082-0.691c2.118-1.434,3.349-5.045,2.537-7.528  c-0.095-0.291-0.216-0.872-0.65-0.386c-0.987,1.103-2.404,1.151-3.637,1.647c-1.449,0.583-2.423,1.653-2.783,3.135  c-0.237,0.977-0.593,2.395,0.637,2.77c1.006,0.305,1.701-1.043,1.845-1.837C27.969,33.73,29.313,33.107,31.016,32.687z   M12.301,50.825c-1.257,0.935-1.619,2.066-1.498,3.384c0.038,0.411-0.129,0.961,0.484,1.127c0.634,0.172,1.173-0.009,1.608-0.5  c0.08-0.088,0.426-0.046,0.04-0.295C11.522,53.639,12.153,52.298,12.301,50.825z"></path><path fill-rule="evenodd" clip-rule="evenodd" d="M67.667,76.75c-1.245,0.069-1.086-1.398-2.115-1.501  c-0.221-0.021,0.247-0.868,0.522-1.247c1.463-2.026,2.762-4.162,4.342-6.115c1.528-1.887,1.317-2.354-0.886-3.267  c-1.807-0.75-2.699-2.289-3.352-4.031c-0.193-0.514,0.015-0.731,0.405-0.944c0.57-0.313,1.159-0.603,1.687-0.977  c0.594-0.422,0.969-0.229,1.394,0.254c1.766,1.999,3.75,3.761,6.016,5.172c0.663,0.413,0.493,0.688,0.089,1.123  c-0.852,0.918-1.683,1.853-2.301,2.958c-0.475,0.85-0.744,1.711-0.634,2.713C73.187,74.083,70.667,76.807,67.667,76.75z"></path><path fill-rule="evenodd" clip-rule="evenodd" d="M30.201,76.414c-0.996,0.322-1.31-0.709-1.75-1.263  c-0.486-0.614,0.375-0.897,0.751-1.19c1.63-1.266,2.279-3,2.445-4.961c0.231-2.735-0.138-5.388-1.174-7.947  c-0.188-0.464-0.691-0.967-0.147-1.506c0.499-0.493,1.022-0.101,1.545-0.005c0.539,0.1,1.176,0.329,1.622,0.143  c1.343-0.559,1.619,0.262,2.035,1.219c0.542,1.245,0.855,2.417,0.612,3.832c-0.422,2.461-0.513,4.979-0.882,7.451  C34.909,74.51,32.636,76.363,30.201,76.414z"></path><path fill-rule="evenodd" clip-rule="evenodd" d="M17.236,28.157c2.676,1.778,1.135,3.086-0.358,4.431  c-0.288,0.258-0.47,0.64-0.679,0.977c-0.208,0.337-0.391,0.689-0.593,1.051C15.055,32.938,15.766,30.235,17.236,28.157z"></path></svg>