<svg xmlns="http://www.w3.org/2000/svg" xmlns:xlink="http://www.w3.org/1999/xlink" version="1.1" x="0px" y="0px" viewBox="0 0 100 100" enable-background="new 0 0 100 100" xml:space="preserve"><g><path d="M94.912,49.069c0.326,0.291,0.674,0.453,1.641,0.597c-0.295-0.195-0.877-0.684-1.006-1.118   c0.344,0.259,0.801,0.401,1.453,0.597c-0.57-0.597-0.912-0.707-1.193-0.969c-0.1-0.092-0.277-0.297-0.369-0.396   c-0.17-0.181-0.535-0.519-0.676-0.722c-0.141-0.205-0.141-0.205-0.445-0.895c0.691,0.591,0.541,0.316,1.564,1.268   c-0.367-1.071-1.043-1.715-1.715-2.312c-0.67-0.596-0.818-1.416-0.818-1.416s-0.299-3.205-0.969-4.249   c-0.672-1.043-1.943-2.749-5.592-3.801c-0.285-0.083-1.051-0.26-2.012-0.447c-1.715-0.334-3.137-0.874-5.74-2.014   c-1.727-0.756-3.996-0.8-5.217-1.267c-0.563-0.214-1.641-0.969-1.641-0.969l-0.895-0.522l-0.674-0.249l-0.816-0.198   c0,0-1.49-0.895-1.789-0.895s-1.938-0.596-2.162-0.67c-0.223-0.075-1.193-0.522-1.641-0.82s-2.234-0.895-2.234-0.895   s-1.566-0.596-1.865-0.596c-0.297,0-1.938-0.522-2.385-0.597c-0.445-0.074-1.787-0.522-1.787-0.522l-1.77-0.521l-1.555-0.218   c0,0-1.451,0.003-1.895-0.154c-0.352-0.125-1.47-0.52-1.992-0.52s-1.586,0.228-1.884,0.004c-0.298-0.224-2.087-0.522-2.311-0.522   s-1.417,0-1.714,0c-0.298,0-1.118-0.074-1.417,0c-0.298,0.075-2.13,0-2.13,0s-0.88-0.155-1.398,0.026   c-0.521,0.181-2.434,0.639-2.658,0.639s-0.671,0.223-1.043,0.373c-0.373,0.149-1.789,0.522-1.789,0.522l-1.64,0.746   c0,0-1.228,0.366-1.601,0.441c-0.372,0.074-1.224,0.861-1.373,1.085c-0.149,0.224-0.33,0.449-0.777,0.598s-0.933,0.537-0.933,0.537   s-0.162,0.469-0.684,0.469c-0.521,0-0.671,0.074-0.895,0.149c-0.223,0.075-0.372,0.298-0.82,0.373   c-0.447,0.074-0.894,0.596-0.894,0.596s-0.438,0.658-0.438,0.882c0,0.223-0.673,0.362-0.673,0.362l-0.492,0.363   c0,0-0.291,0.484-0.409,0.63c-0.132,0.164-0.387,0.57-0.596,0.596c-0.216,0.026-0.536-0.389-0.746-0.447   c-0.162-0.045-0.503,0-0.671,0c-0.167,0-0.509,0.043-0.67,0c-0.25-0.068-0.587-0.578-0.812-0.449   c-0.105,0.061,0.017,0.343-0.083,0.412c-0.594,0.406-0.663-0.543-0.942-0.35c-0.199,0.138-0.09,0.774-0.325,0.833   c-0.267,0.068-0.426-0.843-0.701-0.835c-0.266,0.008-0.355,0.575-0.443,0.827c-0.205,0.58-0.107,1.159-0.421,1.35   c-0.143,0.087-0.315,0.111-0.434,0.23c-0.159,0.159-0.238,0.431-0.389,0.596c-0.555,0.608-0.351,0.296-0.466,0.44   c-0.162,0.204-0.587-0.482-0.829-0.388c-0.466,0.181-0.703,0.233-0.841,0.432c-0.286,0.411-0.635-0.017-0.543,0.111   c0.064,0.09-0.324,0.156-0.403,0.234c-0.171,0.171-0.432,0.065-0.673,0.078c-0.674,0.037-0.287,0.681-0.415,0.906   c-0.338,0.599-0.895,0.094-1.008,0.423c-0.174,0.509-0.231,0.615-0.261,0.821c-0.1,0.68-0.75,0.541-0.881,0.726   c-0.091,0.128,0.198,0.613,0.137,0.758c-0.201,0.488-0.179,0.904,0,1.118c0.12,0.143,0.495,0.291,0.597,0.447   c0.093,0.145-0.028,0.481-0.112,0.63c-0.348,0.616-0.093,0.776-0.13,1.037c-0.036,0.251-0.416,0.488-0.521,0.719   c-0.084,0.187,0.01,0.616,0,0.82c-0.029,0.598-0.614,0.863-0.58,1.192c0.078,0.742,0.1,0.749,0,0.969   c-0.077,0.17,0.049,0.565,0,0.746c-0.068,0.25-0.555,0.637-0.521,0.894c0.068,0.523-0.26,0.847-0.373,1.119   c-0.058,0.137-0.105,0.49,0,0.597c0.145,0.145,0.601,0.171,0.777,0.275c0.262,0.157,0.788,0.694,1.012,0.694   s0.184,0.354,0.224,0.521c0.065,0.271,0.075,1.117,0.075,1.117v1.045c0,0-0.254,0.68-0.149,1.043   c0.394,1.357,1.43,2.082,2.607,1.941c0,0,1.056,0.922,1.363,1.047c0.372,0.148,1.023,0.066,1.322,0.588   c0.298,0.525,1.152,2.928,1.697,3.25c0.582,0.344,1.084,2.459,1.583,2.863c0.617,0.5,1.892,0.572,2.012,0.521   c0.098-0.039-0.023-0.275,0.071-0.322c0.117-0.059,0.695,0.072,0.749-0.051c0.083-0.184-0.298-0.496-0.188-0.664   c0.115-0.176,0.505,0.197,0.655,0.053c0.095-0.092-0.19-0.4-0.114-0.508c0.054-0.078,0.255,0.074,0.318,0.002   c0.172-0.195-0.056-0.986,0.184-1.092c0.109-0.047,0.225,0.201,0.332,0.148c0.218-0.104-0.141-0.688,0.018-0.871   c0.086-0.1,0.263,0.225,0.349,0.127c0.086-0.102-0.099-0.398,0.086-0.623c0.155-0.189,0.385,0.031,0.481-0.037   c0.136-0.1-0.179-0.4-0.034-0.484c0.465-0.271,0.678-0.076,1.239-0.184c0.374-0.072,0.589-0.389,0.774-0.412   c0.144-0.02,0.391,0.283,0.628,0.133c0.126-0.082,0.238,0.398,0.388,0.387c0.264-0.021,0.41-0.426,0.539-0.195   c0.107,0.195,0.474,0.381,0.625,0.238c0.17-0.16,0.319-0.098,0.539,0.107c0.077,0.072,0.377,0.068,0.475,0.107   c0.103,0.043,0.278,0.438,0.366,0.367c0.194-0.15,0.279-0.666,0.302-0.561c0.065,0.303,0.216,0.734,0.61,0.832   c0.167,0.041,0.507,0.201,0.671,0.148c0.188-0.061,0.336-0.666,0.521-0.596c0.209,0.078-0.203,0.988,0,0.895   c0.29-0.137,0.376-0.287,0.597,0c0.089,0.115,0.223,0.373,0.447,0.373c0.224,0,0.64,0.068,0.597,0.223   c-0.229,0.82-0.078,2.674-0.143,2.869c-0.236,0.707-0.245,1.012-0.305,1.381c-0.047,0.291-0.256,0.846-0.373,1.117   c-0.125,0.289-0.493,0.818-0.596,1.117c-0.105,0.305-0.248,2.348-0.329,2.754c-0.05,0.252-0.447,0.68-0.612,0.879   c-0.254,0.311-0.839,0.48-1.147,0.736c-0.435,0.361-1.016,1.006-0.803,1.223c0.262,0.268,2.098,0.676,2.383,0.674   c0.389,0,2.332-0.154,2.766-0.543c0.292-0.26,0.834-0.484,1.042-0.82c0.187-0.301,0.213-1.051,0.259-1.402   c0.066-0.496,0.587-1.443,0.518-1.939c-0.03-0.215-0.187-0.572-0.108-0.777c0.07-0.18,0.131-0.061,0.28-0.188   c0.287-0.24,0.298-1.301,0.671-1.34c0.237-0.025,0.455,0.553,0.596,0.744c0.164,0.223,0.584,0.6,0.82,0.746   c0.221,0.137,0.755,0.52,0.969,0.373c0.139-0.096-0.125-0.559,0-0.67c0.126-0.115,0.523,0.154,0.671,0.072   c0.183-0.1,0.184-0.658,0.373-0.746c0.07-0.029,0.225,0.053,0.298,0.078c0.162,0.047,0.5,0.318,0.638,0.221   c0.076-0.053-0.09-0.348,0-0.373c0.188-0.053,0.26,0.49,0.441,0.416c0.108-0.047,0.193-0.705,0.388-0.885   c0.116-0.109,0.499,0.053,0.619-0.051c0.176-0.154,0.221-0.879,0.447-0.82c0.126,0.031,0.082,0.361,0.14,0.246   c0.638-1.291,1.276-2.26,1.724-2.408c0.447-0.15,0.478-0.418,0.895-0.15c0.145,0.094,0.185-0.514,0.354-0.479   c0.164,0.031,0.334,0.287,0.372,0.449c0.039,0.162,0.096,0.398,0.254,0.453c0.201,0.066,0.246-0.402,0.458-0.391   c0.217,0.016,0.294,0.654,0.352,0.863c0.055,0.197,0.121,0.584,0.188,0.775c0.137,0.404,0.558,1.014,0.632,1.535   c0.074,0.52,0.022,1.67,0,1.938c-0.029,0.346,0.141,0.867,0.016,1.416c-0.122,0.533-0.467,1.229-0.612,1.639   c-0.088,0.254-1.201,0.938-1.345,1.162c-0.093,0.145-0.782,0.84-0.761,1.012c0.019,0.158,1.217,0.332,1.658,0.414   c0.57,0.104,1.644,0.051,2.073,0.051c0.279,0,1.506-0.594,1.643-0.838c0.335-0.598,0.392-1.305,0.481-1.545   c0.195-0.527,0.806-1.617,0.881-1.916s0.176-0.869,0.57-1.141c0.582-0.402,0.641-0.252,0.764-0.105   c0.126,0.152,0.224,0.354,0.41,0.283c0.209-0.078-0.104-0.521,0.113-0.582c0.209-0.057,0.266,0.412,0.475,0.354   c0.313-0.088-0.158-0.486-0.029-0.576c0.168-0.111,0.545,0.221,0.686,0.076c0.127-0.131-0.361-0.313-0.236-0.447   c0.117-0.133,0.699,0.182,0.805,0.039c0.137-0.182-0.555-0.543-0.533-0.768c0.016-0.184,0.379-0.273,0.529-0.381   c0.135-0.098,0.377-0.092,0.465-0.232c0.078-0.127-0.021-0.313,0.115-0.371c0.174-0.074,0.492,0.195,0.428,0.021   c-0.084-0.221-0.611-0.506-0.691-0.77c-0.053-0.174,0.295,0.313,0.4,0.166c0.148-0.209-0.467-0.547-0.326-0.762   c0.088-0.133,0.492,0.246,0.617,0.148c0.162-0.129-0.109-0.473,0-0.594c0.096-0.109,0.316,0.258,0.414,0.15   c0.141-0.156-0.037-0.66,0.041-0.855c0.049-0.115,0,0,0.047-0.117c0.068-0.182-0.492-0.252-0.424-0.434   c0.076-0.209,0.533-0.17,0.795-0.313c0.217-0.117-0.746-0.236-0.873-0.447c-0.068-0.111,0.189-0.404,0.111-0.51   c-0.072-0.098-0.584-0.037-0.58-0.162c0.008-0.229,0.887,0.008,0.895-0.223c0.01-0.234-0.891-0.063-0.895-0.297   c-0.002-0.219-0.254-0.199-0.238-0.416c0.02-0.275,0.301-0.229,0.09-0.404c-0.092-0.076-0.584-0.275-0.65-0.373   c-0.086-0.125-0.207-0.27-0.129-0.475c0.057-0.156-0.193-0.16-0.152-0.324c0.068-0.266,0.178-0.008,0.037-0.244   c-0.105-0.18,0.031-0.635,0.092-0.834c0.039-0.125,0.076-0.441,0.207-0.434c0.486,0.029-0.018-0.57,0.053-0.666   c0.146-0.197,0.816-0.238,1.014-0.389c0.396-0.295,0.797-0.51,1.916-0.586c1.117-0.074,1.49,0.223,2.16,0.297   c0.672,0.078,2.012,0.078,2.758,0.225c0.746,0.15,3.258,1.016,4.033,0.949c0.674-0.055,0.549,0.398,1.035,0.604   c0.477,0.203,1.191,0.145,1.789,0c1.719-0.414,2.994-1.158,3.516-1.531s2.738-2.311,3.193-2.182   c0.625,0.178,0.646,3.813,0.797,4.576c0.139,0.701,0.688,5.053,0.539,5.65c-0.148,0.596-1.262,2.967-1.484,3.488   c-0.225,0.521-1.865,2.906-2.313,3.279s-1.639,1.344-2.012,1.863c-0.371,0.521-0.672,0.82,0.074,0.969s1.193,0.373,2.313,0.373   c1.117,0,1.787,0.074,2.533-0.373c0.744-0.447,1.268-0.82,1.416-1.488c0.148-0.672,0.373-1.492,0.67-2.088   c0.299-0.598,1.797-3.191,2.447-4.041c0.674-0.879,1.205-1.998,1.652-2.297c0.449-0.297,0.598-0.67,0.672-1.117   c0.074-0.445-0.318-1.254-0.318-1.998s0.096-2.648,0.096-3.084c0-0.434,0.969-1.553,0.969-1.553s3.055,3.355,3.576,3.951   c0.521,0.598,2.236,1.641,2.609,2.086c0.373,0.447,2.014,2.164,2.162,3.059s1.268,4.621,1.342,5.217   c0.074,0.598-0.451,1.818-0.512,2.121c-0.086,0.43-0.621,1.766-0.756,1.979c-0.113,0.18-0.332,0.637-0.223,0.82   c0.234,0.393,1.576,0.373,1.793,0.373c0.219,0,1.434-0.152,1.969-0.436c0.4-0.209,0.83-0.832,0.926-1.119   c0.137-0.406-0.172-1.531-0.129-1.963c0.039-0.4-0.109-2.086-0.109-2.459s0.17-0.58,0.314-0.668   c0.092-0.057-0.236-0.023-0.248-0.131c-0.025-0.215,0.035-0.328-0.043-0.531c-0.057-0.139,0.418-0.432,0.297-0.521   c-0.988-0.736-0.621-0.758-0.074-0.895c0.121-0.029-0.416-0.102-0.447-0.225c-0.023-0.092,0.166-0.236,0.221-0.314   c0.074-0.107-0.404-0.121-0.428-0.25c-0.063-0.332-0.195-0.65-0.389-0.924c-0.164-0.23-0.15-0.598-0.15-1.119   s-0.373-1.566-0.373-2.236c0-0.672-0.371-1.713-0.371-2.012s0.082-1.127-0.299-1.416c-1.156-0.877-3.695-3.496-4.025-5.592   c-0.279-1.775,0.691-4.407,0.928-5.679c0.199-1.067-0.184-4.213-0.26-4.809c-0.074-0.596,0.227-2.705-0.295-3.749   s-1.193-2.013-1.193-2.013s1.492,0.149,2.162,0.82c0.672,0.671,1.564,1.789,1.715,2.833c0.148,1.043,0.596,2.459,0.521,2.757   c-0.074,0.298-1.043,2.013-1.043,2.236s-0.238,1.232-0.225,1.715c0.006,0.167,0.15,0.428,0.252,0.708   c0.102,0.28,1.256,0.989,1.643,1.162c-0.408-0.626-0.793-0.941-1.148-1.721c1.018,1.072,1.084,1.347,2.076,1.906   c0.408,0.23,1.504,0.275,1.963,0.31c-0.393-0.164-0.73-0.303-1.207-0.577c-0.273-0.156-0.447-0.705-0.582-0.976   c-0.1-0.2-0.182-0.841-0.238-1.229C94.414,48.279,94.693,48.876,94.912,49.069z M22.945,40.174c-0.168,1.17-1.28,2.325-2.655,2.485   c-1.128,0.132-2.499-1.469-2.232-2.461c0.122-0.455,1.069-0.102,1.889-0.848c0.819-0.745-0.166-6.002,0.12-6.018   c0.267-0.013,1.754,2.349,2.383,3.911C22.887,38.329,23.091,39.157,22.945,40.174z"></path></g></svg>