<svg xmlns="http://www.w3.org/2000/svg" xmlns:xlink="http://www.w3.org/1999/xlink" version="1.1" x="0px" y="0px" viewBox="0 0 100 100" enable-background="new 0 0 100 100" xml:space="preserve"><path fill="#000000" d="M95.665,7.523c-2.074-0.426-5.691,0.319-8.829,1.17s-8.191,4.574-11.063,6.702  c-2.872,2.128-9.308,8.617-11.276,10.851c-1.968,2.234-8.563,11.01-10.266,13.723c-0.403,0.642-0.655,1.247-0.808,1.798  c-0.133-0.281-0.265-0.56-0.393-0.836c-0.002-0.005-0.006-0.01-0.008-0.015c0.353-0.372,0.571-0.873,0.571-1.427  c0-1.146-0.929-2.074-2.074-2.074c-0.032,0-0.062,0.004-0.093,0.005c0.062-0.305,0.112-0.567,0.072-0.777l0.087,0.063  c0,0,0.178-0.251,0.49-0.691c0.155-0.222,0.349-0.484,0.575-0.779c0.117-0.146,0.242-0.3,0.374-0.464  c0.135-0.16,0.278-0.329,0.427-0.505c0.152-0.173,0.31-0.354,0.474-0.541c0.169-0.183,0.343-0.371,0.522-0.566  c0.363-0.385,0.746-0.783,1.164-1.185c0.414-0.403,0.839-0.829,1.251-1.275c0.415-0.445,0.833-0.899,1.24-1.366  c0.408-0.465,0.8-0.944,1.18-1.43c0.089-0.123,0.178-0.245,0.267-0.366l0.132-0.182c0.049-0.068,0.085-0.131,0.128-0.197  c0.085-0.13,0.159-0.261,0.23-0.392c0.074-0.13,0.142-0.261,0.207-0.392c0.267-0.52,0.494-1.034,0.714-1.518  c0.224-0.483,0.453-0.932,0.668-1.347c0.215-0.414,0.402-0.798,0.556-1.143c0.151-0.346,0.267-0.654,0.354-0.91  c0.095-0.254,0.089-0.482,0.052-0.65c-0.02-0.084-0.043-0.152-0.063-0.198c-0.024-0.048-0.036-0.073-0.036-0.073l-0.201-0.071  c0,0-0.025,0.012-0.074,0.034c-0.045,0.024-0.106,0.06-0.174,0.112c-0.135,0.105-0.285,0.274-0.375,0.527  c-0.098,0.25-0.21,0.556-0.323,0.913c-0.112,0.357-0.228,0.764-0.351,1.211c-0.126,0.445-0.267,0.926-0.456,1.418  c-0.191,0.491-0.41,1.002-0.653,1.519c-0.06,0.13-0.122,0.259-0.19,0.386c-0.065,0.129-0.132,0.257-0.207,0.378  c-0.037,0.06-0.072,0.128-0.11,0.182l-0.127,0.186c-0.085,0.124-0.17,0.249-0.256,0.374c-0.353,0.481-0.727,0.967-1.119,1.44  c-0.392,0.472-0.787,0.944-1.197,1.388c-0.405,0.451-0.817,0.876-1.226,1.284c-0.41,0.405-0.796,0.817-1.154,1.207  c-0.357,0.393-0.689,0.769-0.994,1.117c-0.15,0.177-0.293,0.346-0.43,0.507c-0.133,0.164-0.259,0.32-0.378,0.467  c-0.231,0.3-0.425,0.565-0.582,0.784c-0.225,0.307-0.38,0.519-0.453,0.618c-0.127-0.291-0.514-0.453-1.459-0.456  c-0.945,0.002-1.332,0.165-1.459,0.456c-0.073-0.099-0.228-0.311-0.453-0.618c-0.157-0.218-0.351-0.484-0.582-0.784  c-0.119-0.147-0.245-0.303-0.378-0.467c-0.137-0.161-0.28-0.33-0.43-0.507c-0.305-0.348-0.637-0.725-0.994-1.117  c-0.358-0.39-0.744-0.802-1.154-1.207c-0.409-0.408-0.821-0.833-1.226-1.284c-0.41-0.445-0.805-0.916-1.197-1.388  c-0.391-0.474-0.765-0.959-1.119-1.44c-0.086-0.125-0.171-0.25-0.256-0.374l-0.127-0.186c-0.038-0.054-0.073-0.122-0.11-0.182  c-0.075-0.121-0.142-0.249-0.207-0.378c-0.067-0.127-0.13-0.256-0.19-0.386c-0.243-0.516-0.461-1.028-0.653-1.519  c-0.189-0.492-0.33-0.973-0.456-1.418c-0.123-0.446-0.238-0.853-0.351-1.211c-0.114-0.357-0.225-0.663-0.323-0.913  c-0.09-0.253-0.241-0.422-0.375-0.527c-0.068-0.052-0.129-0.089-0.174-0.112c-0.049-0.022-0.074-0.034-0.074-0.034l-0.201,0.071  c0,0-0.012,0.025-0.036,0.073c-0.02,0.047-0.043,0.114-0.063,0.198c-0.037,0.167-0.044,0.396,0.052,0.65  c0.088,0.256,0.204,0.564,0.354,0.91c0.153,0.345,0.34,0.729,0.556,1.143c0.215,0.414,0.443,0.864,0.668,1.347  c0.22,0.485,0.447,0.998,0.714,1.518c0.065,0.131,0.133,0.262,0.207,0.392c0.071,0.131,0.145,0.263,0.23,0.392  c0.043,0.066,0.078,0.129,0.128,0.197l0.132,0.182c0.089,0.121,0.178,0.243,0.267,0.366c0.379,0.486,0.772,0.965,1.18,1.43  c0.406,0.466,0.825,0.921,1.24,1.366c0.412,0.446,0.837,0.873,1.251,1.275c0.418,0.401,0.8,0.8,1.164,1.185  c0.179,0.194,0.353,0.383,0.522,0.566c0.164,0.187,0.322,0.367,0.474,0.541c0.149,0.176,0.291,0.345,0.427,0.505  c0.132,0.163,0.256,0.318,0.374,0.464c0.226,0.295,0.42,0.558,0.575,0.779c0.312,0.44,0.49,0.691,0.49,0.691l0.087-0.063  c-0.04,0.21,0.01,0.471,0.072,0.777c-0.031-0.001-0.062-0.005-0.093-0.005c-1.146,0-2.074,0.929-2.074,2.074  c0,0.553,0.218,1.055,0.571,1.427c-0.002,0.005-0.006,0.01-0.008,0.015c-0.128,0.276-0.261,0.555-0.393,0.836  c-0.153-0.551-0.405-1.157-0.808-1.798c-1.702-2.713-8.298-11.489-10.266-13.723c-1.968-2.234-8.404-8.723-11.276-10.851  s-7.925-5.851-11.063-6.702s-6.755-1.596-8.829-1.17C2.26,7.948-0.506,8.161,0.08,11.778L4.76,31.99l2.021,8.776  c0,0,1.862,5.106,6.276,5.798s10.212-0.213,12.553-0.213c0.01,0,0.022,0,0.033,0c-2.39,0.662-4.847,1.336-8.419,3.262  c0,0-2.447,1.915-3.298,3.652c-0.727,1.484-1.631,3.333-2.092,3.865s-1.078,1.489-0.816,2.376c0.284,0.957,0.993,1.454,1.206,2.518  c0.188,0.939-0.532,2.624-0.78,2.943c-0.248,0.319-0.922,1.95-0.106,2.766c0.675,0.675,2.447,1.667,2.447,2.73  c0,1.064-0.532,2.553-0.106,3.404c0.426,0.851,1.915,1.596,2.305,2.34c0.39,0.745,0.603,1.631-0.78,3.723  c-1.383,2.092-2.589,4.397-3.688,6.312s-3.191,5-1.844,5.993c1.347,0.993,2.73-0.177,3.369-1.844  c0.638-1.667,0.461-2.943,2.092-5.035c1.631-2.092,2.695-3.191,6.17-2.198c0,0,2.447,0.816,3.085,1.596s1.135,1.56,1.206,2.34  c0,0,0.39,1.17,0.851,0.39c0.461-0.78,0.638-1.95,1.099-1.702c0.461,0.248,0.284,0.957,0.142,1.915  c-0.142,0.957-0.39,1.844,0.709,1.135c1.099-0.709,1.667-1.312,1.808-2.482c0.142-1.17,0.355-2.553,1.808-2.624  c1.454-0.071,3.227,0.035,3.901-1.489c0.674-1.525,1.454-3.546,1.56-7.092c0,0,0.248-4.255,0.816-6.879  c0.567-2.624,1.915-6.064,3.014-7.837c1.099-1.773,3.44-4.787,4.078-5.709c0.115-0.166,0.241-0.316,0.371-0.463  c0.51,1.772,1.172,3.226,1.993,4.17c0.201,1.302,0.431,2.489,0.585,3.551c0.421,2.91,0.596,4.618,1.672,5.806  c1.076-1.188,1.251-2.896,1.672-5.806c0.154-1.062,0.383-2.249,0.585-3.551c0.821-0.944,1.483-2.397,1.993-4.17  c0.13,0.146,0.256,0.296,0.371,0.463c0.638,0.922,2.979,3.936,4.078,5.709c1.099,1.773,2.447,5.213,3.014,7.837  c0.567,2.624,0.816,6.879,0.816,6.879c0.106,3.546,0.886,5.567,1.56,7.092c0.674,1.525,2.447,1.418,3.901,1.489  c1.454,0.071,1.667,1.454,1.808,2.624c0.142,1.17,0.709,1.773,1.808,2.482c1.099,0.709,0.851-0.177,0.709-1.135  c-0.142-0.957-0.319-1.667,0.142-1.915c0.461-0.248,0.638,0.922,1.099,1.702c0.461,0.78,0.851-0.39,0.851-0.39  c0.071-0.78,0.567-1.56,1.206-2.34c0.638-0.78,3.085-1.596,3.085-1.596c3.475-0.993,4.539,0.106,6.17,2.198  c1.631,2.092,1.454,3.369,2.092,5.035c0.638,1.667,2.021,2.837,3.369,1.844c1.347-0.993-0.745-4.078-1.844-5.993  s-2.305-4.22-3.688-6.312c-1.383-2.092-1.17-2.979-0.78-3.723s1.879-1.489,2.305-2.34c0.426-0.851-0.106-2.34-0.106-3.404  c0-1.064,1.772-2.056,2.447-2.73c0.816-0.816,0.142-2.447-0.106-2.766c-0.248-0.319-0.968-2.004-0.78-2.943  c0.213-1.064,0.922-1.56,1.206-2.518c0.263-0.887-0.355-1.844-0.816-2.376c-0.461-0.532-1.365-2.381-2.092-3.865  c-0.851-1.738-3.298-3.652-3.298-3.652c-3.573-1.926-6.029-2.6-8.419-3.262c0.011,0,0.023,0,0.033,0  c2.34,0,8.138,0.904,12.553,0.213s6.276-5.798,6.276-5.798l2.021-8.776l4.681-20.212C100.506,8.161,97.74,7.948,95.665,7.523z"></path></svg>