<svg xmlns="http://www.w3.org/2000/svg" xmlns:xlink="http://www.w3.org/1999/xlink" version="1.1" x="0px" y="0px" viewBox="0 0 100 100" enable-background="new 0 0 100 100" xml:space="preserve"><g><path d="M5.17,78.291L5.17,78.291c0.032-0.35,0.049-0.543,0.057-0.629C5.217,77.773,5.192,78.043,5.17,78.291z"></path><path d="M5.228,77.662l0.003-0.041L5.228,77.662z"></path><path d="M5.231,77.621L5.231,77.621z"></path><path d="M5.124,78.797c0,0,0.022-0.242,0.046-0.506C5.044,78.6,5.124,78.797,5.124,78.797z"></path><path d="M96.176,24.271c-0.087-1.499-1.558-2.711-1.558-2.711c-1.99-1.442-5.335-1.038-5.335-1.038   c-2.451,0.317-4.527-1.01-4.527-1.01c-2.25-1.441-4.586,0.203-4.586,0.203c-2.365-0.808-2.855,0.865-2.855,0.865l0.231,0.548   c-0.433,0.145-0.577,1.125-0.577,1.125c0.058,0.75-0.49,1.961-0.49,1.961c-0.924,1.528-2.249,6.863-2.249,6.863   c-0.837,3.75-4.325,3.835-4.325,3.835c-3.808-0.086-5.826-4.787-5.826-4.787c-2.307-4.874-11.189-7.124-11.189-7.124   c-2.222-0.371-4.152-1.673-4.152-1.673c-3.634-2.941-7.902-2.422-7.902-2.422c-4.73,0.173-8.709,5.941-8.709,5.941   c-1.097,0.404-7.902,2.307-7.902,2.307c-1.846,0.288-2.999,2.48-2.999,2.48c-0.346,1.211-1.442,1.961-1.442,1.961   c-7.844,4.21-4.672,11.306-4.672,11.306c1.558,3.575,0.634,7.152,0.634,7.152c-0.404,0.923-0.634,2.365-0.634,2.365   c-1.096,2.711-5.364,6.518-5.364,6.518c-2.134,1.5-1.615,4.326-1.615,4.326c0.347,2.076,0.173,7.613,0.173,7.613   c-0.404,5.018-2.538,6.689-2.538,6.689c-0.342,0.275-0.513,0.523-0.595,0.727c-0.011,0.123-0.024,0.264-0.039,0.428   c-0.007,0.078-0.012,0.154-0.016,0.23c-0.121,2.418,1.343,4.152,1.343,4.152c1.615,1.789,1.903-1.73,1.903-1.73   c0.116-2.076,1.673-3.057,1.673-3.057c0.807-0.633,0.23-2.652,0.23-2.652c0.173-3.635,0.865-6.922,0.865-6.922   c0.923-4.729,3.576-7.268,3.576-7.268c0.808-0.691,4.615-4.557,4.615-4.557c0.028,2.711-1.067,6.949-1.067,6.949   c-0.778,2.135,0.029,3.434,0.029,3.434c0.374,0.662,0.807,2.221,1.845,4.152c1.038,1.932,2.827,8.883,2.827,8.883   c-0.116,1.297,0.779,2.941,0.779,2.941c-0.26,1.557,2.768,1.586,2.768,1.586c3.403,0.346,3.23-0.98,3.23-0.98   c0.028-0.52-1.817-0.721-1.817-0.721c-1.067-0.461-1.586-1.588-1.586-1.588c0-0.807-1.067-2.162-1.067-2.162   c-1.009-1.961-1.846-7.066-1.846-7.066c-0.086-0.52-0.201-1.932-0.201-1.932c0.028-0.691-0.087-5.738-0.087-5.738   c-0.058-0.404,0.346-2.307,0.346-2.307c0.289-1.039,0.519-4.557,0.519-4.557c-0.029-0.318,0.346-1.039,0.346-1.039   c0.923-0.461,2.913-4.211,2.913-4.211c1.297-1.27,1.067-2.104,1.067-2.104l-0.029-1.904c3.201-3.027,7.123-0.058,7.123-0.058   c2.105,1.644,9.229,2.048,9.229,2.048c1.384,0,2.683,0.895,2.683,0.895c-0.578,0.605-2.163,4.873-2.163,4.873   c-0.924,3.23-3.461,8.219-3.461,8.219c-0.952,0.98-0.779,2.74-0.779,2.74c-0.115,3.662-3.518,10.525-3.518,10.525   c-0.663,0.693-0.605,2.076-0.605,2.076c-0.029,0.867-0.98,2.482-0.98,2.482c-2.221,2.305,2.94,1.959,2.94,1.959   c3.462,0.088,2.712-0.979,2.712-0.979c-0.317-0.809-1.615-1.27-1.615-1.27L39.824,81.4c0.347-0.691,0.865-3.488,0.865-3.488   c0.952-5.566,3.663-8.711,3.663-8.711c1.99-1.008,1.528-2.971,1.528-2.971c0.778-3.748,4.988-9.113,4.988-9.113   c0.952-1.125,2.654-4.211,2.654-4.211c0.461-1.557,3.057-2.48,3.057-2.48c0.836,0.548,1.5,2.769,1.5,2.769   c0.635,2.625,2.797,10.816,2.797,10.816c0.433,5.623,2.712,7.439,2.712,7.439c0.749,1.875,3.345,11.363,3.345,11.363   c-1.356,2.219,3.144,1.498,3.144,1.498c4.902,0.723,4.095-0.576,4.095-0.576c-0.98-1.961-4.009-3.027-4.009-3.027   c-2.854-3.922-3.691-9.662-3.691-9.662c0.895-5.221-0.895-5.334-0.895-5.334c-1.44-3.318-1.644-15.372-1.644-15.372   c-0.028-0.837,0.462-1.587,0.462-1.587c0.375-0.115,1.961-2.076,1.961-2.076c0.635,0.23,2.912-0.087,2.912-0.087   c-0.259,1.471,3.807,0.375,3.807,0.375c11.508-5.075,12.257-15.774,12.257-15.774c0.721-0.029,3.173-2.077,3.173-2.077   c0.605-0.836,2.019-2.105,2.019-2.105c0.923,0.03,1.903-0.691,1.903-0.691c3.662,0.922,3.057-0.721,3.057-0.721   C96.579,25.569,96.176,24.271,96.176,24.271z M17.561,44.89l-0.577-1.413l0.173-4.556C17.158,38.921,18.167,42.381,17.561,44.89z"></path></g></svg>