<svg xmlns="http://www.w3.org/2000/svg" xmlns:xlink="http://www.w3.org/1999/xlink" version="1.1" x="0px" y="0px" viewBox="0 0 100 100" style="enable-background:new 0 0 100 100;" xml:space="preserve"><style type="text/css">
	.st0{fill:none;}
</style><g><path d="M66.6,78.8c-0.2,1.3,0.7,5.7,0.7,5.7l3.9,2.2c0.3,0.2,0.6,0.4,0.8,0.6l3.1,2.6l4.3-1.1c0.4-0.1,0.8-0.1,1.2-0.1l1.8,0.2   l1.7-2.4l2-1l0.7-2l1.3-3.5l-1-2.6l0.7-4l-2.1-2.3l0.7-3.8l-2.6-2.9l0.7-4.3l-2.6-3l1.1-3.1l-2.6-2.7l1.4-3.1l-3-2l0.9-3.5L77,40.9   l0-3.3l-2.6-0.8l-0.2-3.3c0,0-1.8-0.1-1.7-0.1c0.1,0-0.7-3.1-0.7-3.1L69,29.7l-0.5-2.3L66,26.8l-0.5-2.4l-2.6-0.2L61,21.9l-2.2,0.6   L58,20.8l-2.4,0.6l-1.3-1.8l-1.5,1l-1.1-1.6L49.9,20L49,18.6l-1.6,0.8l-1.1-1.3l-1,1.1l-0.8-1.4l-0.9,1.3l-1.7-1.5l-1.1,1.5l-1-1.3   L39,19.1l-1.3-1c0,0-1.1,1-1.4,0.9c0,1.5,0,3.4-0.1,5.5c-0.2,3.2-0.8,5.9-2.8,8.2c-1.5,1.9-2.9,3.9-5.6,4.7   c-0.9,0.3-1.9,0.5-2.3,0.2c-0.4-0.3,0.3-0.5,1.5-0.6c1.2-0.1,3.9-1.6,6.2-5.1c2.2-3.5,1.9-7.6,2.1-9.9c0.1-1.1-0.3-3.4-0.6-5   c-0.1-0.2-0.3-0.4-0.4-0.6c-0.2,0-0.8,0-0.9-0.2c-1-1.3-2.3-0.9-3.5-0.7c-2.1,0.2-3.9,1.3-5.5,2.6c-0.4,0.3-1,0.5-1.5,0.6   c-0.2,0-0.7,0.1-1.3,0.2c-1.2-0.7-2.8-0.5-3.5,0.4c-0.1,0-1.1-0.5-2.4,0.5c-1.3,1-2.4,2.2-3.7,3.2c-0.9,0.7-2.7,1-1.4,2.2l9.7,3.4   c0.3,0.1,0.9,0.4,1.2,0.6c1,0.6,1.9,1.1,2.7,2.1c0.8,1.1,1.2,2.6,1.2,2.6s0.4,0.8-0.2,1c-0.6,0.2-0.2-0.3-0.4-1   c-0.4-1.3-0.4-1.7-1.7-2.9c-0.8-0.8-1.7-1.3-2.8-1.7c-0.7-0.3-7.2-2.9-9-3.6c-0.3-0.1-0.7-0.1-1,0c-2,0.7-0.4,1-0.5,1.9   C9.6,28,9.9,28.6,10.2,29c1,1.2,2,2.5,3.1,3.5c1.8,1.7,3.7,3.4,5.7,4.8c2.4,1.7,4.9,3.3,7.5,4.8c0.8,0.5,1.9,0.8,2.8,0.8   c2.5,0,4.8,0.7,7,2c0,0,0.1,0,0.1,0.1c0.1,0.1,0.3,0.2,0.5,0.2c0.6,0.1,1.4,0.2,1.6,0.5c0.3,0.3,0.4,0.5,0.7,0.4   c0.3-0.1,0.6-0.4,0.8-0.2c0.2,0.2,0.8,0.7,1.1,0.6c0.3-0.1,0.5-0.5,1-0.2c0.5,0.3,0.6,0.5,1.1,0.3c0.4-0.2,0.1-0.2,0.5-0.2   c0.6,0.1,1.1,0.6,1.6,0.4c0.4-0.2,0.4-0.1,0.8,0.1c0.4,0.2-0.2,0-0.5,0s-0.6,0.2-0.9,0.1c-0.3-0.1-0.7-0.5-1-0.4   c-0.3,0.1-0.6,0.4-0.9,0.3c-0.3-0.1-0.7-0.6-1.1-0.4s-0.5,0.5-0.8,0.3c-0.3-0.2-0.7-0.6-1-0.6c-0.3,0-0.5,0.5-0.9,0.3   c-0.5-0.1-0.5-0.6-1.1-0.7c-0.2,0-0.5,0-0.8,0c-0.2,0-0.4,0.1-0.6,0.3c-0.1,0-0.1,0.1-0.2,0.1c-0.6,0.3-1.2,0.5-1.8,0.9   c-1,0.6-1.9,0.8-2.8,0.4c-0.7-0.5-1.9-1.6-2.5-2.2c-0.7-0.6-2.1-1.1-2.6-1.2c-0.5-0.1-1,0-1.1,0.4c-0.1,0.4,0.2,0.5,0.2,0.5   s-0.1-0.6,0.2-0.6c0.4,0,0.4,0.1,0.4,0.1c0.3,0.1,1,0.2,1.7,0.7c0.3,0.2,0.8,0.6,1,0.9c0.1,0.1,0,0.2-0.1,0.2   C27.8,46,26.9,46,26,46.3c-0.4,0.1-1,0.3-0.8,0.6c0.1,0.1,2.9,0.5,2.9,0.7c0,0.1-2.8-0.5-3-0.5c-0.3,0.1,0,0.7,0.3,0.9   c1.1,1.1,2.2,2.1,3.4,3.2c1.8,1.7,3.7,2.9,6.2,1.2c0.1,0,0.1-0.1,0.2-0.1c0.2-0.3,0.4-0.5,0.7-0.4c0.6,0.1,3.3-0.2,6.8,0.5   c3.5,0.6,11.2,0.1,12.6-1.7c0.5-0.6-0.2-3-1.1-4.5c-1.1-1.8-9.8-5.7-10.4-6.6c-0.6-0.8,1.6-1.1,1.8-1c0.6,0.1,0.7,0.4,0.2,0.4   c-0.6,0-1.1,0.2-0.8,0.7c0.3,0.5,6.6,3.9,7.8,4.7c1.2,0.8,2,1.7,2.5,2.8s0.8,2.7,0.2,3.8c-0.8,1.3-7.3,2-10.5,1.8   c-1.1-0.1-3.7-0.3-4.7-0.4c-0.3,0-0.5,0.2-0.4,0.5c0.3,1.2,3.2,2.9,5.7,4.1c4.2,1.7,6.9,2.7,10.5,2.9c3.9,0.2,5.6-0.8,7-0.1   c0.2,0.1,0.5,0.3,0.9,0.6c-1,0.4-2.1,0.5-2.8,0.9c-0.7,0.4-1.9,1.1-2.3,2.4c-0.3,1-0.3,2.8,0.3,4.3c0.5,1.3,1.6,3.6,1.9,4.2   c0.3,0.6,2.4,4.2,3.5,4.5c1.1,0.3,2.1,0,1.1-2.2c-0.8,2.2-2,0.1-2,0.1c0.9-0.7-0.3-2.3-0.4-3.3c-0.2-1.3-0.4-4.5,0.2-4.9   c0.6-0.4,9.2,1.2,10.6,0.6c1.4-0.5,2.9-2.9,2.9-2.9L81,74.1c-1.5-3.1-5.2-4.7-8.6-3.5C67.9,72.2,66.8,77.4,66.6,78.8z M17.8,20.9   c-0.1,0-0.2-0.3-0.2-0.5c0.1-0.3,0.2-0.4,0.4-0.4c0.1,0,0.2,0.3,0.2,0.5C18.1,20.7,18,20.9,17.8,20.9z M18.5,23.4   c-0.6-0.4-0.9-1-1-1.6c0.2,0.4,0.5,0.8,0.9,1.1c1.2,0.8,2.8,0.6,3.6-0.6c0.4-0.6,0.6-1.3,0.4-2c0.3,0.8,0.3,1.7-0.3,2.5   C21.3,23.9,19.7,24.2,18.5,23.4z M80.5,82.1c-0.9,0.8-2.4,1.4-4.2,1.5c-1.7,0-2.7-0.6-3.3-1.2c-0.9-0.8-2-2.4-2-4.1   c0-2.7,1.1-3.8,2.9-4.5c1.7-0.7,4.8-0.1,5.2,1.9c0.5,2-0.1,3.8-1.9,4.5C75.5,81,74,80,73.6,78.6c-0.5-2.1,1.6-2.3,1.6-2.3   c-0.8,0.3-1.2,1.1-0.9,1.9c0.3,1,1.4,1.4,2.3,1.1c1.2-0.4,1.8-1.7,1.4-2.9c-0.5-1.5-2.2-2.3-3.6-1.7c-1.9,0.7-2.8,2.7-2.2,4.6   c0.8,2.3,3.4,3.5,5.7,2.7c2.1-0.8,3.5-2.7,3.7-4.8c0.2,1.5,0.2,2.7-0.3,3.7C81.2,81.2,80.9,81.7,80.5,82.1z"></path></g></svg>