<svg xmlns="http://www.w3.org/2000/svg" xmlns:xlink="http://www.w3.org/1999/xlink" xml:space="preserve" version="1.1" style="shape-rendering:geometricPrecision;text-rendering:geometricPrecision;image-rendering:optimizeQuality;" viewBox="0 0 762 482" x="0px" y="0px" fill-rule="evenodd" clip-rule="evenodd"><defs><style type="text/css">
   
    .fil0 {fill:black}
   
  </style></defs><g><path class="fil0" d="M696 63l-34 -32c12,0 25,4 35,-2 17,-12 20,-24 11,-21 -1,0 -4,1 -5,2 -24,10 -49,-12 -76,-10 -5,3 -11,5 -12,12 -1,7 6,9 5,17 -16,-1 -23,-19 -39,-10 -4,2 -12,10 -7,18 3,5 14,4 19,8 -1,4 -3,6 -9,6 -4,0 -8,0 -13,1l-82 5c-36,2 -72,5 -108,8 -36,3 -71,10 -108,8 -35,-1 -71,-5 -107,-8 -35,-3 -74,-11 -99,8 -17,12 -14,14 -20,24 -2,4 -3,4 -6,9 -8,14 -16,84 -16,100 3,65 -13,40 -22,61 -10,25 7,51 8,74 7,-2 11,-13 11,-23 -1,-32 18,-31 20,-50 1,-14 -8,-8 -5,-25 5,-28 6,-103 15,-121l-2 85c0,12 -1,30 2,42 2,11 13,17 13,29 -3,3 -6,3 -9,6 -3,2 -6,5 -8,7 -4,6 -8,14 -7,23 1,12 7,26 9,51 2,19 2,39 0,58 -1,4 -2,10 0,14 2,6 4,4 7,7 7,7 -5,12 -5,21 2,7 36,23 51,15 9,-5 7,-16 0,-23 -21,-20 -19,-56 -15,-84 1,-12 9,-42 19,-50 18,19 29,71 29,104 0,1 8,5 15,12 14,15 10,24 30,25 9,0 16,0 22,-5 -1,-10 -9,-18 -14,-24 -4,-5 -12,-15 -16,-22 -8,-15 -14,-44 -6,-62l9 -1 4 7c3,3 4,4 7,5 3,-3 5,-7 7,-12l13 -1c2,6 6,11 10,13 9,-6 2,-14 10,-19 1,-1 3,-1 4,-2 8,-5 13,-8 19,-15 3,-5 6,-11 9,-14 41,0 54,3 102,0 8,-1 16,-1 25,-2 9,-1 15,-3 20,3 7,10 7,31 2,43 -9,20 -2,19 4,27 8,13 12,40 8,53 -4,11 -2,9 5,15 7,6 6,10 11,15 7,6 20,10 30,9 2,0 5,0 6,-1 5,-2 2,0 4,-3 5,-11 -12,-14 -16,-21 -3,-4 -20,-78 1,-98 2,3 2,8 2,12 1,18 6,17 12,28 12,22 2,55 15,65 12,8 23,20 31,23 7,2 17,1 22,-2 2,-14 -23,-15 -34,-63 -4,-21 -4,-67 0,-89 2,-2 8,0 12,-1 23,-1 34,-39 41,-57 11,-33 21,-51 40,-71 35,-37 43,-14 83,-29 60,-23 53,-2 63,-21 5,-7 10,-7 14,-13 2,-9 -24,-30 -32,-38l-34 -33z"></path></g></svg>