<svg xmlns="http://www.w3.org/2000/svg" xmlns:xlink="http://www.w3.org/1999/xlink" version="1.1" x="0px" y="0px" viewBox="0 0 100 100" enable-background="new 0 0 100 100" xml:space="preserve"><path d="M11.4,68.7l12.5-4.9l-2.4,4.9l16.6-8.4l-2.7,3.2c-0.1,0.1-0.1,0.3-0.1,0.4c0,0.2,0.1,0.3,0.3,0.3l7.9,3.8l0,23.5h-4.8  c-0.3,0-0.5,0.2-0.5,0.5c0,0.3,0.2,0.5,0.5,0.5h5.3h0.9l7.7,2.5c0.1,0,0.1,0,0.2,0c0.2,0,0.4-0.1,0.5-0.3c0.1-0.3-0.1-0.5-0.3-0.6  L48,92.4h6.8c0.3,0,0.5-0.2,0.5-0.5c0-0.3-0.2-0.5-0.5-0.5h-9.9h-0.5l0-18.1c0,0.1,0.1,0.2,0.2,0.3c0.2,0.1,0.5,0.1,0.7-0.2l1.8-2.9  l1.9,9c0.1,0.2,0.3,0.4,0.5,0.4c0,0,0.1,0,0.1,0c0.3-0.1,0.4-0.3,0.4-0.6l-1.1-5.3l3.4,7.8c0.1,0.2,0.3,0.3,0.5,0.3  c0.1,0,0.1,0,0.2,0c0.3-0.1,0.4-0.4,0.3-0.7l-5.4-12.3c0,0,0,0,0,0c0,0,0,0,0,0c0,0,0,0,0,0c0,0,0,0,0,0c0,0,0,0,0,0c0,0,0,0-0.1,0  c0,0,0,0,0,0c0,0,0,0-0.1,0c0,0,0,0,0,0l-3.1-1.5l0-3.3l0.5,0l2.7-8.7l6.5-3.3l1.9-0.7l4-5.3c0.2-0.3,0.5-0.6,0.7-0.9L58,53.7  l7-17.2L62,51.9l4.5-16.6l-1.4,14.4l2.8-15.6l-0.3,13.2L69.1,33l0.4,12.2l0.7-12.4h0.1l0.6,9.4l0.2-11.7l0.8,8v-8.4  c0,0,0.1,0,0.1-0.1l0.7,5.4l0-5.8c0.1,0,0.1-0.1,0.2-0.1l0.5,3v-3.5c0.4-0.4,0.8-0.8,1.1-1.3c0.5-0.7,0.8-1.6,1-2.4  c0-0.2,0.1-0.4,0.1-0.7l0-0.2l0-0.2l0-0.3c0-0.4,0-0.9-0.1-1.3c-0.3-1.7-1.3-3.3-2.7-4.2c-0.7-0.5-1.5-0.9-2.3-1.1  c-0.2-0.1-0.4-0.1-0.6-0.1c-0.1,0-0.2,0-0.3,0l-0.1,0l-0.1,0l-0.2,0l-0.1,0l-0.1,0l-0.1,0l-0.3,0l-0.4,0c-0.5,0-1.1,0-1.6,0  c-0.5,0-1,0-1.5,0c-0.3,0-0.5,0-0.8,0l-0.2,0l-0.1,0c-0.1,0-0.1,0-0.2,0c-0.3,0-0.6-0.1-0.8-0.2c-0.5-0.2-1-0.5-1.3-0.9  c-0.3-0.4-0.6-0.8-0.7-1.3c-0.1-0.2-0.1-0.4-0.1-0.7c0-0.1,0-0.1,0-0.1l0,0l0,0l0-0.1l0-0.1l0,0c0,0,0-0.1,0,0.1l0,0l0,0l0-0.1  c0,0,0-0.1,0-0.1l0.3-0.2h8.3h3.8h15.3l-0.1,0l0.1,0L71,8.1L65.1,5H49.2l11.2,0.6l-11.2,2l9.8-1.1c-2.4,1.5-3.6,4.1-3.6,7v0.7h0.2  c0,0.8,0.2,1.6,0.4,2.3c0.4,1.2,1.1,2.3,2,3.2c0.9,0.9,2.1,1.7,3.4,2.2c0.7,0.2,1.4,0.4,2.1,0.4c0.2,0,0.4,0,0.5,0l0.3,0l0.2,0  c0.3,0,0.5,0,0.8,0c0.5,0,1,0,1.5,0c0.5,0,1,0,1.6,0l0.4,0l0.1,0l0,0l0,0l0.1,0l0,0c0,0,0,0,0,0l0,0l0.1,0c0.1,0,0.1,0,0.2,0  c0.2,0.1,0.4,0.2,0.6,0.3c0.4,0.3,0.7,0.7,0.8,1.2c0,0.1,0,0.2,0,0.4l0,0l0,0.1l0,0l0,0l0,0c0,0,0,0,0,0c0,0,0,0.1,0,0.2  c0,0.2-0.1,0.5-0.3,0.7c-0.3,0.4-0.7,0.7-1.2,0.8c-0.1,0-0.2,0-0.4,0l0,0l-0.1,0l-0.2,0l-0.4,0c-0.6,0-1.1,0-1.7,0  c-1.1,0-2.2,0-3.4,0c-2.2,0-4.4,0-6.5,0c-1.1,0-2.1,0-3.1,0c-0.4,0-0.8,0-1.2,0c-4.3-0.6-8.8,1-11.6,4.7L11.4,68.7z M62.6,36.1  l0.2-0.2l-0.2,0.3C62.6,36.2,62.6,36.2,62.6,36.1z M62.7,39.3c0-0.3,0-0.6,0-0.9l0.5-0.8L62.7,39.3z M44.4,68.5l2.2,1.1L44.5,73  c0,0,0,0.1-0.1,0.2L44.4,68.5z M40.4,59.1l1.1-0.5l1.4,5.4l0.5,0l0,2.9l-6.9-3.3L40.4,59.1z"></path></svg>