<svg xmlns="http://www.w3.org/2000/svg" xmlns:xlink="http://www.w3.org/1999/xlink" version="1.1" x="0px" y="0px" viewBox="0 0 100 100" enable-background="new 0 0 100 100" xml:space="preserve"><path d="M95,45.1c0-0.1-0.1-0.2-0.2-0.2l-8.9,1.7c-0.1-0.2-0.1-0.4-0.2-0.6L94,42c0.1,0,0.2-0.2,0.1-0.3c0-0.1-0.2-0.2-0.3-0.1  l-8.4,4.1c-0.5-0.9-1.4-1.6-2.4-1.9h0c-0.8-0.2-1.6,0-2.2,0.5c-3-1.9-6.8-2.3-10.2-1.1l-5.4,1.8l-1.4-0.7l-10.2,1.5L45,38l-2.1-3  c-0.5-0.7-1.5-0.6-1.9,0.1l-0.2,0.3l0,0l-0.9,1.1l-1.3,0.1l0.7,0.6l-0.7,0.8l-1.3,0.1l0.7,0.6l-0.7,0.8l-1.3,0.1l0.7,0.6l-0.7,0.8  l-1.3,0.1l0.7,0.6l-0.7,0.8l-1.3,0.1l0.1,0.1l-0.1,0l0.6,0.6l-0.8,0.9l-1.2,0.1l0.6,0.6l-0.8,0.9l-1.2,0.1l0.6,0.6l-0.8,0.9  l-1.2,0.1l0.6,0.6l-0.8,0.9l-1.2,0.1l0.6,0.6l-0.4,0.4L9.2,52.2l-2.7,1.7c-1.7,1.1-1.4,3.6,0.5,4.3c6,1.7,12.2,2.6,18.3,2.6l0.5,0.3  L25.4,62l-1.3,0.4l0.8,0.5l-0.5,0.9l-1.3,0.4l0.8,0.5l0,0c-0.1,0.1-0.1,0.2-0.1,0.3l-7.1,3.4c-0.2,0.1-0.3,0.3-0.2,0.5  c0.1,0.1,0.2,0.2,0.3,0.2c0.1,0,0.2,0,0.2,0l7.5-3.5c0.2,0,0.3-0.1,0.4-0.3l2.5-4.4c0.5,0,1,0,1.6-0.1c0.6,0.9,1.7,1.3,2.8,1.1  l4.1-0.9l0.1,0.5l3.7-0.8l0.1,0.5l3.7-0.8l0.1,0.5l3.7-0.8l0.1,0.5l3.7-0.8l0.1,0.5l3.8-0.9l0,0l0.5,0.4h0l-1.3,6.2  c0,0.1,0,0.2,0,0.2l-4.4,2.9c-0.2,0.1-0.2,0.4-0.1,0.6c0.1,0.1,0.2,0.2,0.3,0.2c0.1,0,0.2,0,0.3-0.1l4.7-3.1c0.2,0,0.4-0.2,0.5-0.5  l1.4-6.5h1.5v6.9c0,0.1,0,0.1,0,0.2l-3.4,3.1c-0.2,0.2-0.2,0.4,0,0.6c0.1,0.1,0.2,0.1,0.3,0.1c0.1,0,0.2,0,0.3-0.1l3.6-3.3  c0,0,0,0,0,0c0.2-0.1,0.4-0.3,0.4-0.6v-6.9h8.5c0.2,0,0.5-0.1,0.6-0.2l2.8-1.4v-0.6l2.1-0.9l3.9,1v0l5.2,1.4L79,64.3  c-0.1,0.1-0.1,0.2-0.1,0.3c0,0.1,0,0.2,0,0.3l2.7,4.4c0.1,0.1,0.2,0.2,0.3,0.2c0.1,0,0.1,0,0.2-0.1c0.2-0.1,0.2-0.4,0.1-0.6L80,65  c0,0,0.1-0.1,0.1-0.1l3.9-6.4c0-0.1,0.1-0.1,0.1-0.2l0,0c0.1-0.1,0.1-0.2,0.1-0.4c0-0.5-0.3-0.9-0.7-1l-2-0.5l2.6-1.5l1.8-5.9  c0.2-0.7,0.2-1.4,0.1-2l8.9-1.7C94.9,45.3,95,45.2,95,45.1z M36,45.3c0.1,0,0.2,0.1,0.3,0.1l3.2,0.6l1.7,1.5l-7,1L36,45.3z   M43.1,39.5l5.5,7l-2.5,0.4l-6.5-3.6l-1.7-1.7c-0.2-0.2-0.5-0.3-0.8-0.3l2.8-3.1c0.1,0.1,0.3,0.2,0.4,0.3L43.1,39.5z M35.9,42.7  l-0.5,1.1c0,0.1-0.1,0.2-0.1,0.3l-1.1,2.1l-1.3,0.4l0.8,0.5l-0.5,0.9l-1.3,0.4l0.8,0.5l0,0l-2.6,0.4L35.9,42.7z M77.2,54.7l1.5-0.7  l-0.1,1.7l-1.4-0.4V54.7z"></path></svg>