<svg xmlns="http://www.w3.org/2000/svg" xmlns:xlink="http://www.w3.org/1999/xlink" version="1.1" x="0px" y="0px" viewBox="0 0 100 100" enable-background="new 0 0 100 100" xml:space="preserve"><g><g><g><path fill="#000000" d="M98.306,26.34c-0.131,0.005-0.247,0.01-0.351,0.014c0.416,0.085-0.287,0.457-8.211,1.794     c-4.914,2.184-3.292,6.235-4.081,9.675c-4.006,20.872-22.77,28.5-25.934,29.605c-2.438,0.995-5.171,1.361-4.024,3.567     c3.385,8.138,4.249,8.692,4.249,8.692s0.802,0.483,1.565,0.4c0.764-0.082,1.517-0.253,2.684-0.86     c0.28-0.188,1.738,0.723,2.107,1.529c-1.118-0.128-1.621-0.855-2.107-0.669c-2.069,0.722,0.545,1.085,0.545,1.085h1.428     c0.921,0,0.99,0.158,1.842,0c1.27-0.607,1.469-0.754,1.705-0.754c0.201-0.095,1.963,1.271,1.963,1.5     c0,0.228-1.506-1.031-1.963-1.031c-0.407,0-0.682,0.282-1.164,0.669c0.418,0.444,1.164,0.578,1.365,1.443     c-2.006-1.366-2.861-1.081-2.861-1.081l-12.871,0.359c0,0-1.21-0.209-2.94,0.722c0-1.045,2.368-1.25,2.368-1.25     s4.062-0.098,5.553-0.188c1.687-0.496,0.104-1.144,0.104-1.144s-2.99-0.93-5.656-0.48c-4.229-0.647-4.395-0.241-4.834-0.115     c-0.398-0.111-1.129-0.632-3.13,0.69c0.077-0.549,0.731-0.785,1.131-1.024c0.399-0.238,0.673-0.383,1.999-0.354     c2.128,0.045,4.277-0.025,4.277-0.025s-3.001-9.555-2.854-10.696c0.148-1.141,1.254-1.94,1.512-2.724     c0-1.158-3.211-1.729-3.211-1.729s-10.236-1.592-20.461-2.541c-9.973,0-23.99,4.878-23.99,4.878s-4.148,0.802-2.782-1.686     s19.841-7.168,19.841-7.168s-13.889,2.422-11.782,0.58s18.537-6.754,18.537-6.754s-3.079,0.787-0.841-1.5     c2.237-2.287,26.031-11.947,40.777-16.173c4.811-11.062,11.307-14.237,16.558-12.801l4.827,2.333     c2.129,0,4.946-0.186,5.997,0.821C95.966,24.394,95.082,23.766,98.306,26.34z M53.516,67.218     c-0.906,0.263-1.824,1.166-1.744,2.32c0.097,1.647,1.111,7.997,2.408,8.991c1.298,0.993,1.869,0.894,3.075,0.285     c0.437-0.423-3.944-8.392-3.944-8.392c-0.267-0.491-0.122-1.146,0.32-1.471l1.672-1.432     C54.279,66.736,54.649,66.672,53.516,67.218z"></path></g></g></g></svg>