<svg xmlns="http://www.w3.org/2000/svg" xmlns:xlink="http://www.w3.org/1999/xlink" version="1.1" x="0px" y="0px" viewBox="0 0 100 100" enable-background="new 0 0 100 100" xml:space="preserve"><path d="M41.211,66.99c-1.324,0.795-2.325,0.208-3.652-0.143c-1.159-0.307-2.012,0.215-3.093,0.415  c-3.808,0.703-4.025-3.804-6.871-4.94c-0.652,1.725-0.341,3.469-0.473,5.251c-0.193,2.607-0.387,5.223-0.743,7.813  c-0.56,4.072,0.531,8.405-0.541,12.437c-0.436,1.638-0.921,4.173-2.301,5.308c-0.729,0.6-4.071,0.923-4.634,0.154  c-0.555-0.757-4.172-0.088-5.248-0.577c-2.605-1.186-0.587-2.683,0.811-4.02c1.321-1.264,3.002-1.959,3.552-3.849  c0.589-2.023,0.697-5.281,0.108-7.256c-0.539-1.804,0.259-3.785-0.028-5.666c-0.45-2.95-1.142-5.399-0.833-8.471  c0.281-2.792,1.143-5.112,0.116-7.936c-0.671-2.289-1.181-4.18-0.513-6.576c1.041-3.735,1.141-8.359,2.772-11.862  c0.322-0.691,1.466-1.533,1.159-2.169c-0.555-1.146-1.106-2.456-1.959-3.415c-1.297-2.214-2.139-4.813-2.139-7.392  c-1.927,4.623-7.325-2.666-7.684-5.057c-0.569-1.7-2.505-4.643-1.041-6.332c1.055-1.217,3.26-1.841,4.643-2.556  c1.383-0.714,3.28-1.37,4.428-2.449c0.604-0.568,1.4-0.985,2.223-1.107c1.393-0.208,2.91,1.547,3.763,1.164  c2.437-1.097,5.128-1.045,7.741-1.273c2.116-0.185,4.977-0.139,6.643,1.368c0.988-1.483,2.445-1.926,3.987-1.045  c1.877,1.072,2.519,1.837,4.761,2.279c3.583,0.707,5.606,2.585,5.32,6.228c-0.271,3.466-0.338,7.121-1.199,10.505  c-0.273,1.075-1.071,3.065-2.175,1.386c-1.178-1.792-2.719-4.363-2.816-6.515c-0.354,1.611-0.566,3.224-0.819,4.848  c-0.135,0.867-1.794,5.189-1.686,5.376c0.464,0.801,0.312,1.535,1.246,1.546c1.255,0.015,2.511,0.093,3.759,0.23  c2.294,0.251,4.538,1.324,6.81,1.417c3.792,0.155,7.759-3.421,11.009-5.113c5.195-2.705,10.775-4.849,16.688-5.006  c2.262-0.06,4.73,0.108,6.821,1.033c0.615,0.271,3.963,0.885,3.268,1.343c-2.685,1.769-5.897,1.982-9.061,2.216  c-3.927,0.29-7.888,1.644-11.278,3.605c-2.785,1.61-5.255,3.743-7.208,6.303c-0.014,0.3,0.766,1.163,0.917,1.41  c0.841,1.379,1.593,2.816,2.221,4.304c1.571,3.726,1.928,7.771,3.485,11.535c1.726,4.171,1.51,8.864,3.404,12.91  c1.173,2.505,0.429,6.677,0.453,9.402c0.018,1.992,0.019,4.009,0.251,5.99c0.156,1.328,0.75,2.546,0.818,3.897  c0.173,3.408-6.095,1.481-7.902,1.418c-2.582-0.091,0.695-6.548,0.876-7.778c0.307-2.097,0.086-4.357-0.257-6.45  c-0.314-1.923-1.27-3.171-1.104-5.189c0.156-1.914-0.942-2.85-2.382-3.732c-1.922-1.18-3.786-2.9-4.379-5.152  c-3.215,1.435-7.592,1.813-7.685,6.17c-0.081,3.818-0.125,7.668-0.497,11.471c-0.309,3.161-1.449,7.744-0.167,10.719  c0.604,1.398,1.759,4.397,0.081,5.488c-0.792,0.567-1.628-0.009-2.454,0.232c-1.307,0.382-2.806,0.462-4.063-0.137  c-0.585-0.047-1.263,0.226-1.877,0.203c-0.779-0.028-2.122-0.957-2.541-0.667c-1.686,1.163-0.082-4.642,0.03-4.901  c0.492-1.141,0.984-2.42,0.984-3.68c-0.268-0.421-1.957,0.047-2.139-0.68c-0.715-0.102-1.58,0.136-2.313,0.118  c-0.896-0.021-1.377-0.45-2.076-0.63c-2.116-0.546-0.543-2.363,0.368-3.329c0.843-0.893,1.688-0.832,2.613-1.39  c0.716-0.432,1.273-1.727,1.797-2.357c1.124-1.756,1.552-3.764,1.912-5.789C43.573,69.918,42.231,68.52,41.211,66.99z"></path></svg>