<svg xmlns="http://www.w3.org/2000/svg" xmlns:xlink="http://www.w3.org/1999/xlink" version="1.2" baseProfile="tiny" x="0px" y="0px" viewBox="0 0 32 32" xml:space="preserve"><path d="M27.502,17.333c-1.41,0.288-1.699,0.663-2.016,2.506s-2.102,3.109-3.627,3.944c-1.527,0.835-4.061,0.893-5.471,1.267  c-1.411,0.375-1.728,2.131-1.987,3.484c-0.259,1.354-0.346-0.72-0.634-0.23c-0.288,0.489-0.835-0.115-1.526,0.288  s-0.662,0-1.44,0.144c-0.777,0.145-0.403-1.122-0.403-1.122S9.65,28.419,8.7,28.016c-0.203-0.086-0.257-0.19-0.226-0.302  c-0.095,0.035-0.189,0.07-0.293,0.101c-1.073,0.314-0.553-0.868-0.45-1.086c-0.038,0.013-0.155-0.061-0.529-0.584  C6.627,25.338,7.52,25.05,7.52,25.05s-0.547-0.432-0.519-1.267s2.707-1.209,3.887-1.439c1.181-0.23,2.333-1.037,2.707-1.181  c0.375-0.145,0.576-0.288-0.086-1.151c-0.663-0.864,0.201-0.605-0.202-0.95c-0.403-0.346,0.173-0.433-0.317-1.008  c-0.489-0.576,0.432,0.028-0.144-0.691c-0.576-0.72,0.259-0.058-0.316-0.547c-0.576-0.49,0.316-1.296-0.144-1.67  c-0.461-0.375,0.576-0.605,0.029-0.951c-0.547-0.346,0.259-0.604-0.605-1.152c-0.864-0.547,0.086-0.46-0.662-1.065  c-0.749-0.604,0.202-0.518-0.691-1.295s0.23-0.576-0.49-1.209c-0.72-0.633,0.317-0.288-0.144-0.864c-0.46-0.576,0.461-0.72,0-1.181  c-0.46-0.46,0.259-0.432-0.172-1.008C9.218,5.845,9.996,5.787,9.679,5.326c-0.317-0.46,0.374-0.345,0-0.95  C9.305,3.771,9.88,3.8,9.65,3.253C9.42,2.706,9.737,1.813,9.737,1.813C9.88,2.188,11.58,3.57,12.242,4.146  c0.662,0.576,1.497,1.036,2.822,2.102s3.138,2.736,3.138,2.736s-0.027-0.432-0.258-0.749c-0.23-0.316,0.287-0.576,0.027-0.893  C17.713,7.025,18.145,6.881,18,6.276c-0.143-0.604,0.086-0.576,0.086-0.95c0-0.374,0.375-0.144,0.26-0.576  c-0.115-0.432,0.432-0.461,0.432-0.749c0-0.288,0.375-0.173,0.375-0.461s0.432-0.345,0.432-0.345l0.807-0.547  c0,0-0.201,1.238-0.115,2.304s0.402,2.303,0.863,3.599s1.469,2.333,2.131,3.312s0.633,2.332,0.346,2.995  c-0.287,0.662-0.23,1.785-0.23,1.785c0.432-0.029,0.836-1.411,2.016-1.181s1.123,1.238,1.123,1.238L27.502,17.333z"></path></svg>