<svg xmlns="http://www.w3.org/2000/svg" xmlns:xlink="http://www.w3.org/1999/xlink" version="1.1" x="0px" y="0px" viewBox="0 0 100 100" enable-background="new 0 0 100 100" xml:space="preserve"><path d="M74.76,41.566c6.318-0.897,8.936-4.635,15.135-6.59c6.199-1.955,8.712-6.199,7.316-7.763  c-1.396-1.564-5.977-2.458-13.404,0.279s-10.872,3.779-17.426,4.785c-2.218,0.34-5.417,1.397-8.159,2.41  c0.328-0.506,0.653-1.006,0.971-1.472c0.219-0.321,0.447-0.646,0.652-0.902c0.049-0.066,0.119-0.134,0.176-0.199  c0.046-0.03,0.097-0.076,0.17-0.122c0.142-0.092,0.279-0.181,0.411-0.266c1.082-0.666,1.804-1.11,1.804-1.11  c0.059-0.035,0.079-0.112,0.044-0.17c-0.033-0.056-0.106-0.076-0.164-0.048c0,0-0.757,0.388-1.892,0.97  c-0.142,0.077-0.288,0.157-0.442,0.239c-0.074,0.041-0.164,0.099-0.263,0.169c-0.065,0.063-0.131,0.114-0.199,0.188  c-0.282,0.286-0.522,0.571-0.784,0.883c-0.515,0.616-1.04,1.285-1.568,1.948c-0.119,0.148-0.236,0.289-0.354,0.436  c-0.305,0.117-0.597,0.231-0.878,0.341c-0.567-0.413-1.117-0.853-1.604-1.204c-0.251-0.188-0.49-0.353-0.709-0.496  c-0.397-1.683-1.631-2.02-1.488-2.436c0.314,0.179,0.72,0.425,1.194,0.758c0.275,0.199,0.576,0.414,0.892,0.641  c0.33,0.233,0.637,0.482,1.099,0.739c0.063,0.032,0.133,0.065,0.222,0.097c0.115,0.01,0.17,0.119,0.563-0.011l0.019-0.01  l0.009-0.005l0.005-0.002c0.168-0.106,0.051-0.034,0.091-0.06l0.06-0.063c0.039-0.043,0.077-0.088,0.111-0.134l0.102-0.167  c0.124-0.214,0.225-0.414,0.329-0.62c0.2-0.408,0.403-0.822,0.606-1.236c0.401-0.826,0.798-1.652,1.19-2.41  c0.197-0.378,0.391-0.742,0.59-1.068c0.098-0.153,0.177-0.288,0.309-0.435c0.063-0.049,0.242-0.144,0.388-0.218  c1.228-0.601,2.073-0.966,2.073-0.966c0.063-0.027,0.093-0.101,0.064-0.164c-0.025-0.06-0.096-0.088-0.156-0.067  c0,0-0.868,0.295-2.159,0.804c-0.161,0.077-0.324,0.111-0.555,0.286c-0.128,0.119-0.27,0.299-0.395,0.47  c-0.239,0.33-0.467,0.684-0.696,1.052c-0.459,0.736-0.923,1.532-1.388,2.324c-0.233,0.392-0.466,0.785-0.695,1.171  c-0.096,0.156-0.191,0.307-0.286,0.448c-0.26-0.178-0.551-0.418-0.816-0.634c-0.31-0.251-0.603-0.489-0.873-0.709  c-0.559-0.453-1.069-0.785-1.439-1.004c-0.021-0.09-0.038-0.179-0.083-0.274c-0.177-0.382-1.004-1.027-0.247-0.675  c0.313,0.146,0.485,0.202,0.836,0.202c0.966,0,1.272-0.775,1.272-1.487c0-0.963-0.852-1.885-2.185-1.239  c-0.423,0.204-0.44,0.085-0.775-0.101S50.595,26.245,50,26.245c0,0,0,0,0,0c-0.595,0-1.042,0.238-1.377,0.424  s-0.353,0.305-0.774,0.101c-1.334-0.646-2.186,0.276-2.186,1.239c0,0.712,0.307,1.487,1.272,1.487c0.351,0,0.523-0.057,0.836-0.202  c0.757-0.353-0.07,0.293-0.247,0.675c-0.044,0.095-0.062,0.184-0.083,0.274c-0.37,0.219-0.881,0.551-1.439,1.004  c-0.271,0.22-0.563,0.458-0.874,0.709c-0.265,0.216-0.556,0.457-0.817,0.634c-0.094-0.141-0.189-0.292-0.285-0.448  c-0.229-0.387-0.462-0.779-0.695-1.171c-0.465-0.792-0.928-1.587-1.387-2.324c-0.231-0.368-0.458-0.722-0.696-1.052  c-0.126-0.17-0.268-0.351-0.396-0.47c-0.231-0.175-0.394-0.209-0.555-0.286c-1.292-0.509-2.159-0.804-2.159-0.804  c-0.061-0.021-0.132,0.008-0.158,0.067c-0.027,0.063,0.002,0.136,0.065,0.164c0,0,0.846,0.365,2.073,0.966  c0.146,0.074,0.325,0.168,0.388,0.218c0.133,0.147,0.211,0.282,0.31,0.435c0.198,0.327,0.393,0.69,0.589,1.068  c0.393,0.758,0.789,1.584,1.19,2.41c0.204,0.414,0.407,0.829,0.607,1.236c0.104,0.206,0.206,0.406,0.329,0.62l0.102,0.167  c0.034,0.046,0.072,0.091,0.111,0.134l0.06,0.063c0.04,0.026-0.078-0.047,0.091,0.06l0.004,0.002l0.009,0.005l0.018,0.01  c0.394,0.129,0.449,0.021,0.564,0.011c0.089-0.031,0.159-0.064,0.222-0.097c0.462-0.256,0.768-0.505,1.099-0.739  c0.316-0.228,0.615-0.442,0.892-0.641c0.475-0.333,0.88-0.579,1.194-0.758c0.141,0.416-1.092,0.752-1.489,2.436  c-0.219,0.143-0.458,0.307-0.708,0.495c-0.488,0.352-1.038,0.792-1.605,1.204c-0.281-0.11-0.573-0.225-0.877-0.341  c-0.119-0.147-0.236-0.287-0.355-0.436c-0.528-0.663-1.054-1.332-1.569-1.948c-0.261-0.312-0.501-0.597-0.783-0.883  c-0.068-0.073-0.134-0.125-0.2-0.188c-0.098-0.071-0.188-0.128-0.263-0.169c-0.153-0.082-0.3-0.163-0.442-0.239  c-1.134-0.582-1.891-0.97-1.891-0.97c-0.058-0.028-0.131-0.008-0.164,0.048c-0.035,0.059-0.015,0.135,0.043,0.17  c0,0,0.722,0.444,1.804,1.11c0.132,0.085,0.269,0.174,0.411,0.266c0.074,0.046,0.124,0.091,0.17,0.122  c0.057,0.065,0.126,0.133,0.175,0.199c0.207,0.256,0.434,0.581,0.653,0.902c0.317,0.466,0.643,0.966,0.97,1.472  c-2.742-1.013-5.941-2.069-8.16-2.41c-6.553-1.005-9.997-2.048-17.425-4.785c-7.428-2.737-12.007-1.843-13.403-0.279  c-1.396,1.564,1.117,5.808,7.316,7.763c6.199,1.955,8.816,5.693,15.135,6.59c8.31,1.18,12.431-1.617,20.662-2.633  c-0.004,0.005-0.01,0.01-0.014,0.016c-0.236,0.283-0.447,0.583-0.631,0.898c-0.003,0.005-0.005,0.011-0.008,0.016  c-1.659,0.436-4.1,1.122-6.884,2.053c-5.138,1.717-7.72,3.858-17.146,5.794c-11.69,2.401-14.8,6.144-14.912,8.266  c-0.111,2.122,2.794,5.113,10.109,3.128c8.024-2.179,12.715-1.844,17.648-4.636c5.792-3.278,9.111-7.838,11.473-10.561  c0.055,0.214,0.115,0.427,0.167,0.642c0.129,0.57,0.271,1.141,0.369,1.712c0.048,0.286,0.113,0.572,0.147,0.857l0.097,0.793  l-1.174,4.305c-0.013,0.05,0.011,0.103,0.06,0.124c0.053,0.021,0.114-0.002,0.137-0.055l1.812-4.204  c0.02-0.048,0.029-0.103,0.024-0.158l-0.001-0.013L47.08,47c-0.031-0.304-0.092-0.596-0.137-0.895  c-0.091-0.596-0.225-1.178-0.346-1.764c-0.095-0.427-0.199-0.849-0.304-1.271c0.523-0.549,1.002-0.976,1.454-1.226  c0,0-0.586,2.919,0.093,4.096c0.559,0.968-0.586,3.213,0.223,5.287c0.596,1.527-0.789,3.148,0.112,4.989  c0.82,1.676-0.771,4.017,0.224,5.957c0.559,1.089-0.81,3.463-0.074,5.102c0.457,1.018,0.856,0.408,0.447,3.723  s-0.83,7.716-0.41,8.638c0.722,1.583,0.638,2.699,0.959,2.628c0.237-0.054,0.265-1.336,0.679-1.337  c0.414,0.001,0.442,1.283,0.679,1.337c0.321,0.071,0.237-1.045,0.959-2.628c0.42-0.922,0-5.323-0.409-8.638  c-0.41-3.314-0.011-2.705,0.447-3.723c0.734-1.639-0.634-4.013-0.075-5.102c0.994-1.94-0.597-4.281,0.224-5.957  c0.9-1.841-0.483-3.462,0.111-4.989c0.81-2.074-0.335-4.319,0.224-5.287c0.681-1.177,0.093-4.096,0.093-4.096  c0.452,0.25,0.932,0.676,1.455,1.226c-0.105,0.422-0.21,0.845-0.305,1.271c-0.121,0.586-0.255,1.167-0.347,1.764  c-0.043,0.299-0.104,0.591-0.136,0.895l-0.095,0.911l-0.001,0.013c-0.006,0.055,0.004,0.11,0.024,0.158l1.812,4.204  c0.022,0.053,0.084,0.076,0.138,0.055c0.048-0.021,0.072-0.074,0.06-0.124l-1.175-4.305l0.098-0.793  c0.034-0.285,0.1-0.571,0.147-0.857c0.097-0.571,0.24-1.142,0.369-1.712c0.051-0.214,0.111-0.428,0.166-0.642  c2.361,2.723,5.68,7.282,11.473,10.561c4.933,2.792,9.624,2.457,17.648,4.636c7.314,1.985,10.22-1.006,10.108-3.128  c-0.112-2.122-3.221-5.864-14.912-8.266c-9.425-1.936-12.007-4.077-17.146-5.794c-2.783-0.931-5.225-1.617-6.883-2.052  c-0.003-0.005-0.006-0.011-0.008-0.016c-0.186-0.314-0.396-0.615-0.632-0.898c-0.005-0.005-0.011-0.011-0.015-0.016  C62.329,39.95,66.449,42.747,74.76,41.566z M55.556,32.785L55.556,32.785l-0.006,0.008C55.549,32.789,55.551,32.786,55.556,32.785z   M44.444,32.785h0.001c0.004,0.001,0.005,0.004,0.005,0.008L44.444,32.785z M46.375,35.349c0.013-0.008,0.024-0.015,0.037-0.023  c0.237,0.923,0.833,1.531,0.833,1.531s-0.753-0.324-1.933-0.801C45.692,35.798,46.051,35.554,46.375,35.349z M46.833,39.461  c0.178-0.188,0.364-0.367,0.568-0.519l0.096,0.362C47.496,39.305,47.258,39.358,46.833,39.461z M54.688,36.056  c-1.181,0.477-1.934,0.801-1.934,0.801s0.597-0.608,0.833-1.531c0.013,0.008,0.024,0.015,0.037,0.023  C53.949,35.554,54.308,35.798,54.688,36.056z M52.504,39.305l0.095-0.363c0.204,0.152,0.391,0.331,0.569,0.52  C52.742,39.358,52.504,39.305,52.504,39.305z"></path></svg>