<svg xmlns="http://www.w3.org/2000/svg" xmlns:xlink="http://www.w3.org/1999/xlink" version="1.1" x="0px" y="0px" viewBox="0 0 100 100" enable-background="new 0 0 100 100" xml:space="preserve"><polygon points="52.19,84.788 48.192,79.885 48.549,84.646 46.775,87.549 40.523,87.854 37.584,90.692 40.648,89.621 45.083,89.968   48.791,91.983 47.259,88.839 50.081,88.113 "></polygon><polygon fill="none" points="67.734,94.006 67.79,93.936 67.677,93.93 "></polygon><polygon points="44.115,54.575 43.47,48.206 36.698,34.42 27.386,25.028 14.285,22.303 25.608,28.093 14.571,26.325 27.158,31.357   16.035,31.862 27.512,34.213 17.391,36.899 29.321,36.395 21.533,42.874 30.618,39.099 23.596,45.848 23.637,45.908 31.659,43.691   34.964,51.754 34.843,60.662 "></polygon><polygon points="34.594,72.333 36,69.104 32.962,68.888 33.446,65.528 30.906,67.395 31.298,65.685 29.885,67.047 28.555,71.586   29.877,75.971 32.223,77.285 31.135,75.698 32.748,72.126 "></polygon><polygon points="67.677,74.907 57.658,67.877 69.958,62.813 77.411,39.902 85.715,38.683 77.249,35.484 85.19,34.044 76.847,31.292   85.489,28.302 75.959,27.987 81.121,22.794 74.509,24.762 78.518,18.27 72.09,22.102 75.819,13.267 70.316,19.199 73.595,8.719   67.816,17.264 71.444,5.155 65.103,16.482 52.902,29.825 50.242,42.563 44.76,55.14 36.294,60.863 33.603,63.46 37.291,61.131   35.966,64.443 41.333,62.25 37.775,67.11 43.631,67.007 39.197,70.271 42.704,73.657 37.168,72.698 39.922,74.972 44.76,75.456   48.065,78.197 48.065,78.199 52.738,83.921 52.716,83.96 52.741,83.921 55.482,90.023 52.217,90.87 51.33,92.725 53.104,92.16   55.563,91.716 57.941,92.644 60.318,94.746 59.755,93.111 57.417,90.612 57.055,88.839 58.215,87.256 59.432,80.696 61.852,86.098   61.891,93.635 64.727,87.645 67.79,93.936 68.65,87.968 72.466,94.006 73.272,88.881 77.249,94.541 76.819,89.258 84.667,94.845   85.715,94.845 71.714,78.509 "></polygon></svg>