<svg xmlns="http://www.w3.org/2000/svg" xmlns:xlink="http://www.w3.org/1999/xlink" version="1.1" x="0px" y="0px" viewBox="0 0 100 100" enable-background="new 0 0 100 100" xml:space="preserve"><path d="M98.32,56.381c-0.455-0.907-0.854-2.144-1.184-3.711l-0.344-1.705l-0.672-0.33l-2.695-5.581  c-0.797-1.237-1.566-2.281-2.281-3.12c-0.742-0.838-1.266-1.499-1.623-1.938l-5.059-3.216l-2.529-2.694  c-0.344-0.22-0.879-0.605-1.607-1.1c-0.729-0.508-1.555-0.88-2.447-1.1c-2.598-0.673-4.564-1.017-5.912-1.017l-7.271,0.344  l-3.381,0.673l-3.877,0.509l-5.912-0.509l-3.381-1.017l-3.381-2.365l-1.018-0.673l-1.677-1.691l-3.217-1.017  c-1.237-0.55-2.529-0.55-3.876,0l-3.546,1.017l-2.53,1.691h-0.687l-0.674,0.673c-0.563,0.344-0.99,0.536-1.265,0.591  c-0.289,0.069-0.536,0.096-0.756,0.096c-0.578,0-1.526,0.33-2.887,1.003l-1.677,1.691c-1.127,1.127-1.979,1.691-2.529,1.691  c-0.907,0.234-1.897,0.454-2.969,0.673c-1.072,0.22-2.104,0.33-3.121,0.33c-0.894,0-1.746-0.137-2.529-0.412  c-0.784-0.275-1.471-0.88-2.021-1.773c-1.361-1.361-1.705-2.873-1.017-4.564c0-0.894,0.165-1.636,0.495-2.186  c0.344-0.578,0.908-1.251,1.705-2.035l2.694-2.708c0.907-0.894,1.567-1.773,2.035-2.612c0.44-0.839,0.55-1.829,0.33-2.956  l-1.347-2.708l-1.691-1.348c-0.674-0.233-1.017,0-1.017,0.674s-0.165,1.237-0.509,1.691c-0.907,0.563-1.072,0.838-0.495,0.838  l1.004,1.87l-1.004,2.186l-4.563,3.382l-3.382,4.908l-0.165,6.076c0.11,2.145,0.66,3.767,1.677,4.894  c1.581,2.254,3.216,3.876,4.894,4.894c1.251,0.907,2.543,1.732,3.904,2.447c1.347,0.742,2.804,1.265,4.385,1.622l-1.361,0.66H6.767  c-1.347-0.33-2.571-0.633-3.629-0.922c-1.072-0.288-1.842-0.536-2.282-0.756H0.003v0.33l4.399,2.364  c2.021,0.577,3.904,0.963,5.649,1.183c1.746,0.22,3.643,0.344,5.664,0.344c1.347-0.234,2.639-0.454,3.89-0.674  c1.237-0.22,2.474-0.522,3.711-0.853l4.894,0.688h2.364l-3.038,2.529c-0.11,0.44-0.11,0.674,0,0.674l1.691,0.344h2.2l0.838,0.66  c0.233-0.33,0.371-0.357,0.426-0.083c0.055,0.289,0.247,0.88,0.591,1.787v2.364v4.207c-0.344,0.907-0.619,1.622-0.838,2.116  c-0.234,0.509-0.577,0.936-1.017,1.265l-0.853,3.217l-2.364,3.217l-1.018,2.694l-1.182,3.382v2.364l-0.495,2.2  c-0.234,0.55-0.399,0.989-0.522,1.265c-0.11,0.274-0.33,0.412-0.66,0.412l-1.705,1.869v0.839l1.705,1.69l2.199,0.674h5.732  c0.233,0,0.344-0.563,0.344-1.69v-3.382l0.673-2.199l0.674-2.694l2.034-3.382l1.512-2.2c0.44-0.659,1.018-1.003,1.691-1.003  l4.55-4.056l1.018-2.199l2.708,8.963l0.673,2.186l0.688,3.382c0.11,1.471,0.11,2.529,0,3.203l-0.688,1.018v1.017l-1.017,1.678  c0,0.907,0.344,1.36,1.017,1.36h0.853h6.75c1.127,0,1.691-0.233,1.691-0.674l-0.51-2.529c-0.232-0.453-0.371-0.88-0.426-1.265  c-0.055-0.398-0.082-1.045-0.082-1.952l-0.674-2.529l-0.344-15.547l1.525,0.673l3.727,1.018l7.258,1.512h4.055l0.344,1.361  c0.33,1.251,0.496,2.434,0.496,3.547c0,1.251-0.166,2.075-0.496,2.543l-0.344,3.877v1.017c0.344,1.128,0.344,1.678,0,1.678  l-0.674,2.199c-0.688,1.127-1.58,2.034-2.707,2.708c-0.344,0.344-0.592,0.618-0.756,0.839c-0.166,0.233-0.139,0.522,0.082,0.852  l0.674,0.674h9.967l1.016-2.364v-1.69c0.785-0.784,0.785-2.09,0-3.877c0-1.237,0.551-3.217,1.678-5.911  c0.578-2.475,1.471-4.398,2.709-5.746l0.508,0.66c0,0.357,0.109,0.935,0.33,1.787c0.234,0.838,0.467,1.938,0.688,3.299l1.678,4.206  l1.182,2.365l1.182,3.217l1.018,4.055h4.908l1.346-0.674l1.018-1.017l0.674-1.513c0.33-0.907,0.33-1.525,0-1.869l-1.348-1.348  l-0.344-1.512l-1.346-2.034l-1.691-2.873l-0.33-2.021v-1.69l0.33-3.382V56.038l0.852-0.344l4.207,6.598l1.182,2.021V61.11  l-0.658-2.034C99.104,58.182,98.76,57.289,98.32,56.381z"></path></svg>