<svg xmlns="http://www.w3.org/2000/svg" xmlns:xlink="http://www.w3.org/1999/xlink" version="1.1" x="0px" y="0px" viewBox="0 0 100 100" enable-background="new 0 0 100 100" xml:space="preserve"><path d="M85.6,13.3C85.5,13.3,85.5,13.2,85.6,13.3l-1.8-3.1L82,9.6c-1.9-0.7-4.1-0.8-6-0.1l-2.3,0.8c-3.2,1.1-5.3,4.1-5.3,8v13.1  c0,0-0.1,0.1-0.1,0.1c-0.1,0.7-0.5,1.3-1.1,1.7c-0.6,0.4-1.3,0.6-2,0.5c-0.7-0.1-1.4-0.5-1.8-1.1c-0.2-0.3-0.3-0.6-0.4-0.9  c0-0.1,0-0.1,0-0.2l0,0l0,0l0-0.1l0-0.2l0-0.1l0,0l0-0.2l0-0.4c0-2.4,0-5.1,0-7c0-2.4,0-4.3,0-5.4l0-0.1c0,0,0-0.1,0-0.1  c0-0.6,0-0.9,0-0.9h0c-0.4-4.1-3-7.3-6.8-8.6h0c-7.4-2.7-15.5-1.9-22.1,2.1l0,0l0,0c-0.6,0.4-1.2,0.8-1.8,1.2l-17,11.2  c-2.4,1.9-4.2,4.6-4.7,7.9c-0.4,2.5,0,4.9,1,7c0-0.7,0.1-1.3,0.2-2c0.6-3.6,2.7-6.3,5.6-8c-0.8,1.6-1.3,3.4-1.3,5.1  c0,2,0.6,3.9,1.6,5.4c-0.1-0.5-0.1-1-0.1-1.6c0-4.7,3-8.8,7.1-10.4c0.3,0.4,0.7,0.7,1.1,1.1l0.1,0.1c2.1,1.8,5.7,3.2,10,3.9l0,0  c0,0,0,0,0,0c1.3,0.2,2.7,0.3,4.1,0.4l2.6,5.2H43l-4.5,21.7c0,0.2,0,0.4,0.1,0.6l5,6.1v20.8v3.3v3.9h4.9l3.1-1.8l-5.3-1.8L45,86.5  V66.9l9.5,11.6l6,8.5l5.6,0.1v-1.7l-3.6-0.8l-5-4.5L45,64.7V36.9h0.7l2.9-5.9c1-0.2,1.8-0.4,2.6-0.5c2.4-0.4,4.8,0.8,6.2,2.7  l0.6,0.8c1.6,2.2,4.2,3.6,7,3.6h0.3c3.3,0,6.1-2.3,6.8-5.4c0-0.1,0-0.1,0-0.2c0-0.1,0-0.2,0.1-0.3c0-0.1,0-0.2,0.1-0.3  c0-0.2,0.1-0.4,0.1-0.6c0-0.2,0-0.5,0-0.6c0-0.2-0.2-4.1-0.3-7.3L72,19.5c0-0.4,0-0.7,0-1c0-3.3,0.8-4.7,3.4-4.5  c2.8,0.4,2,3.3,8.3,5.5l1.4,2v2.6v2.7l-0.5,2c-0.1,0.2,0,0.5,0.1,0.6c0.1,0.2,0.3,0.3,0.6,0.3c0.3,0,0.5-0.1,0.6-0.4l2.9-5  c0.4-0.8,0.8-1.6,0.8-2.5v-0.1v-1.2v0L85.6,13.3z M39.9,58.6l3.7-18.1v22.6L39.9,58.6z"></path></svg>