<svg xmlns="http://www.w3.org/2000/svg" xmlns:xlink="http://www.w3.org/1999/xlink" version="1.2" baseProfile="tiny" x="0px" y="0px" viewBox="0 0 32 32" xml:space="preserve"><path d="M25.969,4.793c0,0-3.389,3.186-3.998,4.812c0,0-4.604,0.608-6.299,0.608  c-1.694,0-7.317-0.542-8.605-0.338c0,0-1.854,0.254-2.972,2.007c0,0-1.423-0.178-2.185,0.508c-0.762,0.686-1.347,1.829-1.524,2.947  c0,0,0.965-0.636,1.448-1.017c0.482-0.381,1.042-0.838,1.118-1.245c0.076-0.407,0.889-0.838,0.635,0.534s0.279,2.846,0.915,3.759  c0.635,0.916,0.889,2.922,0.28,3.786c-0.61,0.863-1.347,1.371-1.321,1.574S3.385,23.109,3.486,24.1  c0.102,0.992,0.076,3.023,0.254,3.508c0.178,0.482-0.203,1.65,0.178,1.65s2.287,0.178,2.083-0.203s-1.143-0.787-1.194-1.27  c-0.051-0.484-0.204-3.506,0-3.711c0.203-0.203,0.762-0.559,0.762-0.559s0.178,3.1,0.178,3.303s0.381,0.305,0.381,0.789  c0,0.479,0.178,0.559,0.254,0.732c0.076,0.182-0.102,0.512,0.076,0.512s1.905,0.072,1.905-0.203c0-0.279-0.915-1.092-1.143-1.193  c-0.229-0.104-0.229,0-0.458-1.348c-0.229-1.35-0.475-3.229-0.102-3.564s1.998-1.219,2.574-2.846c0,0,3.929,0.441,5.386,0.406  c1.458-0.035,4.677-0.711,4.677-0.309c0,0.406,0.54,1.695,0.54,2.85c0,1.147-0.017,4.195-0.017,4.504  c0,0.307,0.406,0.254,0.433,0.535c0.024,0.275,0.179,0.656,0.509,0.656c0.329,0,1.625-0.021,1.625-0.021s-0.712-0.967-1.144-1.221  c-0.433-0.258-0.509-0.436-0.509-0.914c0-0.482,0.076-2.723,0.152-3.053c0.073-0.326,0.229,0.354,0.381,1.117  c0.149,0.768,0.381,2.232,0.561,2.617c0.178,0.381,0.762,1.373,0.762,1.572c0,0.203-0.076,0.766,0.355,0.766  c0.433,0,1.65-0.021,1.65-0.021s-0.66-1.32-1.041-1.553c-0.385-0.229-0.66-0.967-0.813-1.5c-0.152-0.529-0.636-5.186-0.354-6.271  c0.279-1.092,1.828-2.541,2.031-3.583c0.203-1.041,1.372-3.48,1.829-4.7c0.458-1.22,0.562-1.728,0.562-1.728  s1.064,0.381,1.498,0.229c0.432-0.152,0.229,0.356,0.305,0.94c0.076,0.584,0.203,0.661,0.203,0.661l0.104-0.661  c0,0,0.063,1.007,0.153,1.579c0.011,0.044,0.017,0.085,0.021,0.124c0.104,0.534,0.104-0.965,0.18-1.651l0.15-0.686  c0,0,0.023,0.534,0.053,0.788c0,0,0.229-1.042,0.308-1.245c0.075-0.203,1.37,0.102,1.649-0.025c0.277-0.127,0.277-0.305,0.254-0.458  c0,0,0.381-0.102,0.307-0.508c-0.076-0.407-0.203-0.584-0.712-1.042c-0.509-0.457-1.729-1.474-1.829-1.728s-0.33-1.092-0.813-1.372  c-0.481-0.279-1.396-0.66-1.602-0.864c-0.203-0.203-3.125-1.651-6.048,0.838c0,0,1.094-0.508,2.466-0.584  c0,0-0.736,0.279-1.169,1.321C22.285,5.505,24.57,3.904,25.969,4.793z"></path></svg>