<svg xmlns="http://www.w3.org/2000/svg" xmlns:xlink="http://www.w3.org/1999/xlink" version="1.1" x="0px" y="0px" viewBox="0 0 100 100" enable-background="new 0 0 100 100" xml:space="preserve"><path d="M82.109,10.906c-2.625-1.313-3.146-2.55-4.5-3.625c-0.531-0.422-1.188-0.448-1.406-0.656  c-1.724-1.646-4.35-1.917-6.786-0.792c-1.659,0.766-3.212,2.038-4.223,3.809c-3.205,5.616-3.757,12.733-2.694,20.67  c0,0,0.458,4.646,0.625,6.396s-0.02,3.833-0.999,5.792c-0.667,1.333-1.354,2.313-3.417,2.813c-1.767,0.428-3.271,0.375-6.438,1.417  C48.229,48.06,34.75,52.625,31.438,53.5s-4.75,2.313-8.688,3.938c-0.479,0.198-1.516,0.703-3.528,1.101  c-0.473,0.094,1.431,0.332,0.966,0.399c-3.875,0.563-5.703,1.5-7.938,1.578c-0.301,0.011,1.078,0.531,1.078,0.531  s-1.454,0.309-1.849,0.392c-0.307,0.064,1.412,0.858,2.552,0.78c1.188,0.609,2.234,0.345,3.24,0.345  c0.188,0,0.902,0.489,2.708,1.208c2.771,1.104,2.625,1.583,4.396,2.999c1.312,1.049,2.208,1.605,2.521,2.251  s1.455,4.715,4.917,7.354c5.125,3.906,5.344,1.75,12.146,4.292c0.395,0.147,0.785,0.262,1.175,0.379  c-0.021,0.804-0.071,2.092-0.196,2.673c-0.188,0.875-0.729,2.198-0.875,3.24c0,0-0.038,0.418-0.667,0.854  c-0.99,0.687-1.24,1.343-0.74,1.593c0.485,0.243,0.507,0.615,0.516,0.813c0.037,0.803-0.422,1.626-0.49,2.217  c-0.043,0.375-0.369,1.731,3.24,1.783c3.075,0.045,4.512,0.055,5.063,0.094c0.219,0.016,0.205,0.304,0.219,0.563  c0.089,1.708,1.329,1.451,2.75,1.559c2.109,0.16,2.531,0.629,6.234,0.741c2.27,0.068,2.832-0.36,4.844-0.737  c0.75-0.141,0.397-0.925-0.563-1.203c-2.409-0.699-2.974-0.024-5.75-1.25c-2.266-1-3.281,0.063-4.245-2.114  c-0.749-1.69-2.548-5.817-1.205-10.25c0.986-0.138,1.953-0.338,2.898-0.579c3.75-0.958,6.959-4.582,8.625-6.124  s5.457-5.354,6.541-6.292C76.313,64.313,81.5,58.875,81.5,52.75c0-7.208-6.056-11.64-9-17.917c-3-6.396-3.041-10.708-3.041-11.75  c0-2.208,0.875-8.167,3.583-8.292s3.38-1.01,4.396-1.088s2.375-0.406,3.313-0.453c0.453-0.022,1.953,0.063,2.266-0.266  c0.267-0.28,0.734-0.063,0.828-0.281S83.641,11.672,82.109,10.906z M50.003,92.202c-0.559-0.206-1.385-0.595-1.956-1.233  c-0.938-1.047-0.234-1.234-0.313-2.266c-0.072-0.953-0.764-3.776-0.225-7.109c0.645,0.102,1.28,0.162,1.91,0.194  c0.207,1.677,0.66,3.477,0.956,4.504c0.521,1.813,0.29,3.868,0.375,4.5c0.047,0.349-0.415,0.626-0.512,0.917  C50.097,92.131,50.003,92.202,50.003,92.202z"></path></svg>