<svg xmlns="http://www.w3.org/2000/svg" xmlns:xlink="http://www.w3.org/1999/xlink" version="1.1" x="0px" y="0px" viewBox="0 0 100 100" enable-background="new 0 0 100 100" xml:space="preserve"><path d="M94.8,79.3l-1.2-4.2L91.3,73l0-0.1l2.4-0.7L90.4,70l0,0l2.4-0.7l-3.2-2.2l0,0l2.4-0.7l-3.2-2.2l0,0l2.4-0.7l-3.2-2.2l0,0  l2.4-0.7L87,58.4l0,0l2.4-0.7l-3.2-2.2l0,0l2.4-0.7l-3.2-2.2l0,0l2.4-0.7l-3.2-2.2l0,0l2.4-0.7l-3.2-2.2l-0.8-2.7  c0.6-0.1,1.2-0.5,1.8-0.9c0.7-0.4,1.3-1,1.7-1.7c0.6-0.9,1-2.2,1-3.8c0-2.4,0.1-3.8,0.1-3.8l2.2-3.2l0,0l1.4-2.1l-1.9-3.5v-4.6  L82.1,11h-6.4l-13.6,9.7l-0.7,3L36.6,36.3h-7.4c-9.1,0-16.4,7.4-16.4,16.4v0.3c0,2.8,0.7,5.2,1.9,7.3l0.8,2.3L5,72.2l6.4,14.7  l2.6-1.1l0.1-4.1l7.3-1.8l3,8.6H41v-3l-3.9-1.8L40.3,65l3.6,1.6l-0.7-2.4l0,0l3.6,1.6l-0.7-2.4l0,0l3.6,1.6l-0.7-2.4l0,0l3.6,1.6  l-0.7-2.4l0,0l3.6,1.6L55.2,61l0.1,0l3.6,1.6l-0.7-2.4l0.1,0l3.6,1.6l-0.6-2.4l0.1,0l1.8,0.8l-0.4,1.2l-0.1,0.2l2.2-0.7l0,0l0,0  l0.1,0l0,0l-1.5,3.6l2.3-0.7l0,0l-1.5,3.6l2.3-0.7l0,0l-1.5,3.6l2.3-0.7l0,0.1l-1.5,3.5l2.3-0.7l0,0.1L67.1,76l2.3-0.7l0,0.1  L68,78.9l2.3-0.7l0,0.1l-1.5,3.5l2.3-0.7l0,4.5c0,1.8,1.5,3.3,3.3,3.3h6.1c1.8,0,3.3-1.3,3.3-3.1v-1.2c0.8,0.5,1.7,0.6,2.6,0.3  l6.1-1.7C94.3,82.7,95.3,81.1,94.8,79.3z"></path></svg>