<svg xmlns="http://www.w3.org/2000/svg" xmlns:xlink="http://www.w3.org/1999/xlink" version="1.2" baseProfile="tiny" x="0px" y="0px" viewBox="0 0 32 32" xml:space="preserve"><path d="M3.486,18.593c0.025,0.056,0.069,0.111,0.069,0.111S3.505,18.688,3.486,18.593z M3.486,18.593  c-0.004-0.022-0.009-0.045-0.009-0.076c0-0.003-0.003-0.004-0.003-0.006C3.465,18.532,3.473,18.563,3.486,18.593z M28.248,20.626  c-0.292,0.021-0.459,0.104-0.709-0.042s-0.499-0.126-0.791-0.417s-0.083-0.375-0.688-0.813s-1.875-1.729-1.792-1.833  s0.583-0.479,0.625-0.375c0.042,0.104-0.104,0.542,0.25,0.625s0.459-0.167,0.854,0.083c0,0,0.072-0.275-0.209-0.275  s-0.688,0.172-0.688-0.078s0.5-0.234,0.766-0.297c0.266-0.063,0.578-0.641,0.781-0.719s0.141-0.469,0.328-0.75  s0.375-1.172,0.406-1.516s0.078-0.703,0.078-0.703l3.641-3.141l-3.104,2.229l2.729-3.375l-3.416,3.667c0,0-0.646-0.896-1.521-0.25  s-2.458,1.542-3.896,2.125s-3.083,1.063-3.333,1.063s-1.303-0.802-3.443-1.521s-3.25-1.156-3.797-1.719S10.508,12,10.133,12.282  s-0.828,0.5-0.984,0.766s-4.015,5.266-4.093,5.297s-0.547,0.094-1,0s-1.672-0.234-1.734-0.094s-0.063,0.484-0.063,0.484  s0.047-0.375,0.234-0.344c0.185,0.03,0.96-0.045,0.981,0.119c0.015-0.04,0.079-0.055,0.253,0.006  c0.453,0.156,1.406,0.141,1.406,0.281s0.406-0.203,0.406-0.297c0-0.092,4.095-5.276,4.28-5.51c0.006,0.029,0.041,0.096,0.157,0.244  c0.234,0.297,1.094,0.484,1.406,0.563s3.75,2.828,4.625,3.312c0,0-0.594,0.532-1.063,0.532s-2.875-0.453-3.375-0.829  c-0.5-0.375-1.438-1.047-1.688-0.734s-0.453,0.641-0.641,0.438s-0.109,0.047-0.297,0.281c-0.188,0.234-5.39,6.032-5.921,6.313  s-0.578,0.266-0.906,0.297s-1.672-0.047-1.797,0.031s-0.203,0.344-0.297,0.375s0.125,0.031,0.125,0.031s0.109-0.219,0.266-0.234  s1.516,0,1.516,0.109s-0.109,0.281-0.109,0.281s0.391-0.391,0.516-0.375s0.734,0.016,0.781-0.031s6.234-6.501,6.234-6.501  s0.688,0.517,1.016,0.548s0.781-0.219,1.188-0.016s0.609,0.656,1.047,0.75s0.125,0.031,0.125,0.031s-2,0.219-2.75,0.302  s-2.082,0.375-2.082,0.375l0.625,0.208l-0.418,0.334c0,0,0.042,0.291,0.375,0.333c0.334,0.042,1.334,0.792,3.543,0.792  c2.207,0,3.624-0.125,4.957-0.167c1.334-0.042,3.5-0.5,3.5-0.5s-0.625,0.771-0.75,0.896s0.168,0.875,0.146,1.979  s0.104,1.583-0.125,1.792c-0.229,0.208-0.479,0.5-0.354,0.688s0.229,0.104,0.229,0.104s-0.063-0.354,0.166-0.563  c0.229-0.208,0.334-0.583,0.417-0.583s0.063-2.896,0.083-3.125c0.021-0.229,2.938-2.438,3.271-3.208c0,0,0.708,0.52,1.708,1.354  s0.938,0.917,0.938,0.917s0.688-0.063,1.125,0.396c0,0,0.667,0.042,1,0.042s0.417,0.125,0.458,0.188  c0.042,0.063,0.146-0.021,0.104-0.146S28.54,20.604,28.248,20.626z"></path></svg>