<svg xmlns="http://www.w3.org/2000/svg" xmlns:xlink="http://www.w3.org/1999/xlink" version="1.1" x="0px" y="0px" viewBox="0 0 100 100" enable-background="new 0 0 100 100" xml:space="preserve"><path d="M7.4,83.2H16v-2.5l-1.5-1.1l-1-5l1.2-0.9l4.3,7v2.5h8.6v-2.5l-2-1.8l-2-3.5v-5.5c5.3,3.5,11.9,4.9,18.6,3.4L54.6,71l1.2,5.5  l-1.1,4.2v2.5h6.2h3.6h4.8v-2.5l-2-1.6l-1.1-13.2l1.7-6.6l4.3-1.9l1.9-4.1h1.8c1.2,0,2.3,0.5,3,1.4l0.9,1c1,1.1,2.4,1.7,3.9,1.7h6  c0.4,0,0.6-0.4,0.4-0.8l-1.2-1.6c0.1-0.1,0.3-0.1,0.4-0.2c0.4-0.2,0.8-0.5,1.2-0.8c0.4-0.3,0.7-0.6,1.1-0.9c0.3-0.3,0.6-0.6,0.8-1  c0.2-0.3,0.5-0.7,0.6-1c0.2-0.3,0.3-0.6,0.4-0.9c0.1-0.3,0.2-0.5,0.2-0.7c0-0.1,0-0.2,0.1-0.3c0-0.1,0-0.1,0-0.2c0-0.1,0-0.2,0-0.2  c0-0.2-0.1-0.4-0.3-0.5c-0.2-0.1-0.5,0-0.6,0.3l0,0c0,0,0,0,0,0.1c0,0,0,0.1-0.1,0.2c0,0.1-0.1,0.1-0.1,0.2  c-0.1,0.2-0.2,0.3-0.3,0.5c-0.1,0.2-0.3,0.4-0.5,0.6c-0.2,0.2-0.4,0.4-0.7,0.7c-0.3,0.2-0.5,0.4-0.8,0.6c-0.3,0.2-0.6,0.4-1,0.5  c-0.3,0.1-0.7,0.3-1.1,0.4c-0.4,0.1-0.7,0.2-1.1,0.2L84,48.2V33.9c0-2,1.2-3.8,3-4.5l4.3-1.8c0.6,0.9,0.5,1.7,0.9,1.7  c0.4,0,0.6-1.4,0.3-2.2l1.1-0.4l0.9-1.7c0.8-1.5,0.6-3.4-0.6-4.7l-2.3-2.6c-1.2-1.3-3.2-1.3-4.5-0.1c-1,0.9-1.2,2.3-0.8,3.5  l-8.2,7.8c-0.8-0.3-1.8-0.2-2.5,0.5c-0.7,0.7-0.9,1.6-0.6,2.5l-1.7,1.7l-0.6-0.6c-0.3-0.3-0.8-0.3-1.1,0c-0.3,0.3-0.3,0.8,0,1.1  l0.2,0.2h-5.6c-0.4,0-0.7,0.1-1,0.3l-5,2.6H36.3v0H24c-10.5,0-19,8.5-19,19v18.5l2.4,6.1V83.2z M73.6,53.5L73.6,53.5L73.6,53.5  L73.6,53.5z"></path></svg>