<svg xmlns="http://www.w3.org/2000/svg" xmlns:xlink="http://www.w3.org/1999/xlink" version="1.1" x="0px" y="0px" viewBox="0 0 100 100" enable-background="new 0 0 100 100" xml:space="preserve"><g><g><path fill="#000000" d="M47.73,31.242c-4.039-0.651-17.266-2.606-25.476-4.04c-1.87-0.327-3.761-0.468-5.574-0.468    c-6.148,0-11.414,1.615-12.018,3.073c-0.782,1.889,4.04,2.802,4.04,2.802c0.481,2.462,2.943,2.683,3.806,2.683    c0.188,0,0.299-0.011,0.299-0.011c0.453,2.42,3.171,2.694,4.376,2.694c0.352,0,0.575-0.023,0.575-0.023    c1.009,2.689,3.396,3.042,4.583,3.042c0.424,0,0.694-0.045,0.694-0.045c1.271,2.089,3.302,2.405,4.416,2.405    c0.485,0,0.796-0.06,0.796-0.06c0.329,1.685,2.161,1.996,3.469,1.996c0.766,0,1.353-0.107,1.353-0.107    c0.406,1.747,2.076,2.076,3.278,2.076c0.728,0,1.283-0.121,1.283-0.121c0.578,1.059,1.645,1.328,2.581,1.328    c0.962,0,1.784-0.285,1.784-0.285c0.299,1.007,1.365,1.222,2.22,1.222c0.64,0,1.162-0.12,1.162-0.12    c0.354,0.707,1.348,0.847,2.083,0.847c0.483,0,0.854-0.061,0.854-0.061c0.042,0.211,0.573,0.421,1.416,0.421    c0.465,0,1.022-0.064,1.646-0.225c1.76-0.456,2.601-2.372,2.601-2.372s0.017-0.041,0.044-0.102    c-0.027,0.062-0.054,0.125-0.078,0.189c-2.62,6.633,0.234,20.805,0.104,21.962c-0.13,1.172-2.15,13.616-1.759,14.203    c0.067,0.099,0.129,0.141,0.188,0.141c0.285,0,0.464-0.988,0.464-0.988c0.131,0.65-0.079,3.051,0.979,3.389    c0.053,0.017,0.104,0.023,0.154,0.023c1.516,0,2.125-7.256,2.125-7.256c-0.326,4.691,0.184,8.735,0.9,9.321    c0.197,0.162,0.417,0.244,0.631,0.244c0.561,0,1.093-0.566,1.141-1.747c0.061-1.504,0.716-12.053,0.716-12.053    c0.196,1.304,1.174,11.662,1.369,12.509c0.195,0.848,0.782,1.76,1.237,1.76c0.457,0,0.979-0.261,0.979-2.021    c0-1.471-1.369-14.659-1.369-14.659c0.52,3.764,2.398,13.683,3.569,13.683c0.005,0,0.01,0,0.014,0    c1.828-0.125-2.337-13.588-2.169-13.588c0.006,0,0.017,0.015,0.033,0.049c0.821,1.642,3.012,9.982,4.057,9.982    c0.035,0,0.067-0.01,0.1-0.027c1.417-0.833-5.082-18.895-5.082-18.895c0.64-1.279,2.473-4.694,2.972-4.694    c0.009,0,0.017,0,0.025,0.003c0.456,0.13-0.26,1.043-0.26,1.043c2.671-0.521,3.062-3.846,3.062-3.846    c9.839-8.86,2.261-21.594,5.604-24.302c3.779-3.063,3.062-6.646,6.581-9.057c1.888-1.292,6.097-1.592,9.597-1.592    c3.025,0,5.519,0.225,5.519,0.225c-2.447-1.036-5.177-1.36-7.672-1.36c-3.88,0-7.196,0.784-8.029,0.903    c-0.179,0.025-0.376,0.037-0.582,0.037c-1.374,0-3.197-0.492-3.197-0.492c-1.717-0.582-3.201-0.832-4.488-0.832    c-7.074,0-8.223,7.533-9.325,8.911c-1.303,1.628-3.258,4.17-3.909,5.799C58.22,34.76,49.887,31.59,47.73,31.242z M73.987,23.196    c0.378,0,0.683,0.306,0.683,0.684c0,0.377-0.305,0.684-0.683,0.684c-0.379,0-0.684-0.307-0.684-0.684    C73.303,23.502,73.608,23.196,73.987,23.196z"></path><path fill="#000000" d="M30.333,26.127c0.195,0.978,3.127,2.424,4.366,2.053c0.229,0.291,0.453,0.533,0.676,0.756    c2.369,0.369,4.671,0.722,6.706,1.035c2.472,0.378,4.502,0.69,5.71,0.886c1.943,0.312,8.594,2.794,10.219,3.407    c0.363-0.78,1.013-1.8,1.896-3.025c-10.288-5.469-11.982-4.531-15.696-5.729c-8.405-3.844-19.612-6.359-21.893-6.321    c0,0-1.417,0.489-0.244,1.662C22.955,21.729,27.142,25.867,30.333,26.127z"></path></g></g></svg>