<svg xmlns="http://www.w3.org/2000/svg" xmlns:xlink="http://www.w3.org/1999/xlink" version="1.1" baseProfile="tiny" x="0px" y="0px" viewBox="0 0 100 100" xml:space="preserve"><path fill="#000000" d="M90,42.2c0.2,1.1-1,1.8-1.8,2.2c-0.5,0.2-0.1,1-0.8,1.3c-0.6,0.2-1.5,0.3-2,0.3c-1.2-0.1-1.5-1.4-2.8-1.2  c-1.2,0.2-2.4,0.7-3.5,1.1c-1.3,1-2.7,0.6-3.1,2.5c-0.5,2.1-0.2,4.9-0.2,7c0,1.9,0.9,3.7,1.2,5.6c0.4,1.9,0.5,3.6,2.3,4.6  c1.3,0.8,3.1,0.1,4.2,0.9c0.7,0.5,1.6,2,0.3,2c-1.5,0-3.1,0.1-4.6,0.1c-0.8,0-2-1.3-2.5-2c-2-2.4-4.5-5.4-6-8.2  c-0.4-0.7-1.2-1.7-1.6-2.6c-0.1,0.2-0.2,0.3-0.3,0.5c-1.2,1.9-2.3,3.7-3.8,5.4c-0.7,0.7-3.5,3.8-1.6,4.6c1.6,0.7,3.4,0.6,4.2,2.4H62  c-1.6,0-3.4-3.1-2.4-4.6c1.5-2.2,1.2-5.7,1-8.2c-0.3-0.7-0.6-1.5-0.9-2.3c-2.7,0-6.2,0.5-8.8,0.6c0.4,1.6,0.9,3.8,0.3,5.4  c-0.4,1.1-1.7,2.4-1.5,3.6c0.3,1.8,1.3,3.1,3.2,3.3c0.8,0.1,1.5-0.2,2.2,0.2c4.9,2.7-3.6,2.8-4.7,1.7c-1.4-1.4-5.4-1.2-5.6-3.5  c-0.1-1,0.5-2,0.5-3c0-2.2-1.6-4.1-3.1-5.5c-0.7-0.7-2-1.7-2.9-2.4c-0.8,0.8-1.9,2-3,2.9c-4,3.3-8.1,3.1-12.9,3.9  c-2.7,0.4-3.8,1.6-3.9,4.2c-0.1,1.9,1.6,1.5,2.9,2.1c0.2,0.1,1.5,1.8,0.9,1.8c-1.1,0-5.3,0.6-5.5-0.5c-0.3-1.8-2.1-2.2-1.2-4.1  c0.7-1.5,1.2-3.8,1-5.5c-0.2-1.5,1.8-0.9,2.6-0.8c1.6,0.3,2.4-0.2,3.7-1c1.5-1,3.1-2,4.4-3.3c1.4-1.3,1.3-3.7,1.6-5.5  c-2.9,4.5-6.9,9.5-13,7.2c-2.3-0.9-4.2-2.9-4.4-5.5c-0.2-2.3,1-5.3,3.7-5.3c0.8,0,1.8,0.4,2.4,1c0.7,0.8-0.2,1.5-0.9,0.8  c-1.9-1.7-3.5,0.6-3.5,2.5c0.1,5.9,7.9,5.2,10.3,1.3c2.7-4.4,3.5-9,8-12.2c5.2-3.6,10.2-2.3,16.1-1.8c2.7,0.2,5.3,0.1,8-0.2  c2.8-0.3,4.9-1.5,7.5-2.2c2.7-0.7,5.5-0.5,8.2,0.1c1,0.2,2.5,1,3.5,0.7c0.6-0.1,1.6-0.6,2.1-0.3c-1.7-1.3,0.4-3.6,2-2.5  c1.6,1,1,1.8,3.1,2.1c4.2,0.6,5.5,3.4,7.7,6.7C91,40.9,91.2,42.3,90,42.2z"></path></svg>