<svg xmlns="http://www.w3.org/2000/svg" xmlns:xlink="http://www.w3.org/1999/xlink" version="1.1" x="0px" y="0px" viewBox="0 0 100 100" enable-background="new 0 0 100 100" xml:space="preserve"><path d="M23.875,49.25c0,0-1.625,2.75-1.375,5.375c0,0,0,1.625-0.25,2.125c0,0-1.375,2.625,0.625,1.75c0,0,1.5-0.375,1-1.75  c0,0,0-3.25,1.125-4.625l1.5-2.875"></path><path d="M92.155,76.673c-1.371-0.106-4.901-1.106-4.901-1.106c-4.794-0.898-16.175,0.104-16.175,0.104  c-7.113,0.264-8.379-2.056-8.379-2.056c-2.001-1.738-2.633-6.638-2.686-11.011c-0.054-4.374,0.369-7.588-3.268-14.858  c-3.636-7.27-10.801-11.485-10.801-11.485c-8.22-3.741-17.07-2.16-17.07-2.16c-3.057,0.369-6.218-1.791-6.218-1.791  c-1.475-0.843-1.897-2.055-1.897-2.055c-0.474-1.686-2.423-5.428-2.423-5.428c1.37-0.685,3.161-3.582,3.161-3.582  c0.316-0.422,2.583-3.056,2.583-3.056c1.054-1.686-0.685-0.158-0.685-0.158c-0.686,0.632-1.844,1.316-1.844,1.316  c-2.213,0.316-4.9,2.214-4.9,2.214c0.159-3.004-0.79-4.585-0.79-4.585c-1.106-2.212-2.687-0.315-2.687-0.315  c-2.055,1.896-1.106,7.587-1.106,7.587c-2.213,1.106-3.003,3.002-3.003,3.002C8.906,28.2,8.273,28.99,8.273,28.99l-1.264,1.265  c-1.265,1.422-0.633,3.318-0.633,3.318c0.949,2.214,4.584,0.633,4.584,0.633c0.948-0.158,1.738-0.474,1.738-0.474  c1.739,0.316,2.055,3.478,2.055,3.478c-0.316,3.32,3.161,6.796,3.161,6.796l1.686,2.159l-0.053,0.634c0,1.159-1.686,7.85-1.686,7.85  c-0.526,2.16,0.053,3.478,0.053,3.478c0.422,1,0.158,2.16,0.158,2.16c-0.685,1.475-0.105,1.79-0.105,1.79  c1.16,0.791,2.53-0.841,2.53-0.841c0.368-0.844-0.316-3.058-0.316-3.058c-0.211-0.948,0.104-2.106,0.104-2.106  c0.211-2.162,3.479-6.165,3.479-6.165c0.525,1.106,4.267,2.423,4.267,2.423c0.315,5.69,7.64,11.225,7.64,11.225  c-0.316,1.737,0.104,9.22,0.104,9.22c0.105,2.055-0.527,2.213-0.527,2.213c-0.791,0.526-7.639,0.157-7.639,0.157  c-2.477-0.105-3.32,0.369-3.32,0.369c-0.79,0.474-2.634,0.316-2.634,0.316c-2.687-0.316-3.003,1.317-3.003,1.317  c-0.447,1.1,1.525,1.278,2.952,1.271c1.203-0.399,3.518-0.87,7.889-0.98h0.008h0.008c0.002,0,0.7,0.028,1.683,0.056  s2.247,0.056,3.373,0.056c1.121,0.001,2.122-0.03,2.513-0.106l0.017-0.004l0.017-0.001l0.063-0.006l0.188-0.031  c0.158-0.033,0.369-0.095,0.573-0.202c0.409-0.224,0.786-0.578,0.793-1.356c0-0.204-0.029-0.439-0.096-0.708  c-0.052-0.132-0.354-0.966-0.354-2.663c0-0.505,0.027-1.086,0.096-1.747l0.497,0.053c-0.067,0.644-0.093,1.207-0.093,1.694  c0,1.536,0.259,2.316,0.314,2.467l0.01,0.026l0.008,0.019l0.005,0.02c0.077,0.308,0.112,0.587,0.112,0.84  c0.007,0.97-0.543,1.538-1.062,1.8c-0.519,0.27-1.011,0.293-1.03,0.296v-0.001c-0.494,0.087-1.457,0.111-2.573,0.112  c-2.233,0-4.984-0.107-5.067-0.111c-3.931,0.096-6.159,0.495-7.386,0.849c-0.846,0.674,0.177,1.416,0.177,1.416  c1.423,1.159,6.85,0.21,6.85,0.21c3.636-0.525,10.801-0.158,10.801-0.158c2.266,0.265,3.109-0.421,3.109-0.421  c1.158-0.948,0.315-3.425,0.315-3.425c-0.526-2.158-0.737-9.8-0.737-9.8c0.737-0.157,4.795-0.736,4.795-0.736  c-0.158,0.526,4.425-2.53,4.425-2.53c0.949,1.212,2.74,6.322,2.74,6.322c1.159,5.743,6.376,8.799,6.376,8.799  c3.477,2.477,13.33,0.791,13.33,0.791c3.793-0.475,13.276-0.527,13.276-0.527c7.483,0.104,7.061-0.947,7.061-0.947  C95.579,76.724,92.155,76.673,92.155,76.673z"></path></svg>