<svg xmlns="http://www.w3.org/2000/svg" xmlns:xlink="http://www.w3.org/1999/xlink" version="1.1" x="0px" y="0px" viewBox="0 0 100 100" enable-background="new 0 0 100 100" xml:space="preserve"><g><path d="M25.821,40.491c-1.624,0.19-3.468,2.134-3.868,5.135c-0.4,3-1.134,7.803,0.934,8.869c2.067,1.066,3.867-1.066,5.001-3.468   c1.133-2.401,2.067-6.269,1.133-7.936C28.088,41.424,28.088,40.224,25.821,40.491z"></path></g><g><path d="M33.89,53.229c-2.365,0.548-5.002,4.467-4.135,8.269c0.868,3.8,1.801,6.135,5.402,6.868   c3.601,0.734,6.068-1.067,7.001-2.867c0.934-1.8,2.201-6.603,0.201-9.203C40.358,53.695,37.624,52.36,33.89,53.229z"></path></g><g><path d="M28.705,75.7c-1.248,1.13-0.867,5.268,1.601,7.669c2.466,2.401,4.668,4.468,6.535,2.869c1.867-1.601,0.4-5.468-0.867-7.137   C34.707,77.434,31.506,73.167,28.705,75.7z"></path></g><g><path d="M74.67,40.491c1.624,0.19,3.468,2.134,3.868,5.135c0.4,3,1.133,7.803-0.933,8.869c-2.068,1.066-3.869-1.066-5.003-3.468   c-1.132-2.401-2.066-6.269-1.132-7.936C72.403,41.424,72.403,40.224,74.67,40.491z"></path></g><g><path d="M66.602,53.229c2.365,0.548,5.001,4.467,4.135,8.269c-0.868,3.8-1.8,6.135-5.401,6.868   c-3.603,0.734-6.069-1.067-7.003-2.867s-2.201-6.603-0.201-9.203C60.133,53.695,62.867,52.36,66.602,53.229z"></path></g><g><path d="M71.786,75.7c1.248,1.13,0.866,5.268-1.601,7.669c-2.469,2.401-4.669,4.468-6.536,2.869   c-1.866-1.601-0.399-5.468,0.868-7.137C65.784,77.434,68.984,73.167,71.786,75.7z"></path></g><path d="M91.076,91.891c-0.245-0.403-0.916-0.996-2.765-2.624c-0.921-0.812-2.346-2.068-3.004-2.702  c0.602-5.653-1.105-14.341-3.95-16.455c-0.158-0.116-0.333-0.196-0.513-0.24c1.265-4.093,2.134-8.369,2.311-12.465  c0.374-8.654-2.445-15.741-5.504-20.731l5.094,4.15l8.924,2.702c0.846,0.922,2.591,2.823,2.767,2.999  c0.277,0.277,0.64,0.416,1.003,0.416s0.726-0.139,1.005-0.414c0.558-0.552,0.562-1.454,0.013-2.015  c-0.167-0.171-1.897-2.054-2.949-3.202l-0.264-0.288l-9.133-2.766L72.529,29.64c-0.446-0.364-1.581-1.194-2.354-1.378  c-0.03-0.424-0.105-0.941-0.206-1.503l2.97-12.751l2.944-3.718l2.283-2.728l2.533-4.276c0.398-0.679,0.171-1.553-0.508-1.952  c-0.679-0.397-1.553-0.173-1.953,0.508l-2.336,3.98l-2.231,2.667l-3.366,4.25l-1.94,8.333c-0.24-0.616-0.49-1.199-0.747-1.687  c-1.479-2.8-3.536-4.935-4.436-6.001c-0.901-1.067-1.137-1.231-2.445-0.134c-0.072,0.062-0.149,0.123-0.229,0.184  c-0.673-0.824-1.552-1.783-2.683-2.786c-0.227-0.201-0.46-0.365-0.69-0.543c0.748-1.132,1.342-1.715,2.711-1.989l0.258-0.051  c2.562-0.511,4.414-0.88,5.729-2.343c1.305-1.449,1.72-4.321,1.763-4.644c0.069-0.521-0.296-0.998-0.816-1.068  c-0.523-0.068-0.999,0.296-1.068,0.816c-0.097,0.716-0.518,2.764-1.291,3.624c-0.894,0.993-2.403,1.294-4.688,1.75L59.472,6.25  c-2.061,0.412-3.002,1.416-3.925,2.808c-2.525-1.343-5.285-1.494-8.288-0.688c-0.929,0.25-1.789,0.59-2.597,0.996  c-0.994-1.556-1.916-2.674-4.129-3.116l-0.26-0.052c-2.285-0.456-3.794-0.756-4.688-1.75c-0.773-0.86-1.194-2.907-1.291-3.624  c-0.071-0.52-0.55-0.885-1.069-0.816c-0.521,0.07-0.885,0.547-0.816,1.068c0.043,0.323,0.458,3.195,1.762,4.644  c1.316,1.462,3.167,1.832,5.729,2.343l0.258,0.051c1.461,0.292,2.037,0.93,2.862,2.217c-1.244,0.87-2.319,1.942-3.237,3.178  c-0.179-0.12-0.345-0.239-0.493-0.359c-1.356-1.099-1.601-0.934-2.534,0.133c-0.933,1.067-3.068,3.201-4.602,6.002  c-0.225,0.409-0.433,0.842-0.632,1.281l-1.823-7.829l-3.39-4.279l-2.207-2.638l-2.337-3.979c-0.398-0.68-1.273-0.909-1.952-0.508  c-0.68,0.398-0.907,1.272-0.508,1.952l2.397,4.082l2.395,2.892l2.969,3.749l2.821,12.115c-0.044,0.458-0.054,0.867,0,1.164  c0.005,0.031,0.025,0.057,0.035,0.086c-0.222,0.044-0.43,0.118-0.615,0.232c-0.288,0.177-0.914,0.729-1.738,1.623l-11.674,9.028  l-9.133,2.766l-0.264,0.288c-1.051,1.147-2.781,3.03-2.945,3.198c-0.557,0.557-0.557,1.46,0,2.017  c0.278,0.278,0.644,0.418,1.008,0.418c0.365,0,0.73-0.14,1.008-0.418c0.176-0.176,1.922-2.077,2.767-2.999l8.923-2.702l5.368-4.708  c-2.958,5.195-5.671,12.511-5.292,21.289c0.177,4.086,1.042,8.352,2.302,12.437c-0.34-0.033-0.693,0.05-0.989,0.269  c-2.845,2.113-4.552,10.802-3.95,16.455c-0.659,0.634-2.084,1.891-3.005,2.702c-1.847,1.628-2.52,2.221-2.764,2.624  c-0.582,0.659-2.902,3.024-4.999,5.121c-0.557,0.558-0.557,1.46,0,2.017c0.278,0.279,0.644,0.418,1.008,0.418  s0.73-0.139,1.008-0.418c3.598-3.598,4.923-4.939,5.411-5.626c0.26-0.267,1.344-1.223,2.221-1.996  c3.926-3.461,4.04-3.584,4.04-4.385l-0.015-0.207c-0.809-5.536,1.176-13.25,2.745-14.415c0.04-0.029,0.071-0.064,0.106-0.098  c2.032,5.763,4.76,11,7.323,14.619c4.844,6.839,16.162,12.525,19.448,12.994c0.393,0.057,0.753,0.085,1.073,0.085  c0.852,0,1.484-0.209,1.946-0.615c0.463,0.406,1.096,0.615,1.947,0.615c0.319,0,0.681-0.028,1.073-0.085  c3.285-0.469,14.602-6.156,19.446-12.994c2.512-3.546,5.18-8.646,7.198-14.271c1.519,1.74,3.258,8.923,2.491,14.165l-0.016,0.207  c0,0.801,0.113,0.924,4.04,4.385c0.878,0.773,1.961,1.729,2.222,1.996c0.487,0.687,1.812,2.028,5.409,5.626  c0.278,0.279,0.644,0.418,1.009,0.418c0.364,0,0.729-0.139,1.008-0.418c0.558-0.557,0.558-1.459,0-2.017  C93.977,94.915,91.657,92.55,91.076,91.891z M33.657,19.884c0.934-1.667,3.127-4.146,4.468-4.868c0.867-0.467,1.734,1.267,2.8,1.867  c1.067,0.601,1.467,0.801,0.601,1.535c-0.835,0.706-2.401,3.467-5.001,4.067c-1.982,0.457-3.458,1.687-4.078,2.04l-0.199-0.852  C32.475,22.665,32.996,21.064,33.657,19.884z M49.101,96.704c0.021,0.438,0.054,1.102-0.09,1.252  c-0.014,0.015-0.151,0.143-0.712,0.143c-0.229,0-0.5-0.022-0.804-0.066c-3.069-0.438-13.865-6.141-18.165-12.211  c-4.546-6.418-9.644-18.074-10.095-28.499c-0.563-13.042,6.142-22.784,9.428-26.495c0.174-0.153,0.317-0.305,0.417-0.459  c0.591-0.633,1.029-1.024,1.225-1.144c0.039-0.024,0.115-0.038,0.213-0.038c0.295,0,0.698,0.113,1.087,0.223  c0.448,0.126,0.91,0.256,1.352,0.256c0.495,0,1.776,0.167,3.014,0.329c0.735,0.096,1.484,0.194,2.132,0.266  c1.29,0.143,4.165,1.023,5.882,1.549c0.31,0.095,0.589,0.181,0.827,0.251c-1.503,2.511-3.141,6.396-2.654,9.067  c0.563,3.096,1.405,5.703,6.026,6.242c0.309,0.036,0.601,0.062,0.878,0.079c0.07,9.879,0.077,25.627,0.02,46.84l-0.004,1.686  C49.077,96.217,49.088,96.462,49.101,96.704z M59.009,16.175c1.126-0.479,2.179-2.107,2.987-1.547  c1.254,0.865,3.16,3.571,3.906,5.331c0.744,1.76,1.129,4.352,1.009,4.81c-0.117,0.456-1.627-1.658-4.145-2.541  c-2.52-0.883-3.771-3.801-4.525-4.595C57.463,16.809,57.882,16.654,59.009,16.175z M71.159,85.821  c-4.299,6.07-15.094,11.773-18.163,12.211c-0.304,0.044-0.573,0.066-0.804,0.066c-0.561,0-0.698-0.128-0.712-0.143  c-0.144-0.15-0.111-0.813-0.09-1.252c0.013-0.242,0.023-0.487,0.023-0.73l-0.005-1.688c-0.058-21.212-0.051-36.96,0.021-46.838  c0.277-0.016,0.569-0.042,0.877-0.079c4.621-0.539,5.464-3.146,6.027-6.242c0.482-2.658-1.133-6.513-2.629-9.024  c1.062-0.164,3.116-0.323,4.688-0.444c1.067-0.083,2.037-0.158,2.646-0.226c0.977-0.108,2.191-0.393,3.263-0.643  c0.838-0.196,1.787-0.418,2.101-0.418c0.466,0,0.798-0.105,1.04-0.182c0.072-0.022,0.171-0.054,0.196-0.056  c0.001,0,0.059,0.009,0.199,0.097c0.199,0.123,0.554,0.411,1.015,0.847c0.124,0.13,0.237,0.243,0.331,0.321  c3.276,3.263,10.642,12.768,10.072,25.923C80.805,67.748,75.706,79.403,71.159,85.821z"></path></svg>