<svg xmlns="http://www.w3.org/2000/svg" xmlns:xlink="http://www.w3.org/1999/xlink" version="1.2" baseProfile="tiny" x="0px" y="0px" viewBox="0 0 100 100" xml:space="preserve"><path d="M92.9,28.5c0,0-0.9-1.1-1.9-3.8c-1-2.8,0.2-3.3,0.3-5.4c0.1-2.1-1.6-2.9-1.6-2.9c2-4.9-2.1-5.8-2.1-5.8  c-0.7,0.3-2.1,2.6-2.1,2.6c-3-1.7-10.6-0.3-10.6-0.3c-1.6,0.6-2.6-0.9-2.6-0.9c-3.5-2.9-8.3-1.3-8.3-1.3c-0.4,5.9,6.9,8.7,6.9,8.7  l-0.1,2.2c0,1.7-3.3,6.2-4.7,8c-0.7,0.4-3.5,1.8-5.5,1.5c0,0-7.8,0.5-13.4,2.1c0,0-7.9,0.1-11.9-1.7c-4-1.8-12.5-3.4-17.8,1.3  c0,0-0.3,0.2-0.7,0.6c-1.1,0.5-10,4.5-9.9,13.5c0,0,0.9,2.2,2.5,2c0,0,1.2-3.1,3.8-5.4c0.1,1.7,0.6,3.7,1.4,5.8c0,0,2,5.7,1.7,8  c0,0,1,4.8-2.2,6.1c0,0-1.3,1-1,1.8c0,0,3.6,14.3,4.6,19.3l0.2,2.4l3,2.9c0,0,5.1,0.2,5.4-1.9c0,0-0.5-2.8-2.6-3.4  c0,0,0.5-1,0.5-1.3c0-0.3-3-10.1-2.3-12.1c0,0,0.5-4.1,2.2-8.6c0.5,2.4,0.1,5.8,0.1,5.8c-0.5,1,0.2,2.9,0.2,2.9  c1.5,0.8,3.8,6.2,3.8,6.2c-1.2,0.9,0.2,5,0.2,5c3.4,2,7.2,0.3,7.2,0.3c-0.2-1.8-1.4-3.9-1.4-3.9l0.1-2.1c-2.2-2.6-3.3-9.3-3.3-9.3  s0.7-5.4,5.5-10.3c4.2,1.3,10.3,2.4,19,1.7c0,0,3.3,9.2,6.7,14.5c0,0,1.4,6.8,0.8,12.3l3.4,3.7c0,0,4.5,1.4,6.8-1.1  c0,0-0.8-1.5-1.8-2.8c3.7-0.2,2.7-2.1,2.7-2.1l-2.8-2.7l0.3-1.3c0,0-3.5-6.2-1.8-9.4l0-0.6l-1-9c0.1-0.8,0.3-2.1,0.4-3.2  c0.2-0.1,6.6-3.8,7.9-16.7c0.8-4.2,2.3-5.7,2.3-5.7c3.8,1.7,7.9,0.3,7.9,0.3c4.8,0.7,5.4-2.2,5.4-2.2l-0.2-0.3l0.5-0.5  C93.6,30.9,92.9,28.5,92.9,28.5z"></path></svg>