<svg xmlns="http://www.w3.org/2000/svg" xmlns:xlink="http://www.w3.org/1999/xlink" version="1.2" baseProfile="tiny" x="0px" y="0px" viewBox="0 0 32 32" xml:space="preserve"><path fill-rule="evenodd" d="M26.815,24.32c0.301,0.168,0.452,0.379,0.452,0.629L26.815,24.32L26.815,24.32z M26.664,24.445  c0.369,0.234,0.521,0.453,0.452,0.654L26.664,24.445L26.664,24.445z M7.481,18.018c-0.419-0.77-0.628-1.614-0.628-2.537l0,0l0,0l0,0  l0,0l0,0l0,0l0,0c0.186,1.474,0.52,2.504,1.005,3.09c0.503,0.602,0.828,1.531,0.979,2.787c0.117,0.234,0.143,0.512,0.075,0.828  c-0.099,0.301-0.15,0.578-0.15,0.828c-0.133,0.504,0.001,0.789,0.402,0.855c0.418,0.418,0.803,0.771,1.154,1.055  c0.268,0.201,0.67,0.52,1.205,0.953c0.084,0.102,0.27,0.15,0.553,0.15c0.269,0,0.453-0.033,0.553-0.1  c0.102-0.1,0.15-0.242,0.15-0.428c0-0.201-0.107-0.301-0.326-0.301c0.219,0.066,0.326,0.168,0.326,0.301  c0,0.219-0.049,0.361-0.15,0.428c0.354,0.354,0.561,0.277,0.627-0.227c-0.033-0.15-0.074-0.283-0.125-0.402  c-0.049-0.268-0.107-0.375-0.176-0.326c0.186,0.252,0.277,0.461,0.277,0.629c0,0.201,0.066,0.277,0.199,0.225  c0.15-0.049,0.168-0.232,0.051-0.553c-0.084-0.301-0.242-0.451-0.477-0.451c-0.217,0-0.402,0.025-0.553,0.074  c-0.168,0.068-0.334,0.068-0.502,0c-0.1-0.098-0.227-0.211-0.377-0.338c-0.15-0.125-0.309-0.264-0.477-0.414  c-0.335-0.268-0.502-0.586-0.502-0.955c-0.066-0.852,0.184-1.771,0.753-2.76c0.586-1.004,0.786-1.926,0.603-2.764  c0-0.268,0.059-0.283,0.175-0.051c0.165-0.711,2.574,0.828,5.852,1.357c0.066,1.072,0.1,1.926,0.1,2.561  c-0.033,0.586-0.05,1.424-0.05,2.512c0,0.553,0.109,1.121,0.326,1.707c0.053,0.168,0.151,0.326,0.302,0.479  c0.368,0,0.761,0.023,1.18,0.074c0.503,0.049,0.763,0.025,0.779-0.074c0.032-0.186-0.085-0.377-0.353-0.58  c-0.1-0.1-0.26-0.15-0.477-0.15c-0.15,0.035-0.301-0.047-0.451-0.25c-0.118-0.217-0.168-0.51-0.15-0.879  c0.065-0.535,0.1-0.844,0.1-0.93c0.135-0.451,0.293-0.91,0.477-1.381c0.219-0.453,0.327-0.887,0.327-1.307  c0.536,0.486,1.038,0.889,1.507,1.205c0.234,0.186,0.469,0.357,0.703,0.516c0.235,0.16,0.452,0.314,0.652,0.465  c0.217,0.186,0.502,0.377,0.854,0.578c0.437,0.285,0.687,0.502,0.752,0.652c0.053,0.369,0.186,0.529,0.402,0.479  c0.219-0.051,0.436,0.008,0.652,0.174c0.403,0.168,0.646,0.277,0.729,0.326c0.202,0.135,0.462,0.168,0.777,0.102  c0.337-0.451,0.346-0.762,0.026-0.93c-0.217-0.117-0.535-0.268-0.954-0.451c-0.419-0.066-0.661-0.201-0.729-0.402  c-0.033-0.133-0.141-0.326-0.324-0.578c-0.955-0.938-1.809-2.059-2.563-3.363c-0.166-0.168-0.252-0.395-0.252-0.678l-0.124-1.182  c-0.067-0.77-0.085-1.188-0.052-1.256c0.236,0.938,0.369,1.641,0.402,2.11c0.068,0.721,0.387,1.408,0.954,2.061  c-0.05-0.066-0.092-0.268-0.126-0.604c-0.049-0.199-0.074-0.367-0.074-0.502c0.251,0.52,0.385,0.787,0.402,0.805  c0.066-0.1,0.158-0.535,0.275-1.307c0.067-0.67,0.134-1.213,0.201-1.633c0.1,0.168,0.117,0.586,0.051,1.256  c-0.066,0.621-0.177,1.063-0.327,1.33c0.353-0.4,0.619-0.744,0.803-1.029c0.402-0.551,0.603-0.963,0.603-1.23  c0.035,0.035,0.105,0.119,0.214,0.252s0.247,0.301,0.415,0.5c0-0.199-0.024-0.602-0.076-1.203c-0.033-0.418-0.049-0.77-0.049-1.055  c0-0.166,0.059-0.016,0.174,0.451c0.15,0.487,0.353,0.78,0.604,0.879c0,0.051-0.051-0.408-0.151-1.381  c-0.1-0.72-0.125-1.189-0.075-1.405c0.035,0.101,0.102,0.284,0.201,0.552c0.168,0.486,0.251,0.771,0.251,0.853  c0.136-0.082,0.21-0.333,0.226-0.753c0.068-0.384,0.068-0.694,0-0.93c0.269,0.537,0.579,0.998,0.93,1.382  c-0.05-0.167-0.075-0.419-0.075-0.753c0-0.15,0.005-0.309,0.014-0.477c0.009-0.166,0.012-0.334,0.012-0.503  c-0.117-0.099,0.034,0.101,0.452,0.603c0.537,0.604,1.064,0.52,1.582-0.252c0-0.049,0.025-0.1,0.075-0.15  c0.085-0.049,0.126-0.15,0.126-0.301c0.234-0.25,0.359-0.51,0.376-0.777c0.202-0.05,0.302-0.25,0.302-0.604  c0-0.016-0.293-0.376-0.879-1.08c-0.117-0.232-0.184-0.393-0.201-0.477c-0.016-0.05-0.046-0.104-0.088-0.163  c-0.042-0.058-0.088-0.13-0.139-0.214c-0.267-0.617-0.895-1.178-1.883-1.682c0.336-0.017,0.629,0.151,0.879,0.502  c0.367,0.369,0.737,0.47,1.104,0.301c-0.099-0.1-0.233-0.212-0.4-0.339c-0.167-0.125-0.343-0.271-0.529-0.44  c-0.367-0.351-0.669-0.527-0.903-0.527c0.252-0.015,0.461-0.074,0.628-0.175c0.15-0.1,0.376-0.15,0.679-0.15  c0.032-0.049-0.201-0.092-0.704-0.127c-0.552-0.015-0.911,0.009-1.079,0.076c-0.049-0.083-0.107-0.166-0.176-0.25  c-0.1-0.183-0.168-0.326-0.201-0.427c-1.07,0.369-1.572,0.228-1.506-0.427c-0.269,0.485-0.393,0.921-0.377,1.306  c-0.569-0.167-0.946-0.209-1.131-0.127c-0.049,0.052-0.435,0.21-1.154,0.479c-0.519,0.218-1.063,0.503-1.632,0.854  c-0.401,0.269-0.804,0.385-1.206,0.351c-0.35-0.049-0.72,0.294-1.105,1.029c-0.352,0-0.652,0.094-0.904,0.277  c-0.232,0.184-0.749,0.523-1.453,0.54c-1.412,0.068-2.344-0.249-3.467-0.592c-1.021-0.266-2.273-0.474-3.949-0.24  c-0.769,0-1.789,0.556-2.392,1.476c-0.268,0.453-0.532,0.971-0.791,1.364c-0.259,0.394-0.26,0.739-0.477,1.042  c-0.135,0.251-0.386,0.66-0.754,1.23c-0.367,0.57-0.828,1.288-1.381,2.161c-1.206,1.941-2.008,3.287-2.411,4.041  c-0.099,0.336-0.292,0.512-0.577,0.527c-0.318,0.068-0.36,0.168-0.126,0.301c0,0.068,0.11,0.193,0.327,0.377  c0.252,0.186,0.377,0.203,0.377,0.051c0-0.217,0.118-0.543,0.351-0.979c0.603-1.172,1.356-2.385,2.26-3.641  C4.536,17.383,5.381,16.361,6,15.758c0.051,0.033-0.167,0.98-0.654,2.838c-0.452,1.908-0.669,2.887-0.652,2.938  c-0.033-0.066-0.066,0.301-0.101,1.104c-0.033,0.754-0.041,1.266-0.024,1.533c0.033,0.67,0.05,1.164,0.05,1.48  c0.067,0.137,0.202,0.254,0.402,0.354v-0.303c0,0.018,0,0.039,0,0.063c0,0.025,0,0.047,0,0.063c0,0.035,0,0.068,0,0.102  s0,0.059,0,0.076c0.269,0.033,0.485,0.033,0.652,0l0.026-0.076c0.033-0.033,0.05-0.066,0.05-0.102c0-0.131,0-0.211,0-0.236  s0,0.004,0,0.086c0,0.086,0,0.156,0,0.215s0,0.096,0,0.113c0.033,0.016,0.176,0.023,0.426,0.023c0.202-0.4,0.151-0.701-0.151-0.904  c-0.301-0.166-0.509-0.217-0.626-0.15c0-0.15-0.008-0.309-0.026-0.475c-0.016-0.168-0.025-0.352-0.025-0.555  c-0.015-0.334,0.035-0.668,0.15-1.004c0.252-0.535,0.704-1.053,1.356-1.557c0.704-0.502,1.206-1.063,1.507-1.684  C8.125,19.182,7.833,18.621,7.481,18.018L7.481,18.018z"></path></svg>