<svg xmlns="http://www.w3.org/2000/svg" xmlns:xlink="http://www.w3.org/1999/xlink" version="1.1" x="0px" y="0px" viewBox="0 0 100 100" enable-background="new 0 0 100 100" xml:space="preserve"><g><path d="M88.971,77.337c0.047-2.563-4.815-3.382-6.62-4.405c-1.878-1.064-3.047-2.471-4.457-4.021   c-0.78-0.857-4.803-2.692-4.968-3.046c-1.554-3.318-0.116-7.353-0.146-10.85c-0.021-2.568-0.289-5.902-1.86-8.04   c-0.675-0.919-3.324-2.686-3.202-3.706c0.283-2.362,4.653-5.155,6.17-7.057c3.348-4.202,5.383-9.051,5.72-14.424   c0.61-9.763-6.896-18.375-17.016-16.636c-9.201,1.582-13.668,11.005-15.7,19.166c-0.986,3.961-0.963,8.116-1.236,12.172   c-0.184,2.722,0.852,7.286-1.931,7.94c-3.87,0.909-7.846,1.043-11.614,2.456c-4.288,1.608-4.412-0.239-6.798-3.158   c-4.114-5.033-14.586,0.969-13.218,5.69c-1.238,1.28-1.638,3.089-1.029,4.739c0.844,2.284,5.44,0.968,7.317,1.461   c1.938,0.51,1.302,4.081,1.87,5.771c0.735,2.19,4.008,5.574,3.095,8.128c0.566,4.696-0.167,10.388-0.97,15.009   c-0.24,1.384-0.562,3.976-1.992,4.783c-0.436,0.246-7.125,0.589-5.855,2.323c0.575,0.785,5.626,0.412,6.228,0.349   c2.542-0.271,4.146-2.097,5.05-4.46c2.064-5.396,4.275-12.844,3.811-18.604c2.191,1.693,5.478,2.392,6.319,5.086   c0.923,2.957,2.438,5.598,3.217,8.646c0.63,2.466,2.356,5.24,2.356,7.737c0,3.011-4.924,1.189-4.559,3.042   c0.149,0.76,4.861,0.978,5.196,0.978c3.215,0,3.842-5.263,3.102-7.794c-0.559-6.388-1.063-13.604-4.465-19.068   c2.51,0.022,5.037-0.513,7.359-1.453c1.991-0.807,3.843-1.944,5.443-3.379c0.833-0.747,3.384-5.029,4.364-4.888   c0.391,0.057-3.903,7.755-4.39,8.665c-1.67,3.123,1.043,8.448,2.169,11.446c0.902,2.1,5.306,6.383,5.306,8.525   c-0.001,1.581-3.507,0.873-4.081,0.611c-1.594-0.725-1.903,1.185-3.005,0.953c-4.084-0.859-4.754,1.76-1.478,2.436   c2.912,0.6,8.438,0.499,11.299-0.51c9.389-3.312-7.378-17.294,0.034-23.267c2.13,5.128,7.455,7.675,12.002,10.415   c3.254,1.962,14.178,2.985,7.647,9.624c-1.072,1.09-4.289-0.72-4.595,1.896c-0.163,1.398,4.644,1.281,5.045,1.086   c1.605-0.804,4.282,1.205,4.08-1.542C87.717,84.537,89.398,80.966,88.971,77.337z M12.195,49.723l0.004,0.011L12.195,49.723z    M65.605,37.48c-5.726,2.717-11.167,4.427-17.348,5.927c0.519-3.138-0.385-6.565,0-9.792c1.134-3.036,1.293-7.309,1.944-10.526   c1.495-7.38,5.522-13.282,13.025-15.316c8.52-2.31,12.564,6.377,13.017,13.061C76.688,27.425,70.651,34.069,65.605,37.48z"></path></g></svg>