<svg xmlns="http://www.w3.org/2000/svg" xmlns:xlink="http://www.w3.org/1999/xlink" version="1.1" x="0px" y="0px" viewBox="0 0 100 100" enable-background="new 0 0 100 100" xml:space="preserve"><path d="M82.7,35.2l-0.2-0.1c-3.2-1.3-6.4-1.8-9.9-1.3l-19.8,3v-2.2c0,0,0,0,0,0c0.1,0,0.2,0,0.3-0.1l11.3-7.8  c0.1-0.1,0.2-0.2,0.2-0.3c0.1-0.1,0.1-0.2,0.1-0.4L60.9,9.6l16.3-0.7c1.7-0.1,3.3-1.1,4.1-2.6l0.3-0.6c0.1-0.1,0-0.3-0.1-0.4  c-0.1-0.1-0.3,0-0.4,0.1L80.7,6c-0.7,1.3-2.1,2.2-3.6,2.3l-17,0.8c-0.1,0-0.2,0.1-0.2,0.1c-0.2,0.1-0.3,0.4-0.2,0.6L63.8,26l-11,7.5  V33L52,30.4c-0.1-0.3-0.3-0.5-0.6-0.6c0.5-0.2,0.8-0.6,1.1-1l0,0c0.4-0.6,0.2-1.4-0.3-1.8c-0.4-0.3-0.9-0.3-1.3-0.1  c0-0.1-0.1-0.3-0.1-0.4l3.3-4l4.1-8.6c0-0.1,0-0.2-0.1-0.2c-0.1,0-0.2,0-0.2,0.1l-4.1,8.6l-3.2,3.9c0,0,0,0-0.1,0v0l1.1-3.2  c0-0.1,0-0.2-0.1-0.2c-0.1,0-0.2,0-0.2,0.1l-0.9,2.4L50.2,9.7c0-0.1-0.1-0.2-0.2-0.2c-0.1,0-0.2,0.1-0.2,0.2l-0.1,15.7l-0.9-2.4  c0-0.1-0.1-0.1-0.2-0.1c-0.1,0-0.1,0.1-0.1,0.2l1.1,3.2l0,0c0,0,0,0,0,0l-3.3-3.9l-4.1-8.6c0-0.1-0.1-0.1-0.2-0.1  c-0.1,0-0.1,0.1-0.1,0.2l4.1,8.6l3.3,4c-0.1,0.1-0.1,0.2-0.1,0.3c-0.4-0.1-0.8-0.1-1.2,0.1c-0.6,0.4-0.7,1.2-0.4,1.7l-0.1,0.1  c0.2,0.4,0.5,0.7,1,0.9c-0.3,0.1-0.6,0.3-0.7,0.7L47,33v0.5L36.2,26l4.1-16.2c0,0,0,0,0,0c0.1-0.2,0-0.4-0.2-0.6  c-0.1-0.1-0.1-0.1-0.2-0.1l-17-0.8c-1.5-0.1-2.9-1-3.6-2.3l-0.3-0.6c-0.1-0.1-0.3-0.2-0.4-0.1c-0.1,0.1-0.2,0.3-0.1,0.4l0.3,0.6  c0.8,1.5,2.4,2.6,4.1,2.6l16.3,0.7l-3.9,16.5c0,0.1,0,0.3,0.1,0.4c0,0.1,0.1,0.3,0.2,0.3l11.3,7.8c0.1,0,0.1,0.1,0.2,0.1v2.2  l-19.7-3c-3.4-0.5-6.6,0-9.9,1.3l-0.2,0.1c-1.1,0.4-1.8,1.5-1.8,2.6c0,1,0.5,1.9,1.4,2.4l0.7,0.4c3.6,2.1,7.8,3.3,12,3.3h7.5  l8.1-3.7L38,48.8c-0.1,0.1-0.1,0.2-0.1,0.3c-0.1,0.1-0.1,0.1-0.2,0.3l-3.4,17.6H22.9c0,0-0.1,0-0.1,0c0,0-0.1,0-0.1,0l-3.9,3.8  c0,0,0,0,0,0.1c0,0,0,0,0,0l-1.3,3.3v4.3c0,0.2,0.1,0.3,0.3,0.3c0.2,0,0.3-0.1,0.3-0.3v-4.2l1.2-3.1l3.7-3.6h11.7  c0.1,0,0.2-0.1,0.2-0.1c0.1-0.1,0.2-0.2,0.2-0.3l3.4-17.6c0,0,0,0,0-0.1c0,0,0.1,0,0.1,0l8.4-10l0.2-0.1l-5.5,11.7  c0,0.1,0,0.1,0,0.2c-0.1,0.1-0.2,0.2-0.2,0.4l0.9,15.5c0,0,0,0.2,0,0.2c0,0,0,0,0,0l-15,4.3c0,0,0,0-0.1,0c0,0-0.1,0-0.1,0L20,79  c0,0,0,0,0,0.1c0,0,0,0,0,0.1l-2.3,8.3v7c0,0.2,0.1,0.3,0.3,0.3c0.2,0,0.3-0.1,0.3-0.3v-7l2.2-8.2l7.2-7.3l15.5-4.5  c0.1,0,0.1-0.1,0.2-0.1c0.2-0.1,0.4-0.3,0.4-0.6l-1.2-15.5c0,0,0.1-0.1,0.1-0.1l5.2-11v0.9c0.2,0,0.4,0,0.6,0.1l0,0.5  c-0.2,0.1-0.4,0.1-0.5,0.2v2.3c0.1-0.1,0.3-0.2,0.6-0.2l0,0.4c-0.2,0.1-0.4,0.1-0.5,0.2v2.6c0.1-0.1,0.3-0.2,0.6-0.2l0,0.4  c-0.2,0.1-0.4,0.1-0.5,0.2v2.9c0.1-0.1,0.3-0.2,0.5-0.3l0,0.6c-0.2,0.1-0.4,0.2-0.5,0.4v2.9c0.1-0.2,0.3-0.4,0.5-0.5l0,0.6  c-0.2,0.2-0.4,0.3-0.5,0.5v2.9c0.1-0.2,0.3-0.4,0.6-0.6l0,0.6c-0.4,0.4-0.6,0.9-0.6,1.4v1.4c0,0,0,0,0,0l0.2-0.1  c0.2-0.1,0.3-0.1,0.5-0.1l0,0.4h0L48.2,63v0.6h0.5c0.1,0.8,0.5,1.4,1.1,1.4c0.6,0,1.1-0.6,1.1-1.4h0.5V63l-0.4-2.2c0,0,0,0,0,0  l0-0.4c0.2,0,0.3,0.1,0.5,0.1l0.2,0.1c0,0,0,0,0,0v-1.4c0-0.5-0.2-1-0.6-1.4l0-0.6c0.2,0.2,0.4,0.4,0.5,0.5v-2.9  c-0.1-0.2-0.3-0.3-0.5-0.5l0-0.6c0.2,0.1,0.4,0.3,0.5,0.5v-2.9c-0.1-0.1-0.3-0.2-0.4-0.3l0-0.5c0.2,0.1,0.4,0.2,0.5,0.3v-2.9  c-0.1-0.1-0.3-0.1-0.5-0.2l0-0.4c0.2,0.1,0.4,0.1,0.5,0.2v-2.6c-0.1-0.1-0.3-0.1-0.5-0.2l0-0.4c0.2,0.1,0.3,0.1,0.5,0.2v-2.3  c-0.1-0.1-0.3-0.1-0.4-0.2l0-0.5c0.2-0.1,0.4-0.2,0.7-0.2v-1.1l5.3,11.2c0,0.1,0.1,0.1,0.1,0.1L56.3,67c0,0,0,0,0,0  c0,0.3,0.2,0.6,0.6,0.6c0,0,0,0,0,0l15.4,4.4l7.2,7.3l2.2,8.2v7c0,0.2,0.1,0.3,0.3,0.3c0.2,0,0.3-0.1,0.3-0.3v-7l-2.3-8.3  c0,0,0,0,0-0.1c0,0,0-0.1,0-0.1l-7.3-7.5c0,0,0,0-0.1,0c0,0,0,0-0.1,0l-15.1-4.3c0,0,0-0.1,0-0.1l0.9-15.6c0-0.2-0.1-0.3-0.2-0.4  c0-0.1,0-0.1,0-0.2l-5.5-11.7l0.2,0.1l8.4,10c0,0,0,0,0.1,0c0,0,0,0,0,0.1l3.4,17.6c0,0.1,0.1,0.2,0.2,0.3c0.1,0.1,0.1,0.1,0.2,0.1  H77l3.7,3.6l1.2,3.1v4.2c0,0.2,0.1,0.3,0.3,0.3c0.2,0,0.3-0.1,0.3-0.3v-4.3l-1.3-3.3c0,0,0,0,0,0c0,0,0,0,0-0.1L77.3,67c0,0,0,0,0,0  l0,0c0,0-0.1,0-0.1,0c0,0-0.1,0-0.1,0H65.7l-3.4-17.6c0-0.1-0.1-0.2-0.2-0.3c0-0.1,0-0.2-0.1-0.3l-7.2-8.6l8.1,3.7h7.5  c4.2,0,8.4-1.1,12-3.3l0.7-0.4c0.9-0.5,1.4-1.4,1.4-2.4C84.5,36.7,83.8,35.7,82.7,35.2z M48.2,39.3L48.2,39.3L48.2,39.3  C48.2,39.3,48.2,39.3,48.2,39.3z M51.8,39.3C51.8,39.3,51.8,39.3,51.8,39.3l-0.1,0.1L51.8,39.3z M50.4,27.1  C50.5,27.1,50.5,27.1,50.4,27.1C50.5,27.1,50.5,27.1,50.4,27.1z"></path></svg>