<svg xmlns="http://www.w3.org/2000/svg" xmlns:xlink="http://www.w3.org/1999/xlink" version="1.1" x="0px" y="0px" viewBox="0 0 95 95" enable-background="new 0 0 95 95" xml:space="preserve"><path d="M74.263,93.007c-0.175-0.131-0.396-0.2-0.629-0.183c-0.059,0.003-0.822-0.165-1.138-0.302  c-1.822-0.77-3.09-2.204-3.915-4.204c-0.262-0.635-0.333-1.521-0.527-1.853c-0.496-0.871-1.218-1.079-1.646-1.359  c-1.898-1.179-5.052-3.357-8.16-6.508c-0.666-0.676-1.271-1.315-1.824-1.938c-2.82-3.145-4.217-5.471-4.664-6.284  c-0.113-0.202-0.167-0.312-0.167-0.312c-0.379-1.269-0.563-2.616-0.508-4.015c0.134-3.301,1.56-6.239,3.775-8.36  c0.243-0.113,0.484-0.249,0.718-0.396c6.081,0.297,7.423-0.419,9.517-2.263s4.458-3.458,4.598-7.003  c0.037-0.863,0.011-1.716-0.056-2.557c3.526-3.579,5.74-7.408,5.967-12.994c0.438-11.021-12.808-15.048-12.537-21.78  c0.071-1.762,0.623-2.826,1.13-3.467c1.234-1.552,3.209-2.581,5.419-2.494c0.529,0.021,2.321,0.253,2.827,0.279  c0.313,0.009,1.091,0.244,1.118-0.381c0.024-0.678-0.684-0.532-1.26-0.552c-1.798-0.071-4.226-1.044-5.344-2.277  c0,0-0.655-1.727-2.671-1.805c-1.398-0.058-2.6,0.918-2.871,2.248c-0.632,0.497-1.053,1.252-1.086,2.117  c-0.021,0.57,0.379,1.145,0.653,1.603c-0.783,1.124-1.354,2.643-1.537,4.545c-0.871,9.099,10.475,11.679,9.941,17.249  c-0.354,3.706-1.878,6.143-3.302,7.521c-1.588-2.364-2.299-2.773-4.689-4.344c-0.456-0.533-1.069-1.124-1.79-1.691  c-1.808-1.428-3.511-2.273-3.979-1.698s1.325,2.096,1.485,2.433c-0.34-0.1-2.048-1.795-3.228-2.362  c-0.527-0.253-1.146-0.639-2.508-1.058c-2.031-0.625-2.75-0.094-2.719,0.5c0.02,0.371,0.953,1.238,0.955,1.267  c-0.533-0.202-1.945-1.119-3.392-1.631c-1.445-0.512-3.327-0.463-3.492,0.372s1.266,1.325,2.17,1.743  c-0.27,0.063-1.287-0.216-2.313-0.222c-1.027-0.004-4.68,0.113-4.508,1.249c0.171,1.136,3.492,1.042,3.538,1.085  c-0.046,0.032-1.97,0.093-4.428,0.417c-2.46,0.325-3.592,1.002-3.351,1.827c0.134,0.456,1.977,0.206,2.785,0.173  c-3.825,0.941-4.775,3.045-4.507,3.584c-1.675,0.262-2.675,0.73-3.265,1.692c-0.608-0.049-1.278-0.069-1.985-0.04  c-0.241,0.007-0.479,0.024-0.71,0.043c-1.209,0.095-2.266,0.305-2.998,0.583c-0.453-0.021-0.935-0.022-1.431-0.003  c-2.661,0.105-5.224,0.752-5.099,1.533c0.074,0.464,1.29,0.708,1.29,0.708c-1.491,0.086-3.182,0.384-3.993,0.636  s-2.744,0.785-2.747,1.525s4.099-0.249,4.216-0.156c-0.376,0.192-9.62,3.935-8.706,5.58c0.146,0.179,0.455,0.211,0.878,0.113  c0.369-0.085,3.049-0.795,3.557-1.06c-0.287,0.277-1.944,1.504-2.23,1.841c-0.279,0.324-0.828,0.764-1.06,1.084  c-1.04,1.426-1.54,2.692-1.141,3.035c0.3,0.258,1.045-0.062,1.935-0.775c0.548-0.435,1.155-1.021,1.747-1.707  c0.368-0.422,0.695-0.852,0.976-1.256c-0.172,0.489-0.331,1.024-0.467,1.596c-0.138,0.575-0.24,1.134-0.311,1.658  c-0.244,1.823-0.649,4.134-0.101,4.266c0.58,0.139,2.279-3.98,2.898-5.885c0.079,0.589-0.624,5.541,0.579,5.656  c0.632,0.15,1.212-4.155,1.845-6.346c0.462,0.783,1.556,0.596,2.118-0.561c0.483-0.993,1.574-3.227,1.792-3.466  c-0.163,1.609-0.098,4.403,0.407,4.522c0.706,0.172,2.202-3.106,2.821-5.695c0.04-0.159,0.071-0.314,0.103-0.468  c0.314,0.17,0.563,0.203,0.939-0.048c0.221-0.16,0.561-0.542,0.764-0.708c-0.435,2.257-0.317,4.088,0.318,4.245  c0.471,0.111,1.106-0.726,1.658-2.062c0.166,0.806,0.641,1.728,1.99,2.611c0.907,0.6,2.542,1.284,3.808,1.78  c0.292,0.903,0.294,1.413,1.19,2.148s2.263,1.151,4.468,1.673l0,0c-1.925,2.835-6.805,6.726-7.06,6.899  c-0.254,0.178-0.686,0.513-0.946,1.094c-0.376,0.835-0.002,1.41,0.198,1.847c0.146,1.457,0.235,4.21-0.233,8.803  c-0.777,7.615-3.285,13.292-3.367,13.979c-0.083,0.69,1.291,3.552,1.377,3.725c0.682,1.318,1.851,2.722,3.394,3.041  c0.08,0.015,0.161,0.028,0.242,0.039c0.107,0.006,0.216-0.007,0.324-0.039c0.373-0.123,0.635-0.445,0.649-0.812  c0.024-0.554-0.455-0.839-0.606-0.963c-0.678-0.549-1.221-1.036-1.69-1.702c-0.055-0.064-0.089-0.17-0.002-0.224  c0.107-0.068,0.198-0.009,0.274,0.066c0.571,0.675,1.486,1.388,2.378,1.832c0.89,0.44,1.604,0.588,2.462,0.65  c1.136,0.086,2.232-0.054,3.344-0.553c0.473-0.218,0.683-0.77,0.468-1.244c-0.116-0.261-0.336-0.435-0.587-0.51  c-0.211-0.061-0.422,0.004-0.655,0.041c-0.334,0.055-0.829,0.136-1.167,0.107c-2.645-0.249-5.052-1.813-5.574-3.955  c-0.552-2.263-0.125-6.064,0.688-10.415c0.176-0.931,0.363-1.797,0.552-2.6c0.978-4.114,2.092-6.587,2.503-7.416  c0.103-0.209,0.163-0.317,0.163-0.317c0.824-1.032,1.592-3.568,2.378-4.722c1.145-1.687,3.325-4.009,5.532-5.692  c1.532,0.241,3.117,0.45,4.662,0.612c0.121,1.099,0.171,2.215,0.126,3.353c-0.138,3.422-2.405,9.553-2.348,9.588  c-0.126,0.284-0.203,0.592-0.213,0.918c-0.031,0.785,0.3,1.505,0.844,1.99l-0.001-0.002c0,0,0.005,0.007,0.006,0.01  c0.341,0.296,0.765,0.515,1.237,0.597c1.28,0.715,3.592,2.206,7.1,5.208c5.812,4.985,9.282,10.316,9.282,10.316  c0.02,0.043,0.045,0.079,0.069,0.115c0.063,0.11,0.138,0.209,0.212,0.305c-0.03,0.184-0.053,0.368-0.059,0.554  c-0.068,1.691,0.803,3.196,2.142,4.021c0.069,0.049,0.141,0.086,0.212,0.127c0.101,0.039,0.206,0.065,0.319,0.069  c0.521,0.021,0.96-0.383,0.98-0.897c0.004-0.15-0.027-0.292-0.083-0.416c-0.057-0.129-0.143-0.242-0.25-0.332  c-0.456-0.653-0.791-1.393-1.003-2.18c0.038-0.003,0.078-0.007,0.119-0.012c0.033-0.007,0.064-0.014,0.098-0.024  c1.565,2.665,2.916,3.641,3.693,3.994c1.039,0.472,2.208,0.698,3.425,0.605c0.518-0.038,0.909-0.491,0.867-1.009  C74.62,93.406,74.47,93.165,74.263,93.007z"></path></svg>