<svg xmlns="http://www.w3.org/2000/svg" xmlns:xlink="http://www.w3.org/1999/xlink" version="1.1" x="0px" y="0px" viewBox="0 0 100 100" enable-background="new 0 0 100 100" xml:space="preserve"><g><g><path display="none" fill="none" d="M42.728,56.506c-0.121-0.646-0.202-1.074-0.281-1.34c-0.114-0.387-0.381-0.963-0.75-1.764    c-1.669-3.617-5.578-12.086-4.402-23.895c0.13-1.312,1.782-5.51,7.776-9.143l-0.265-0.505c-1.965,0.886-4.024,1.744-6.203,2.652    c-8.759,3.652-18.687,7.791-24.577,14.868c-4.745,5.7-8.184,12.479-9.945,19.606c-1.511,6.111-1.77,12.443-0.731,17.828    c1.028,5.332,4.49,10.846,8.502,10.846c0.303,0,0.609-0.031,0.909-0.094l0.343-0.072l-0.141-0.322    c-1.073-2.447-1.822-5.324-2.096-6.637c-0.694-3.33-0.812-10.422-0.229-13.797c1.14-6.602,3.263-9.941,12.826-12.291    c0.201-0.049,0.425-0.074,0.668-0.074c2.5,0,6.551,2.658,8.063,4.451c1.831,2.172,3.133,8.24,3.423,11.008    c0.754,7.184,2.83,11.547,2.851,11.592l0.121,0.248l0.253-0.113c0.034-0.014,3.356-1.506,4.776-1.506    c0.077,0,0.146,0.006,0.206,0.016c0.4,0.063,0.96,0.531,1.455,0.945c0.21,0.176,0.429,0.359,0.638,0.514l0.08,0.061l0.1-0.004    c0.86-0.027,2.043-0.344,3.188-0.648c0.213-0.059,0.424-0.113,0.629-0.168l0.333-0.086L50.1,78.369    C44.692,66.986,43.316,59.643,42.728,56.506z M46.089,79.299c-0.726-0.539-1.556-1.408-2.219-1.514    c-1.324-0.207-5.144,1.514-5.144,1.514s-2.066-4.279-2.823-11.496c-0.305-2.9-1.608-8.934-3.489-11.162    c-1.695-2.01-6.463-5.098-9.017-4.471c-9.426,2.316-11.834,5.547-13.039,12.52c-0.588,3.404-0.474,10.521,0.231,13.904    c0.31,1.482,1.082,4.336,2.114,6.693c-4.247,0.887-8.018-5.061-9.072-10.525c-1.925-9.979,0.326-24.839,10.614-37.199    c7.265-8.728,20.596-12.902,30.679-17.442c-6.181,3.747-7.784,8.072-7.913,9.359c-1.429,14.359,4.532,23.644,5.162,25.767    c0.443,1.494,1.141,9.506,7.668,23.246C48.575,78.822,47.076,79.268,46.089,79.299z"></path><path display="none" fill="none" d="M91.746,36.77c-0.146-0.562-0.623-1.327-1.176-2.213c-0.815-1.31-1.825-2.933-1.802-4.082    c0.145-0.214,0.306-0.294,0.491-0.385c0.171-0.085,0.366-0.181,0.522-0.385l0.273-0.355l-0.438-0.097    c-0.135-0.03-0.407-0.141-0.67-0.249c-0.577-0.235-1.182-0.472-1.505-0.42c-0.425,0.066-0.582,0.531-0.733,0.979    c-0.128,0.378-0.273,0.808-0.534,0.882c-0.047,0.013-0.095,0.019-0.144,0.019c-1.188,0-2.837-3.612-2.869-5.265    c-0.021-1.018,0.434-2.342,0.735-3.218l0.147-0.438l-0.104-0.123C77.289,13.565,70.919,9.747,64.466,9.747    c-4.466,0-9.016,1.917-13.522,5.698l-0.239,0.201l0.222,0.22c0.548,0.542,0.464,4.419,0.403,7.248    c-0.041,1.881-0.079,3.658,0.018,4.777c0.158,1.826,0.919,4.61,1.358,6.106c0.027,0.093,2.806,9.323,4.123,10.088l0.455,0.265    l-0.027-0.527c-0.147-2.787,0.046-6.122,0.923-8.17c-0.531,3.776-0.976,10.612,1.569,15.835c2.949,6.053,6.318,6.883,9.025,7.551    c0.845,0.207,1.643,0.404,2.368,0.734c0.208,0.191,0.409,0.389,0.621,0.598c1.096,1.078,2.336,2.299,4.713,2.299    c0.235,0,0.482-0.012,0.734-0.037c2.66-0.25,3.555-1.715,4.421-3.131c0.055-0.09,0.108-0.18,0.164-0.268    c0.328-0.207,0.761-0.449,1.256-0.729c2.738-1.543,7.839-4.416,9.675-9.273C93.471,47.265,92.799,40.805,91.746,36.77z     M81.587,59.027c-0.918,1.479-1.687,3.066-4.402,3.322c-3.234,0.305-4.41-1.479-5.885-2.816c-3.16-1.467-7.489-0.359-11.294-8.17    c-2.854-5.855-1.892-13.854-1.318-17.09c-1.69,1.895-1.869,6.661-1.715,9.565c-1.077-0.625-3.608-8.612-3.993-9.921    c-0.487-1.66-1.198-4.328-1.348-6.051c-0.264-3.041,0.492-11.216-0.505-12.202c11.002-9.23,21.62-7.02,32.598,5.942    c-0.29,0.858-0.871,2.411-0.847,3.6c0.034,1.758,1.858,5.94,3.375,5.514c0.76-0.214,0.688-1.768,1.235-1.854    c0.415-0.064,1.64,0.571,2.067,0.666c-0.272,0.355-0.727,0.284-1.069,0.855c-0.119,1.997,2.625,5.078,2.984,6.455    c1.057,4.05,1.691,10.433,0.989,12.292C90.321,54.789,83.746,57.654,81.587,59.027z"></path><path display="none" fill="#000000" d="M91.471,36.841c-0.359-1.377-3.104-4.458-2.984-6.455c0.343-0.572,0.797-0.5,1.069-0.855    c-0.428-0.095-1.652-0.73-2.067-0.666c-0.548,0.086-0.476,1.64-1.235,1.854c-1.517,0.426-3.341-3.755-3.375-5.514    c-0.024-1.189,0.557-2.742,0.847-3.6C72.747,8.644,62.129,6.433,51.127,15.664c0.997,0.986,0.241,9.161,0.505,12.202    c0.149,1.723,0.86,4.391,1.348,6.051c0.385,1.31,2.916,9.297,3.993,9.921c-0.154-2.905,0.024-7.67,1.715-9.565    c-0.573,3.236-1.535,11.235,1.318,17.09c3.805,7.811,8.134,6.703,11.294,8.17c1.475,1.338,2.65,3.121,5.885,2.816    c2.716-0.256,3.484-1.844,4.402-3.322c2.159-1.373,8.734-4.238,10.873-9.895C93.162,47.274,92.527,40.891,91.471,36.841z"></path><path display="none" fill="#000000" d="M37.012,29.479c0.129-1.288,1.732-5.612,7.913-9.359    c-10.083,4.54-23.414,8.714-30.679,17.442C3.958,49.922,1.707,64.783,3.631,74.762c1.054,5.465,4.826,11.412,9.072,10.525    c-1.032-2.357-1.805-5.211-2.114-6.693c-0.705-3.383-0.819-10.5-0.231-13.904c1.205-6.973,3.613-10.203,13.039-12.52    c2.553-0.627,7.321,2.461,9.017,4.471c1.88,2.229,3.184,8.262,3.489,11.162c0.757,7.217,2.823,11.496,2.823,11.496    s3.82-1.721,5.144-1.514c0.663,0.105,1.494,0.975,2.219,1.514c0.987-0.031,2.486-0.477,3.753-0.807    c-6.528-13.74-7.225-21.752-7.668-23.246C41.544,53.123,35.583,43.838,37.012,29.479z"></path><path d="M93.56,67.025c-0.374-0.23-0.794-0.488-0.901-0.604l-0.015-0.035c-0.923-2.34-0.925-3.65-0.93-6.264    c-0.002-1.604-0.006-3.598-0.217-6.566c0.078-1.109,0.498-1.686,0.984-2.35c1.204-1.651,2.704-3.705-0.028-14.637    c-0.295-1.179-1.04-2.263-1.697-3.22c-0.664-0.965-1.292-1.879-1.237-2.601c3.374-2.415,4.098-5.609,2.211-9.758    c-0.526-1.16-1.854-1.91-3.382-1.91c-1.008,0-2.523,0.321-4.119,1.814C78.796,14.599,73.091,9,63.592,9    c-0.355,0-0.718,0.008-1.078,0.025c-4.857,0.22-9.315,3.898-12.897,6.855c-1.544,1.274-2.879,2.375-3.966,2.96    c-1.355,0.731-3.72,1.663-5.807,2.486c-1.441,0.568-2.802,1.104-3.757,1.54l-1.168,0.532c-4.078,1.856-10.902,4.961-14.195,7.05    c-7,4.442-12.655,11.984-15.924,21.237c-3.139,8.883-3.665,18.426-1.442,26.18c0.883,3.08,4.64,8.836,9.717,8.836    c0.225,0,0.452-0.014,0.677-0.037c0.601,1.141,1.476,1.375,2.323,1.604c0.095,0.027,0.191,0.053,0.287,0.08l0.054,0.01    c1.091,0.094,2.375,0.141,3.816,0.141c8.051,0,20.67-1.541,26.624-3.832l0.047-0.025c0.258-0.158,0.441-0.475,0.544-0.939    c0.207-0.934,0.065-2.482-0.488-3.617c0.82-0.049,1.536-0.172,2.287-0.303c0.36-0.063,0.733-0.129,1.128-0.188    c0.833,0.482,1.169,1.578,1.524,2.738c0.315,1.025,0.641,2.09,1.355,2.779c2.076,2.006,7.637,3.816,9.604,4.346    c0.919,0.246,3.125,0.434,5.134,0.434c1.907,0,4.342-0.158,5.122-0.906c0.625-0.604,0.918-1.303,0.867-2.084    c-0.099-1.502-1.473-3.244-4.082-5.18c-1.212-1.834-1.108-5.822-1.054-7.973c0.006-0.252,0.013-0.482,0.017-0.688    c0.093,0.006,0.188,0.01,0.284,0.01c1.15,0,2.373-0.465,3.021-0.896c1.883-1.256,2.158-1.869,1.838-4.109    c-0.417-2.926-3.729-3.283-5.507-3.477c-0.343-0.037-0.748-0.08-0.967-0.133c0.688-1.635,1.007-3.232,1.199-4.508    c0.47,0.125,1.049,0.365,1.568,0.58c0.329,0.137,0.642,0.268,0.91,0.363c2.084,3.57,4.929,8.42,9.177,12.365l0.049,0.045    l0.063,0.018c3.825,1.172,8.489,1.932,11.88,1.932c3.31,0,5.167-0.684,5.522-2.029C98.698,70.18,95.354,68.127,93.56,67.025z     M49.915,78.768c-0.205,0.055-0.416,0.109-0.629,0.168c-1.145,0.305-2.328,0.621-3.188,0.648l-0.1,0.004l-0.08-0.061    c-0.209-0.154-0.427-0.338-0.638-0.514c-0.495-0.414-1.055-0.883-1.455-0.945c-0.06-0.01-0.129-0.016-0.206-0.016    c-1.42,0-4.742,1.492-4.776,1.506l-0.253,0.113l-0.121-0.248c-0.021-0.045-2.097-4.408-2.851-11.592    c-0.29-2.768-1.592-8.836-3.423-11.008c-1.511-1.793-5.563-4.451-8.063-4.451c-0.243,0-0.467,0.025-0.668,0.074    c-9.563,2.35-11.686,5.689-12.826,12.291c-0.583,3.375-0.465,10.467,0.229,13.797c0.274,1.313,1.023,4.189,2.096,6.637    l0.141,0.322l-0.343,0.072c-0.3,0.063-0.606,0.094-0.909,0.094c-4.012,0-7.474-5.514-8.502-10.846    c-1.039-5.385-0.78-11.717,0.731-17.828c1.761-7.127,5.2-13.906,9.945-19.606c5.89-7.077,15.818-11.216,24.577-14.868    c2.179-0.909,4.238-1.766,6.203-2.652l0.265,0.505c-5.994,3.633-7.646,7.832-7.776,9.143c-1.176,11.808,2.733,20.278,4.402,23.895    c0.369,0.801,0.635,1.377,0.75,1.764c0.079,0.266,0.16,0.693,0.281,1.34c0.588,3.137,1.964,10.48,7.372,21.863l0.148,0.313    L49.915,78.768z M83.052,58.506c-0.495,0.279-0.928,0.521-1.256,0.729c-0.056,0.088-0.109,0.178-0.164,0.268    c-0.866,1.416-1.761,2.881-4.421,3.131c-0.252,0.025-0.499,0.037-0.734,0.037c-2.377,0-3.617-1.221-4.713-2.299    c-0.212-0.209-0.413-0.406-0.621-0.598c-0.726-0.33-1.523-0.527-2.368-0.734c-2.707-0.668-6.076-1.498-9.025-7.551    c-2.545-5.224-2.101-12.059-1.569-15.835c-0.877,2.048-1.07,5.383-0.923,8.17l0.027,0.527l-0.455-0.265    c-1.317-0.765-4.096-9.995-4.123-10.088c-0.439-1.497-1.2-4.281-1.358-6.106c-0.097-1.119-0.059-2.896-0.018-4.777    c0.061-2.829,0.145-6.706-0.403-7.248l-0.222-0.22l0.239-0.201C55.45,11.664,60,9.747,64.466,9.747    c6.453,0,12.823,3.819,19.477,11.674l0.104,0.123l-0.147,0.438c-0.302,0.876-0.757,2.201-0.735,3.218    c0.032,1.652,1.682,5.265,2.869,5.265c0.049,0,0.097-0.006,0.144-0.019c0.261-0.074,0.406-0.503,0.534-0.882    c0.151-0.449,0.309-0.913,0.733-0.979c0.323-0.052,0.928,0.186,1.505,0.42c0.263,0.107,0.535,0.219,0.67,0.249l0.438,0.097    l-0.273,0.355c-0.156,0.204-0.352,0.299-0.522,0.385c-0.186,0.091-0.347,0.171-0.491,0.385c-0.023,1.149,0.986,2.772,1.802,4.082    c0.553,0.886,1.03,1.651,1.176,2.213c1.053,4.035,1.725,10.496,0.98,12.463C90.891,54.09,85.79,56.963,83.052,58.506z"></path></g><g><path d="M61.885,34.21l-0.097-0.01c-1.138-0.098-3.087-1.722-3.075-3.21c0.022-3.114,2.886-5.742,4.911-6.613    c2.145-0.923,3.813-0.767,4.874,0.426c1.219,1.373,1.309,3.733,1.169,4.911l-0.008,0.07l-0.04,0.058    c-0.782,1.134-2.27,1.767-3.992,2.499c-1.15,0.489-2.455,1.043-3.659,1.816L61.885,34.21z"></path></g><g><path d="M76.842,59.238l-0.203-0.217c-0.184-0.197-0.284-0.369-0.367-0.506c-0.039-0.068-0.073-0.127-0.107-0.168    c-0.126-0.061-0.372-0.133-0.634-0.209c-0.976-0.283-2.608-0.758-2.884-2.135l-0.104-0.518l0.489,0.197    c0.552,0.221,1.657,0.344,3.115,0.344c0.249,0,0.438-0.004,0.531-0.006h0.067c1.171,0,3.061-0.338,3.815-0.682l0.392-0.178    l0.012,0.43c0.034,1.275-1.621,1.953-2.611,2.359c-0.24,0.098-0.542,0.221-0.604,0.275c-0.081,0.076-0.17,0.186-0.273,0.313    c-0.12,0.146-0.257,0.314-0.425,0.488L76.842,59.238z"></path></g><g><path d="M76.747,61.354c-1.407,0-3.019-0.395-3.322-1.506l-0.181-0.656l0.595,0.332c0.496,0.277,0.716,0.322,1.169,0.322    c0.15,0,0.32-0.006,0.524-0.014c0.314-0.01,0.703-0.021,1.215-0.021c2.01,0,2.215-0.008,2.892-0.287l0.576-0.236l-0.198,0.592    C79.693,60.848,78.126,61.354,76.747,61.354z"></path></g><g><path d="M72.493,46.215c-0.018-0.914-0.429-3.558-1.598-3.993l-0.042-0.016l-0.046-0.002c-1.884-0.071-4.414,3.193-4.854,4.316    l-0.015,0.039l-0.004,0.04c-0.075,0.875,0.407,2.388,1.344,3.409c0.623,0.678,1.351,1.036,2.104,1.036h0.021    c1.159-0.079,1.865-1.833,2.488-3.381c0.201-0.5,0.391-0.972,0.568-1.308l0.034-0.065L72.493,46.215z M71.553,46.497    c-0.322,0.05-0.699,0.1-1.039,0.1l0,0c-0.406,0-0.703-0.071-0.908-0.22c-0.522-0.376-0.589-1.328-0.583-1.862l0.004-0.226    l0.222-0.049c0.159-0.035,0.574-0.115,0.986-0.115c0.403,0,0.688,0.076,0.874,0.233c0.431,0.367,0.578,1.128,0.683,1.814    l0.044,0.281L71.553,46.497z"></path><path d="M70.234,44.695c-0.229,0-0.463,0.03-0.639,0.059c0.022,0.571,0.153,1.024,0.344,1.161c0.07,0.052,0.228,0.112,0.574,0.112    l0,0c0.211,0,0.444-0.023,0.669-0.053c-0.072-0.416-0.2-0.974-0.445-1.182C70.712,44.77,70.597,44.695,70.234,44.695z"></path></g><g><path d="M85.983,43.724l-0.019-0.041l-0.029-0.034c-0.573-0.646-2.601-2.756-4.65-2.756h-0.086l-0.071,0.047    c-0.674,0.44-1.17,1.378-1.325,1.866c-0.251,0.788-0.25,2.432,0,3.2l0.022,0.064l0.047,0.049c0.765,0.763,1.644,2.085,2.419,3.254    c0.164,0.249,0.322,0.487,0.472,0.708l0.076,0.113l0.135,0.012c0.029,0.003,0.061,0.004,0.091,0.004l0,0    c1.118,0,2.652-1.876,2.93-2.798C86.26,46.541,86.37,44.608,85.983,43.724z M82.741,45.1c-0.268,0.296-0.745,0.466-1.308,0.466    l0,0c-0.148,0-0.301-0.013-0.451-0.037l-0.198-0.032l-0.036-0.197c-0.144-0.761,0.028-1.581,0.401-1.908    c0.246-0.215,0.734-0.36,1.215-0.36c0.227,0,0.437,0.032,0.624,0.093l0.184,0.061l0.011,0.193    C83.209,43.811,83.254,44.536,82.741,45.1z"></path><path d="M82.364,43.603c-0.368,0-0.716,0.112-0.84,0.22c-0.151,0.133-0.299,0.618-0.245,1.167    c0.441,0.031,0.866-0.081,1.041-0.274c0.273-0.302,0.313-0.696,0.304-1.093C82.542,43.61,82.455,43.603,82.364,43.603z"></path></g></g></svg>