<svg xmlns="http://www.w3.org/2000/svg" xmlns:xlink="http://www.w3.org/1999/xlink" version="1.1" x="0px" y="0px" viewBox="0 0 100 100" enable-background="new 0 0 100 100" xml:space="preserve"><path d="M84.741,6.559c0,0,3.842,6.335-3.673,10.14c0,0-0.152,0,0-0.887c0,0,0.097-0.823-0.073-1.078  c0,0-1.883,1.011-5.48,0.761c0,0-0.313,1.137-0.395,2.785c0,0,0.081,1.651,0.395,1.715c0,0-0.942-0.505-1.02-0.636  c0,0,0.471,4.625,0,5.192c0,0-0.156-0.631-0.623-0.442c0,0,0.078,1.394-0.467,1.712c0,0-1.809,7.858-4.229,9.948  c0,0-4.383,4.435-5.47,6.085c0,0-2.039,3.291-1.016,3.864c0,0,3.201,1.393,3.827,2.029l0.234,0.823c0,0,4.537,0.952,2.271,3.737  c0,0,0-1.648-1.886-2.09c0,0,3.757,4.243,2.196,5.258c0,0-1.25,2.536-3.603,2.471c0,0,2.587-1.073,1.886-2.279  c0,0-1.65-0.51-1.65-1.52c0,0-1.587,2.278-3.569,2.47c0,0,2.786-1.588,1.771-2.662c0,0-1.247-0.124,0.548-3.165  c0,0,0.942-1.526-1.256-2.919c0,0-3.756-1.329-6.252-0.062c0,0-1.256,2.255-1.484,3.789c-0.236,1.53-0.314,0-0.314,0  s-0.156-2.075,0-3.407c0,0-0.704-0.505-1.958,0.254c0,0-0.784,4.495-2.035,6.083c0,0-1.406,9.249-2.889,10.327  c0,0-0.864-2.218-0.395-3.42c0,0-4.539,17.105-4.771,20.146c0,0,0.623-12.356,1.016-13.306c0,0-5.239,24.518-6.025,26.676  c0,0-1.017,2.596-1.64,3.104c0,0,0.704-12.735,1.953-16.79c0,0-2.972,12.354-5.942,14.887c0,0-0.864,0.89-1.643,1.015  c0,0-2.27-2.72,2.342-14.505l5.946-19.331c0,0-1.251,1.079-1.401,1.899c0,0-3.447,10.399-4.458,11.917c0,0-6.813,15.014-7.358,17.3  c0,0-2.347,1.966-1.958-1.144c0,0,6.339-15.712,6.81-16.534c0,0-9.859,19.133-11.734,19.383c0,0-1.485,0.124-1.175-1.2  l13.064-24.335c0,0,1.329-3.797,1.799-3.929c0,0-0.783,0-0.156-1.268l0.309-0.888c0,0-9.697,6.595-9.932,7.859  c0,0-1.482,0.506,0.939-3.609c0,0-4.458,3.169-4.849,3.55c0,0-1.73-0.569-1.216-2.471c0,0,3.013-4.632,4.342-5.329  c0,0-7.664,6.084-7.819,7.675c0,0-1.803-2.602,2.736-7.229c0,0,8.996-9.188,10.483-9.12c0,0,8.759-8.873,10.247-8.934  c0,0,1.097-3.231,1.563-3.618c0,0,1.876-9.627,4.463-12.482c0,0,4.845-6.081,7.978-9.37c0,0,3.679-5.71,6.573-7.671  c0,0-0.549-0.318-0.939,0.064c0,0,1.4-2.091,2.03-3.36c0,0,0.629-0.763-0.231-0.763c0,0,0.626-2.088,1.327-2.28  c0,0-1.171-0.314-1.407-0.063c0,0,5.163-1.896,7.274-3.292c0,0,3.6-2.535,9.703-2.093c0,0,10.25,0.632,9.349,3.297  C85.724,5.294,85.604,6.371,84.741,6.559z"></path></svg>