<svg xmlns="http://www.w3.org/2000/svg" xmlns:xlink="http://www.w3.org/1999/xlink" version="1.1" x="0px" y="0px" viewBox="0 0 100 100" enable-background="new 0 0 100 100" xml:space="preserve"><g><defs><rect id="b" width="100" height="100"></rect></defs><clipPath id="a"><use xlink:href="#b" overflow="visible"></use></clipPath><path clip-path="url(#a)" d="M59.198,10.189c0.6,0,2.394-0.45,2.599-1.397c0.366-0.73-0.185-1.566-1.634-2.485l-0.576-0.364   v0.681c0,0.932-0.418,2.426-0.759,2.995l-0.301,0.5l0.579,0.065C59.133,10.187,59.164,10.189,59.198,10.189 M60.289,7.303   c0.748,0.562,0.932,0.969,0.807,1.238c-0.078,0.344-0.774,0.652-1.318,0.803C59.999,8.758,60.2,7.992,60.289,7.303"></path><path clip-path="url(#a)" d="M49.545,46.646c14,6.167,23.875-5.083,23.875-5.083s-0.125-0.125-0.792-0.375   c-9.083,7.708-18.791,2.791-19.041,2.5C53.587,43.688,49.295,46.146,49.545,46.646"></path><path clip-path="url(#a)" d="M63.66,42.541c-4.125,1.333-6.208-1.083-6.208-1.083s-2.23,1.041-2.521,1.416   c3.406,2.688,9.219,1.188,9.021,0.667C64.087,43.312,63.827,42.541,63.66,42.541"></path><path clip-path="url(#a)" d="M71.837,35.312c1.312-0.5,1.162-1.331,1-1.937c-0.375,0.437-2.062,1.25-3.25,1.125   C69.899,34.812,71.024,35.687,71.837,35.312"></path><path clip-path="url(#a)" d="M75.295,36.562c0.833-0.458,0.958-1.042,0.333-1.833c-0.226,0.529-1.458,1.375-2.583,1.458   C73.462,36.562,74.128,37.145,75.295,36.562"></path><path clip-path="url(#a)" d="M66.64,36.332c1.081,1.396,3.761,0.852,4.072-0.394c-0.562,0.062-1.906-0.188-2.812-0.5   C67.649,35.905,67.096,36.166,66.64,36.332"></path><path clip-path="url(#a)" d="M81.254,22.771c-1.417-5.084-4.792-6.834-10.105-9.771c-1.398-0.812-2.628-0.77-2.961-0.875   c-0.231-0.072-1.771-1.833-3.637-2.899c0.376-1.517-0.718-2.202-1.211-2.501l-0.712-0.431l0.147,0.819   c0.091,0.493-0.002,2.199-0.938,2.741l-1.5,1l1.417-0.083c0.002,0,0.125,0.033,0.243,0.057c-0.033,0.936-0.425,2.323-0.753,2.868   l-0.301,0.501l0.58,0.065c0.021,0.002,0.042,0.003,0.066,0.003c0.665,0,2.622-0.891,2.812-1.771   c0.029-0.058,0.034-0.111,0.051-0.166c0.607-0.03,1.374,0.133,2.062,0.328c-0.908,0.466-1.686,1.238-2.24,2.219   c-0.738,1.311-1.972,1.698-2.187,3.729c2.375-2.042,3.417-1.667,3.417-1.667s2.569-0.299,4.083-0.083   c1.75,0.25,7.062,4.208,4.583,9.417c-1.123,1.269-3.603,2.308-4.969,2.957c-8.292,2.237-13.989,6.334-16.739,8.084   c-0.249,0.187-0.549,0.371-0.625,0.594c-0.307,0.897,0.687,1.969,0.687,1.969c0.564-0.433,7.938-7.688,17.284-9.943   c3.904-1.12,8.283,0.693,8.696,2.672c0.208,13.958-14.87,16.552-17.167,17.083c-5.188,1.157-11.813-1.218-13.208-1.958   c-0.355,0.24-1.209,1.458-1.209,1.458s1.261,1.688,6.562,2.222c-2.439,1.724-10.164,1.146-10.77,0.717   c-1.25-3.938,4.625-8.656,4.625-8.656c1.562-1.375,3.937-2.594,3.937-2.594s-0.718-1.531-0.625-2.25   c-2.432,1.158-4.403,4.793-4.446,4.82c-3.304,0.992-12.189,4.055-12.398,9.624c-0.01,0.259,0.107,0.535,0.287,0.757   c-4.356,1.324-7.111,3.091-8.328,8.576c-0.061,0.273,0.059,0.697,0.253,1.007c-2.805,1.615-7.686,5.142-7.368,10.028   c0.361,0.282,0.762,0.479,1.178,0.644c-1.295,1.123-3.724,1.724-4.422,1.665c-1.06-1.331-3.503-0.339-3.503-0.339l0.856,0.411   c1.36,0.893,1.232,2.904,1.232,2.904s1.641-0.661,1.689-2.308c0.776-0.272,2.222-0.475,3.494-1.24   c-1.802,1.579-3.447,3.861-3.586,7.138c1.158,0.455,2.319,0.665,3.46,0.704c-2.115,1.329-6.25,2.272-7.135,2.269   c-1.411-1.509-4.271-0.07-4.271-0.07l1.076,0.414c1.731,0.946,1.77,3.393,1.77,3.393s1.921-0.957,1.821-2.954   c1.125-0.499,4.495-0.847,6.82-2.333c-1.112,1.154-2.685,2.079-3.186,2.449c-1.522-0.579-3.352,0.607-3.352,0.607l1.247,0.48   c1.067,0.347,1.451,2.014,1.382,2.626l0.006,0.741l0.874-0.917c0.575-0.596,0.763-1.497,0.223-2.876   c0.634-0.322,1.936-1.226,3.002-2.257c-1.151,2.549-1.689,6.864-0.612,8.974c0.6,1.175,6.687,1.25,10.75-0.5   c10.39-2.864,11.897-14.453,12.096-16.775c4.971-4.943,6.369-10.684,6.566-11.599c3.854-3.282,5.702-6.479,6.432-8.029   c1.571-1.146,2.87-2.394,3.846-3.423c0.73,1.266,1.707,3.017,2.053,5.688c0.129,0.64-0.449,0.907-0.529,0.894   c-0.229-0.036-0.456-0.008-0.64,0.129c-0.18,0.135-0.23,0.319-0.262,0.552l0.25-0.123c1.021-0.563,4.652-0.33,5-0.095l0.106,0.041   c0.118,0.623,0.23,1.289,0.332,2.054c0.031,0.937-1.171,1.225-1.281,1.187c-0.316-0.104-0.718-0.046-1.011,0.105   c-0.285,0.146-0.328,0.324-0.427,0.645c0,0,0.719-0.312,2.197-0.27c1.563,0.166,2.917,0.333,4.208,0.958   c0.438,0.208,1.063,0.229,1.292,0.792l0.167,0.02c-0.125-0.708-0.146-0.645-0.334-1.02c-0.149-0.302-1.02-0.563-1.458-0.709   c-0.361-0.12-0.689-0.199-0.982-0.367c0.623-0.135,0.982-0.299,1.315-0.216c0.271,0,0.75,0.187,0.907,0.405h0.562   c0,0-0.386-0.53-1.323-0.76c-0.541-0.062-1.876,0.218-2.122,0.159c-0.315-0.076-0.774-0.305-0.878-0.618   c-0.555-5.076-1.553-8.18-2.061-10.223c8.716-3.453,12.887-7.925,14.686-11.027C82.17,34.521,82.67,27.854,81.254,22.771    M63.7,12.244c-0.084,0.37-0.873,0.839-1.475,1.091c0.217-0.594,0.409-1.35,0.488-2.024C63.137,11.529,63.854,11.912,63.7,12.244    M64.343,11.585c-0.262-0.39-0.785-0.681-1.203-0.898c0.423-0.136,0.862-0.371,1.145-0.766c0.627,0.2,2.017,1.204,3.282,2.276   C66.678,11.896,65.188,11.583,64.343,11.585 M10.915,88.124c-0.156-0.823-0.818-2.58-1.844-2.923   c0.779-0.375,2.332-0.123,2.587,0.851C11.888,86.721,11.372,87.432,10.915,88.124 M45.212,56.03   c0.662,0.433,1.924,0.417,2.414-0.254c0.18-0.246,0.27-0.631,0.305-0.886c0.125,0.015,0.213,0.368,0.234,0.406   c0.203,0.375,0.328,1.14-0.094,1.547c-0.437,0.562-1.174,0.826-1.667,0.877c-0.635,0.074-1.349-0.122-1.986-0.534   c-1.307-0.846-1.545-1.664-0.727-2.5c0.366-0.374,1.355-0.57,2.246-0.74c-0.286,0.101-0.542,0.213-0.691,0.365   C44.665,54.905,44.423,55.515,45.212,56.03 M35.295,51.104c2.779-4.578,7.008-5.837,9.292-6.478   c-0.785,0.665-1.391,1.341-1.855,2.003c-0.04,0.017-0.077,0.036-0.103,0.058c-0.159,0.135-0.762,0.34-1.109,0.405   c-0.207,0.039-0.428,0.072-0.653,0.106c-0.833,0.123-1.695,0.252-2.105,0.708c-0.586,0.652-0.983,1.714,0.459,3.074   c0.534,0.504,1.152,0.779,1.747,0.779c0.027,0,0.053-0.001,0.079-0.002c0.081-0.003,0.15-0.037,0.213-0.082   c-0.006,0.353,0.005,0.682,0.058,0.948l-0.023-0.02c-1.458,1.292-6.006,1.098-6.375,0.458   C34.781,52.819,35.023,51.552,35.295,51.104 M41.519,53.145c-0.003-0.001-0.005-0.001-0.007-0.002c0.001,0,0.003-0.001,0.005-0.002   L41.519,53.145z M40.374,49.688c0.296,0.283,0.674,0.345,1.039,0.253c-0.068,0.491-0.124,0.97-0.148,1.404   c-0.076,0.016-0.154,0.03-0.234,0.033c-0.509,0.028-1.067-0.219-1.55-0.675c-0.992-0.936-1.135-1.768-0.437-2.543   c0.312-0.347,1.11-0.473,1.829-0.58c-0.233,0.08-0.444,0.174-0.571,0.315C39.806,48.447,39.774,49.118,40.374,49.688    M39.978,66.147c-0.373,0.416-0.88,0.685-1.467,0.776c-0.756,0.128-1.622-0.058-2.409-0.5c-1.616-0.911-1.95-1.856-1.021-2.893   c0.34-0.38,1.19-0.646,2.068-0.872c0.075,0.008,0.149,0.015,0.226,0.02c-0.185,0.094-0.35,0.193-0.455,0.311   c-0.661,0.736-0.61,1.526,0.366,2.081c0.818,0.466,1.911,0.225,2.571-0.512c0.167-0.186,0.211-0.561,0.237-0.864   c0.007,0.051,0.034,0.205,0.04,0.256C40.239,64.782,40.357,65.725,39.978,66.147z M35.17,60.979   c-0.544-1.829-1.287-4.854-0.01-6.622c0.523,0.102,1.184,0.121,1.941,0.045c-0.112,0.07-0.227,0.139-0.31,0.23   c-0.664,0.738-1.114,1.941,0.52,3.483c0.606,0.572,1.306,0.884,1.981,0.884c0.029,0,0.059-0.001,0.089-0.004   c0.49-0.02,0.933-0.216,1.302-0.553c0.28,0.616,0.702,0.995,1.029,1.183c1.394,0.353,2.727,0.467,3.998,0.408   C41.898,61.513,37.199,61.713,35.17,60.979 M38.618,56.651c0.507,0.483,1.23,0.452,1.779-0.003c-0.033,0.525,0.02,0.976,0.13,1.356   c-0.317,0.349-0.719,0.544-1.164,0.562c-0.578,0.032-1.209-0.247-1.757-0.763c-1.125-1.062-1.287-2.005-0.496-2.885   c0.354-0.394,1.259-0.535,2.074-0.656c-0.265,0.09-0.503,0.197-0.647,0.356C37.975,55.244,37.939,56.005,38.618,56.651    M34.601,54.194c0.026,0.011,0.055,0.02,0.082,0.029c-0.49,0.646-0.819,1.343-1.021,2.049c-0.071,0.029-0.145,0.054-0.225,0.069   c-0.207,0.039-0.428,0.072-0.654,0.105c-0.833,0.123-1.694,0.252-2.105,0.708c-0.586,0.652-0.982,1.714,0.459,3.074   c0.535,0.504,1.152,0.779,1.748,0.779c0.026,0,0.052-0.001,0.078-0.002c0.223-0.009,0.518-0.034,0.772-0.103   c0.073,0.248,0.149,0.458,0.223,0.634c-1.922,1.016-6.802,1.075-6.746,0.398C27.601,57.211,32.17,55.036,34.601,54.194    M32.29,58.938c0.32,0.305,0.735,0.356,1.124,0.228c0.04,0.457,0.11,0.883,0.196,1.26c-0.202,0.12-0.424,0.192-0.662,0.203   c-0.51,0.028-1.067-0.219-1.551-0.675c-0.992-0.936-1.135-1.768-0.437-2.544c0.313-0.347,1.111-0.473,1.83-0.579   c-0.234,0.079-0.444,0.174-0.571,0.314C31.723,57.696,31.691,58.367,32.29,58.938 M28.304,66.554   c0.538,0.493,1.499,0.302,2.15-0.177c-0.152,0.357-0.238,0.654-0.284,0.894c-0.061,0.321-0.109,0.647-0.144,0.97   c-0.281,0.177-0.596,0.277-0.935,0.285c-0.633,0.024-1.32-0.271-1.912-0.81c-1.215-1.104-1.379-2.071-0.499-2.959   c0.393-0.396,1.386-0.527,2.279-0.639c-0.29,0.089-0.553,0.193-0.713,0.355C27.621,65.104,27.57,65.882,28.304,66.554    M26.639,63.843c0.2,0.054,0.458,0.083,0.739,0.101c-0.428,0.114-0.8,0.27-1.044,0.515c-0.738,0.744-1.248,1.97,0.518,3.572   c0.654,0.596,1.416,0.926,2.155,0.936c0.032,0.001,0.065,0,0.097,0c0.312-0.008,0.609-0.073,0.883-0.193   c-0.044,0.711-0.018,1.376,0.125,1.859c-2.01,1.354-7.068,2.133-9.254,1.68C22.034,67.49,24.368,65.041,26.639,63.843    M30.701,88.087c-0.378,0.579-0.925,0.965-1.584,1.115c-0.848,0.207-1.857-0.002-2.805-0.563c-1.945-1.153-2.433-2.414-1.492-3.855   c0.421-0.644,1.725-1.096,2.9-1.492c-0.368,0.198-0.693,0.415-0.865,0.677c-0.669,1.023-0.522,2.087,0.654,2.791   c0.986,0.59,2.205,0.214,2.875-0.811c0.168-0.258,0.176-0.767,0.172-1.177c0.013,0.068,0.061,0.275,0.074,0.343   C30.844,86.232,31.086,87.5,30.701,88.087z M27.914,75.373c-0.017,0.033-0.036,0.068-0.052,0.103   c0.019-0.079,0.035-0.159,0.05-0.234C27.911,75.268,27.912,75.32,27.914,75.373 M25.65,76.144c0.564,0.513,1.403,0.429,1.977-0.141   c-0.26,0.622-0.471,1.233-0.616,1.817c-0.196,0.084-0.407,0.132-0.628,0.139c-0.584,0.023-1.218-0.246-1.766-0.74   c-1.124-1.013-1.278-1.905-0.47-2.727c0.17-0.173,0.469-0.289,0.818-0.378c0.048-0.013,0.096-0.021,0.144-0.034   c0.357-0.079,0.755-0.136,1.138-0.185c-0.268,0.083-0.51,0.181-0.657,0.33C25.016,74.81,24.972,75.525,25.65,76.144 M20.297,74.262   c0.003,0.001,0.006,0.002,0.009,0.003c-0.017,0.013-0.034,0.027-0.051,0.04C20.268,74.29,20.284,74.276,20.297,74.262    M18.587,80.312c0.214-2.913,1.515-4.651,3.137-5.798c0.632,0.037,1.291-0.021,1.958-0.127c-0.587,0.699-0.875,1.763,0.634,3.123   c0.606,0.546,1.309,0.848,1.99,0.854c0.03,0,0.06,0,0.09-0.001c0.18-0.005,0.353-0.038,0.52-0.084   c-0.107,0.526-0.182,1.033-0.199,1.492C24.756,80.917,20.756,81.18,18.587,80.312 M21.587,91.062   c-0.751-0.629-2.524-4.84,0.284-8.289c1.776-0.369,3.442-1.096,4.892-1.955c0.084,0.619,0.269,1.113,0.553,1.411   c0.158,0.165,0.417,0.259,0.752,0.298c-0.159,0.056-0.309,0.111-0.473,0.166c-1.362,0.46-2.77,0.937-3.324,1.783   c-0.79,1.209-1.14,3.003,1.687,4.679c1.048,0.621,2.166,0.855,3.167,0.665c0.044-0.008,0.088-0.018,0.131-0.027   c0.833-0.191,1.522-0.675,1.995-1.397c0.515-0.788,0.262-2.117,0.016-3.401c-0.091-0.478-0.177-0.93-0.222-1.34   c-0.048-0.428,0.142-1.295,0.265-1.573c1.11-0.284,2.287-0.656,3.321-0.998c2.257-1.04,4.144-2.314,5.728-3.688   C37.634,85.938,34.084,93.573,21.587,91.062 M29.899,79.75c-0.882-0.228-0.991-4.518,1.898-8.056   c0.695,0.049,1.584-0.023,2.542-0.169c-0.435,0.188-0.802,0.411-1.026,0.709c-0.693,0.926-1.064,2.342,1.109,3.826   c0.806,0.55,1.689,0.794,2.498,0.694c0.035-0.005,0.071-0.011,0.106-0.017c0.676-0.109,1.251-0.461,1.666-1.015   c0.452-0.604,0.318-1.678,0.187-2.718c-0.049-0.387-0.095-0.751-0.11-1.081c-0.017-0.36,0.199-1.097,0.308-1.276   c0.072-0.118,0.275-0.37,0.429-0.606c3.181-1.428,5.741-3.047,7.79-4.675C45.065,72.52,37.187,79.108,29.899,79.75 M35.785,74.225   c0.758,0.523,1.752,0.284,2.339-0.5c0.148-0.198,0.18-0.604,0.198-0.932c0.007,0.055,0.035,0.223,0.042,0.277   c0.113,0.904,0.242,1.93-0.095,2.379c-0.332,0.443-0.789,0.725-1.324,0.812c-0.688,0.122-1.483-0.097-2.213-0.594   c-1.496-1.021-1.821-2.055-0.995-3.158c0.369-0.493,1.434-0.787,2.394-1.045c-0.305,0.141-0.576,0.296-0.726,0.497   C34.818,72.744,34.881,73.602,35.785,74.225 M32.129,69.187c-0.862-0.287-1.15-3.926,2.303-7.061   c0.332,0.157,0.892,0.296,1.566,0.399c-0.585,0.199-1.083,0.438-1.375,0.763c-0.779,0.868-1.216,2.184,1.131,3.506   c0.87,0.489,1.83,0.696,2.719,0.586c0.039-0.004,0.078-0.011,0.116-0.017c0.742-0.115,1.38-0.453,1.846-0.972   c0.509-0.567,0.385-1.556,0.265-2.512c-0.035-0.279-0.155-0.919-0.21-1.33c2.629-0.47,6.014-1.78,7.622-2.843   c2.06-0.466,3.909-1.357,5.512-2.405C50.131,63.784,39.054,69.068,32.129,69.187 M42.212,58.5   c-0.122-0.244-1.844-2.339-0.179-5.056c0.624,0.188,1.703,0.289,2.876,0.33c-0.667,0.157-1.265,0.354-1.589,0.685   c-0.686,0.701-1.106,1.797,0.792,3.025c0.704,0.455,1.495,0.674,2.24,0.621c0.033-0.002,0.066-0.005,0.098-0.008   c0.623-0.065,1.352-0.522,1.762-0.942c0.448-0.458,0.484-0.953,0.312-1.78C48.493,55,48.1,54.18,48.399,53.967   c0.404-0.287,0.961-0.431,1.135-0.56c1.931-0.421,3.784-1.137,4.782-1.924c1.393,0.106,2.854,0.129,4.397,0.125   C56.11,54.138,49.378,60.349,42.212,58.5 M64.273,59.763c-0.285-0.047-0.808,0.02-1.208-0.076c-0.258-0.062-0.57-0.104-0.792-0.187   c0.413-0.164,0.846-0.28,1.084-0.292c0.25-0.013,0.585,0.032,0.804,0.068C64.199,59.438,64.238,59.591,64.273,59.763    M64.123,59.114c-0.627-0.308-2.463,0.208-2.567,0.072c-0.961-1.244-1.287-5.945-1.578-7.294c0.15,0.289,0.396,0.726,0.649,1.05   C61.333,54.347,62.979,54.348,64.123,59.114"></path></g></svg>