<svg xmlns="http://www.w3.org/2000/svg" xmlns:xlink="http://www.w3.org/1999/xlink" version="1.1" x="0px" y="0px" viewBox="0 0 200 200" enable-background="new 0 0 200 200" xml:space="preserve"><polygon display="none" fill="#000000" points="-247.7,418.1 -67.1,418.1 -72.3,413.8 -112.7,370.7 -206.6,370.7 "></polygon><path d="M181,70.5c0,0,6.8,0.4,8-1.2c1.2-1.6,2.4-1.8,2-5.4s-4.4-3-5.2-2.4c-1,0.6-3.2,2-2,5.8c1.2,3.8,5.4,5,7.8,5.4  c2.4,0.6,3-0.8,3-0.8s-6.2-0.4-7.8-3.6c-1.6-3.2-0.4-4.2,0.2-4.4c0.6-0.2,1.8,0,1.8,0.8c0,0.8,0.4,3.4-2.8,3.6c-3.2,0-6.4-1-7.6-2.4  c-1.2-1.4-5-6.4-11.7-9.5c-6.6-3.2-7.6-3.8-9.5-4.4c-2-0.6-8.9-3.6-22.5,0.4c0,0-13.7-2.2-17.7-2.2c-4,0-5,0-10.5,0.4  c-5.6,0.4-29.6,0.2-32.8,0s-7.8,0.2-18.1,5s-16.1,6.8-23.5,14.9S25.3,84,25.3,84s0.2,2.4-2.2,1.2c-2.4-1.2-11.1,0-12.9,0  s-1.8-0.6-2-0.8C8,84.2,7,83.4,7,85s1.4,7.4,6,10.1c0,0,1.8,1.4,3.6,1.2c1.8-0.2,0,0.2,1.2-0.2c1.2-0.4,3.4-0.4,5.8,1.8  c0,0,0,4.6-2.6,6.2c0,0-0.4,0.2-1.2,0.4c-0.8,0.4-3.2,1.2-6,5.2c0,0-2-0.4-4.2,2.4c0,0-0.6,0.4-0.2,1.4c0.4,1,1.4,3.8,2,5  c0.6,1.2,0.8,1.4,0.8,1.4s0.2,0.4,0.8,0.4s3.6,0.2,5,0c0,0-1,0.6-1.4,1c-0.4,0.6-0.2,0.4,0,0.6s2.4,1.6,4,1.8c1.4,0.2,0.6,0.2,2,0.2  c1.4,0,5.2,0.2,7.6,0c0,0,1.2,1,3.8,1.2c2.6,0.2,7,0.2,8.5,0.4s12.9-0.8,15.9-3.4c0,0,1.2-0.8,1.4-2.2c0.2-1.4,2.4-3.6,2.4-3.6  s0.8-0.6,1.2-0.8c0.4-0.2,1.2-0.6,1.2,0.8c0,1.4-0.2,2,2.2,6.4l0.6,1c0,0-2.6,5.6-2.8,7.6c-0.2,2-1.8,3.6-2.2,3.8c0,0-1.4,2-2.4,4.6  c0,0,2.8,1.2,6,1.6h0.6c0,0-1.6,3-1.6,3.8c0,0,4.4,0.8,9.5-0.2c0,0,1.8-0.4,2.2-0.8c0.4-0.6,1-1,0.8-2.2c0,0,0.2-0.4,0.2-1.8  c0-1.6-0.2-11.7,0.2-13.1c0.4-1.4,2.6-8.4,2.8-10.3c0.2-2,0-2,0-2s-0.2-2,3.4-2s5.8,0,13.7,1.2c7.6,1.2,20.3,3.6,23.9,4.6  c3.8,0.8,5.4,1.2,5.4,1.2s6.4,1.8,12.7,0.6c6.2-1.2,5-1.2,5-1.2s0.2,0.6,1.2,2s4.2,5.4,3.6,7.4c-0.6,2-1.6,6.2-3.6,10.3  c0,0-0.2,0.4-0.6,0.8c-0.4,0.4-1,1.2-2.2,2.8c-1,1.6-3.2,4.4-3.6,5.4c-0.4,1-1,3-0.8,3.8c0,0,1.4,0.6,9.9,0l0.8-2.6  c0,0,2-1.6,2.4-2.4c0.4-0.8,1.4-2.2,1.4-2.2s0.2-0.2,0.4-1.6c0,0,0.2-2,2.2-5c2-3,1.4-3.6,1.4-3.6s-0.4-0.6,1.2-3.8  c0,0,0.4-0.8,1.6-2.2c1.2-1.4,2.6-3.4,2.6-3.4s0.8,2.4,0.8,3.6s0.2,1.8-0.6,3c-0.8,1.2-1.6,2-2.2,2.8s-1.6,2.6-1.8,3.4  c-0.2,0.8-0.2,1.6-0.2,1.6s0.2,0.4,0.4,0.4c0.2,0,6.4,0,7.6-0.8c1.2-0.8,1.4-1.6,1.4-1.6s0.8-1.4,0.8-2c0,0,1,0.2,1.4-0.8  c0.6-1,1.8-3.6,1.8-6.2c0-2.6,0-9.7,0.8-11.9c0,0,0-0.4,0.4-0.8c0.4-0.2,0-1.6-0.4-2.2c-0.4-0.6-0.6-1-1.4-2.2  c-0.6-1-1.2-3.2,0.4-8.2c0,0,3.4-3.6,4-6.4c0,0,3-7.8,4.2-17.9C181.4,79.6,182.8,74.5,181,70.5z"></path></svg>