<svg xmlns="http://www.w3.org/2000/svg" xmlns:xlink="http://www.w3.org/1999/xlink" version="1.1" x="0px" y="0px" viewBox="0 0 100 100" enable-background="new 0 0 100 100" xml:space="preserve"><path fill-rule="evenodd" clip-rule="evenodd" fill="#000000" d="M94.999,15.549c0,0,0.017-2.174-0.651-3.025  c-0.938-1.194-3.112-1.281-4.898-2.75c-2.274-1.87-3.246-3.664-6.943-3.772c-2.148-0.062-6.139,1.143-8.558,4.544  c-3.814,5.354-2.7,14.767-6.322,19.245c-4.611,5.696-5.17,6.313-7.253,8.162c-2.081,1.849-12.522,9.188-17.812,13.24  c-5.629,4.311-11.721,9.856-11.721,9.856s-15.484,4.28-17.968,8.929c-0.363,0.685,0.772,0.693,0.772,0.693s-0.104,0.584,0.079,0.847  c0.163,0.233,0.614,0.155,0.614,0.155s-9.623,5.6-9.331,6.388c0.409,1.105,7.916-2.103,14.576-4.081  c4.932-1.465,9.33-2.462,9.33-2.462l3.855-0.154c0,0,2.763,0.881,4.707,0.923c1.561,0.037,2.387-0.769,2.387-0.769  s4.018,2.587,8.174,3.927c3.852,1.239,7.866,1.23,7.866,1.23s0.483,2.174,1.469,3.772c0.901,1.473,2.312,2.387,2.312,2.387  s-1.09-0.037-1.699,0.385c-0.659,0.463-0.847,1.386-0.847,1.386s0.488-0.367,0.884-0.543c0.272-0.121,0.506-0.071,0.506-0.071  s0.192,0.654,1.08,0.692c0.885,0.038,1.773,0,1.773,0l2.158,2.232c0,0-1.031,0.305-2.236,0.229c-0.897-0.054-1.892-0.53-2.621-0.384  c-1.257,0.255-1.235,1.385-1.235,1.385s0.926-1.038,1.311-0.462c0.388,0.579,0.079,1.001,1.465,1.001  c1.389,0,4.552,0.426,6.017,1.23c1.466,0.811,3.622,1.54,3.622,1.54s0.138-0.483,0.199-0.956c0.055-0.45,0.034-0.888,0.034-0.888  s8.174,0.421,8.638-0.31c0.463-0.73,0.075-0.617,0.075-0.617s0.509-0.167,0.914-0.005c0.538,0.218,1.014,0.777,1.014,0.777  s0.13-1.278-1.386-1.541c-2.291-0.4-6.555,0.155-6.555,0.155s0.618-0.31,0.618-0.539c0-0.233,0.304,0,0.304,0  s0.852-1.539-0.384-1.539c-1.234,0-4.548,1.577-5.475,0.768s-2.082-2.308-2.082-2.308s5.321,0.538,5.708,0.538  c0.384,0,0.538,0,0.538,0l0.155,0.692c0,0,0.329-0.454,0.425-0.9c0.097-0.438-0.042-0.873-0.042-0.873s5.166-0.074,5.476-0.304  c0.308-0.234,0.308-0.692,0.308-0.692s0.447-0.013,0.881,0.204c0.414,0.208,0.818,0.643,0.818,0.643s-0.067-0.93-0.848-1.465  c-0.505-0.347-1.853-0.384-1.853-0.384s-2.796,0.258-4.857,0.284c-1.205,0.012-2.161-0.209-2.161-0.209s0.463-0.576,0.234-0.923  c-0.234-0.346-3.009,0.614-3.238,0.46c-0.233-0.15-4.974-4.77-4.397-5.851c0.579-1.076,23.446,0.176,26.988-19.861  c0.53-2.984,1.715-7.145,0.309-14.78c-1.08-5.884-2.778-12.597-4.085-17.555c-0.896-3.413-1.202-5.85,0.308-7.081  c2.117-1.731,3.707-2.053,5.301-1.915C93.469,14.632,94.999,15.549,94.999,15.549z M38.818,70.688  c2.182-0.339,8.566-0.773,8.566-0.773s0.33,0.038,1.853,0.076c1.524,0.036,7.411-1.235,7.411-1.235s-1.294-0.267-1.698-0.229  s-0.969,0.171-2.47,0.229c-1.507,0.058-2.066-0.539-2.396-0.693c-0.326-0.154-1.001-0.367-1.849-0.617  c-0.851-0.251-1.698-1.006-2.47-1.235c-0.772-0.233-0.868-1.214-1.777-1.543c-0.905-0.33-1.156-2.238-1.156-2.238  s-0.33-0.195-0.927-0.926c-0.601-0.733-0.233-6.404-0.233-6.404l-1.39,0.922c0,0-0.288,0.1-0.693-0.464  c-0.404-0.56,1.619-1.464,1.619-1.464s-0.25-0.134-0.309-0.229c-0.054-0.101,0.601-0.955,0.843-1.147  c0.275-0.213,0.547-0.426,0.818-0.635c0.81-0.616-0.864,1.652-0.735,1.782c0.13,0.125,1.569-0.593,1.778-0.388  c0.204,0.203-0.18,1.055,0.771,3.242c0.952,2.187,7.127,6.996,10.495,9.104c3.371,2.112,9.338-1.001,9.338-1.001  s-1.181,0.31-2.699,0.23c-1.52-0.075-2.779-1.694-2.779-1.694s-0.413,0.691-3.859-1.235c-3.447-1.932-2.854-2.779-2.854-2.779  s-0.542,0.204-2.316-1.623c-1.773-1.823-3.087-5.633-3.087-5.633s-2.107,0.078-2.083-0.384c0.025-0.464-0.226-0.784,0.789-1.536  c5.625-4.16,13.794-9.994,15.56-11.558c1.85-1.64,5.045-5.512,5.767-6.318c0.375-0.417,0.175,0.363,1.424,1.427  c1.363,1.168,5.132,2.12,8.027,4.244c5.633,4.144,11.977,10.01,13.925,8.107c0.492,1.569-0.447,7.494-0.844,9.744  C85.631,75.85,62.764,73.747,62.185,74.827c-0.576,1.077,1.022,3.191,1.252,3.347c0.233,0.153-0.789,0.597-0.463,1.31  c0.33,0.714-0.326,2.992-1.08,3.397c-0.752,0.404-1.521-0.355-1.521-0.355s-1.405-0.605-2.311-2.078  c-0.98-1.599-1.619-4.854-1.619-4.854s-4.557,0.394-8.409-0.846c-4.156-1.335-8.174-3.849-8.174-3.849s-1.135,0.728-2.695,0.693  c-1.944-0.042-3.672-0.831-3.672-0.831S36.193,71.093,38.818,70.688z"></path></svg>