<svg xmlns="http://www.w3.org/2000/svg" xmlns:xlink="http://www.w3.org/1999/xlink" version="1.1" x="0px" y="0px" viewBox="-273 455 100 100" style="enable-background:new -273 455 100 100;" xml:space="preserve"><g><path d="M-194.2,504.3c0.1-0.4,0.4-0.7,1.1-0.9c0.2-0.5,1.4-2.8,3.4-3.2c1.4-0.3,2.8,0.4,4.3,2l0.1,0.1l0.5-1.6   c0.5-3.7-3-5.8-4.9-7c-0.8-0.5-3-1.2-5.4-1.2c-1.5,0-3.1,0.3-4.4,1c-0.5,0.1-1.1,0.2-1.7,0.3l-8.4-1.6c-6.4-1.9-20.7-1.7-30.1,8.1   c-9.4,9.9-21.3,8.2-21.3,8.2s-9.9-0.1-2.9,4.2c7,4.3,18.3-4.3,22.2-1.5c0.1,4.9-2.9,6.3-2.9,6.3c2.8-0.8,3.4,0,3.5,0.4   c0,0.1,0,0.2,0,0.2c0,0,1.4-2.1,2.7,0c0,0,2-1.7,3.2,0c1.2,1.6-0.4-5.7-1.5-6.3c0.6,0.1,2.5,0.5,5,0.8c-0.1,0.5-0.3,1-0.6,1.3   c-0.5,0.8-1,1.1-1,1.1c2-0.8,2.5-0.2,2.7,0.1c0,0.1,0,0.2,0,0.2c0,0,0.9-1.7,2-0.2c0,0,0.8-0.8,1.6-0.7c0.3,0,0.6,0.2,0.8,0.5   c0.5,0.6,0.3-0.5-0.1-1.7c4.5,0.2,9.5-0.1,12.8-2c0,0,2.4,5.1,0.4,7.1c-2,2,3.4-2.2,3.8,0c0,0,1.7-1.5,3.6-0.2c0,0,0.6-2.1,2.5-2.1   s-8-2.7-3.9-5.1c4.1-2.4,3.9,3,3.8,3c-0.1,0,3.2-1.4,4.5,0.4c0,0,0.6-2.2,2.6-2c2,0.3-6.3-1.9-3.3-4.3c1.1-0.9,1.6-1.3,1.9-1.5   c2,0.9,3.9,1,3.9,1l2,0C-192.3,507.1-194.4,505.5-194.2,504.3z M-194.7,500.2C-194.6,500.2-194.6,500.1-194.7,500.2   c0.2-0.9-0.4-1.8-1.2-1.9c-0.8-0.2-1.7,0.4-1.8,1.2c-0.1,0.3,0,0.6,0.1,0.8c-0.9-0.3-1.8-1-2.1-2c0,0,4.3-2.1,5.4,0.4   C-194.1,499.4-194.3,499.9-194.7,500.2z M-180.9,507.6c-0.9-0.5-2.4-2.1-3.4-3.4l-1.5-1.6c-1.4-1.5-2.7-2.1-3.9-1.9   c-2,0.4-3.1,3-3.1,3l0,0.1l-0.1,0c-0.5,0.1-0.8,0.3-0.8,0.6c-0.1,0.7,1.4,2.1,2.5,2.8c0,0,2.5,1.5,3.7,2.2c3.5,1.2,6.5,0.4,6.5,0.4   C-177.6,508.9-180.9,507.6-180.9,507.6z M-184.5,507.2c-0.1,0-0.2-0.1-0.3-0.4c0-0.2,0-0.4,0.2-0.4c0.1,0,0.2,0.1,0.3,0.4   C-184.3,507-184.4,507.2-184.5,507.2z M-183.2,506.4c-0.1,0.1-0.3,0.1-0.4-0.1c-0.2-0.1-0.2-0.3-0.1-0.4c0.1-0.1,0.3-0.1,0.4,0.1   C-183.2,506.1-183.1,506.3-183.2,506.4z"></path></g></svg>