<svg xmlns="http://www.w3.org/2000/svg" xmlns:xlink="http://www.w3.org/1999/xlink" version="1.1" x="0px" y="0px" viewBox="20.865 20.865 100 100" enable-background="new 20.865 20.865 100 100" xml:space="preserve"><path fill="#000000" d="M102.943,63.166c0,0-1.352-1.333-2.634-3.456c0,0-2.413-4.423-9.294-5.633c0,0-1.425-13.505-12.443-16.379  c0,0-1.724,12.083,7.091,17.782l-1.105,0.879c0,0-5.805-10.824-17.441-10.854c0,0,1.557,11.266,14.274,15.246  c0,0-0.639,3.296-0.476,3.928c0,0,0.267,3.632-5.274,2.253c0,0-16.002-5.596-25.293,8.254c-1.877,2.797-1.78,3.81-1.78,3.81  s0.074-0.491-3.005-0.48c-4.558,0.015-7.798,3.542-7.77,7.141c0.029,3.719,2.713,7.88,7.584,7.842  c4.564-0.035,4.396-1.528,4.396-1.528s0.337,3.938,5.821,7.571c2.53,1.676,4.024,1.9,4.024,1.9c-1.549,1.452,0.15,2.591,0.15,2.591  s5.86-0.001,6.521-0.057l16.193-0.126c0,0,2.906-1.998-2.249-4.802c0,0-4.115-0.995-7.115-0.655c0,0,7.257-1.479,8.501-3.779  l4.167,9.187l5.879-0.104c0,0,1.462-2.456-0.604-4.021c0,0-1.428-0.542-2.138-0.535c0,0-0.239-0.474-0.086-0.946  c0,0,0.973-6.881,0.646-8.222c0,0,10.455-6.639,8.176-15.468c0,0-0.419-2.919,1.783-4.28c-0.002-0.079,0.076-0.079,0.076-0.079  s3.55-0.896,3.995-4.455C103.515,65.688,104.774,64.89,102.943,63.166z"></path></svg>