<svg xmlns="http://www.w3.org/2000/svg" xmlns:xlink="http://www.w3.org/1999/xlink" version="1.1" x="0px" y="0px" viewBox="0 0 100 100" enable-background="new 0 0 100 100" xml:space="preserve"><g><g><path fill="#000000" d="M0.997,52.609c-0.229,0.713-0.594,2.273,0.515,1.75c-0.08,2.815,0.322,1.893,1.427-0.041    c0.556-1.308-0.404-1.914-0.241-3.064c0.13-0.918,0.194-1.874,0.268-2.798c0.359,2.487,1.409,4.879,2.387,7.178    c-0.613,0.97-0.346,2.242-0.562,3.314c-0.221,1.084-0.802,2.046-1.263,3.036c-1.001,1.759,0.47,2.951,0.477,2.951l2.187,2.51    c0.344,0.44,0.22,0.998,0.221,0.998L5.906,70.26c-0.114,1.428-0.351,2.457,1.431,2.553c1.394,0.07,2.795,0.039,4.189,0.019    c1.162-0.019,6.787,0.493,7.394-0.724c0.794-0.859-2.011-2.02-2.626-2.242c-1.401-1.686-1.64-3.26-1.88-5.389    c-0.283-2.498-0.696-6.236,0.69-8.494c1.951-1.92,2.883-4.154,2.935-4.277c0.715,0,2.168,2.18,2.646,2.686    c3.172,4.197,11.802,5.823,12.195,5.896c3.07,0.217,6.156,0.155,9.218-0.154c1.636-0.166,4.148-1.132,5.721-0.89    c0.094,3.021-0.845,5.73-0.395,8.781c0.192,1.307,0.067,2.031-0.699,3.062c-0.764,1.025-1.105,1.632,0.468,1.656    c1.602,0.023,10.834,0.777,11.061-0.598c0.104-0.896-0.596-1.508-1.352-1.807c-0.758-0.3-0.703-0.898-1.234-1.52    c-0.552-1.899,0.518-5.635,1.527-7.273c0.632-1.021,1.061-4.479,2.277-5.018c1.395-0.31,2.646-0.902,4.055-1.188    c0.931-0.188,1.428-1.134,2.305-1.29c1.354-0.24,2.18-0.15,3.031-1.535c0.199-0.166,0.377-0.186,0.533-0.054    c0.617,1.847,2.021,2.817,2.27,2.979c3.201,3.688,7.848,5.476,12.652,4.561c3.317-1.07,3.408-3.586,3.383-4.175    c0.275-0.354,0.41-1.122,0.463-1.495c3.066-1.902,4.285-4.5,6.504-7.046c2.262-2.595,4.204-5.965,4.154-9.503    c-0.074-0.763-0.67-0.886-1.055-0.267c-1.229,2.612-2.461,5.348-4.963,6.989c-0.988,0.812-2.195,1.292-2.188,1.292    c-1.007,0.242-1.837-0.139-2.798,0.429c-0.5,0.295-1.687,0.774-1.592-0.248c0-2.199,2.021-3.773,2.28-5.921    c0.244-1.093-0.897-1.577-1.569-0.715c-0.785,1.006-1.412,1.942-2.401,2.795c-0.955,0.586-2.205,1.203-3.354,0.875    c-0.218-0.137-1.709-1.762-2.711-2.882c-0.904-0.905-0.988-2.945-1.593-4.065l0.742-0.148c1.729-0.404,2.11-1.548,2.187-1.866    c0.516-0.581-0.08-1.324-0.093-1.301c0.011-0.032,0.088-0.123,0.228-0.188c0.731-0.184,1.041-2.047,1.041-2.313    c0.144-1.051-0.959-0.458-1.438-0.436c-0.882,0.111-1.54,1.525-2.438,1.888c-1.008,0.408-1.815,1.228-2.894,1.477    c-0.161-0.096-0.502-0.21-1.264-0.293c0.03-0.717,0.049-2.01-0.931-1.478c-0.488-0.861-2.99-3.039-4.059-3.407    c-1.646-0.569-3.312-0.825-5.018-0.578c-0.437,0-1.612,0.853-2.133,1.246c-2.619,0.938-4.631-0.359-7.188-0.359    c-2.369,0-4.488,1.205-6.8,1.54c-4.825,0.7-10.297-0.02-14.961-1.294c-4.579-1.251-9.965,0.805-14.652,0.888    c-3.448,0.061-6.652,0.229-8.837,3.268c-4.289,3.833-5.778,7.782-5.835,7.936C0.911,44.391,2.25,48.731,0.997,52.609    C0.814,53.178,1.049,52.449,0.997,52.609z"></path></g></g></svg>