<svg xmlns="http://www.w3.org/2000/svg" xmlns:xlink="http://www.w3.org/1999/xlink" version="1.2" baseProfile="tiny" x="0px" y="0px" viewBox="0 0 32 32" xml:space="preserve"><path d="M29.139,7.532c1.049,0.534,0.634,1.154,0.634,1.154c-0.073-0.15-0.316-0.107-0.316-0.107  c-0.658,0.042-1.121-0.149-1.121-0.149c-0.146,0,0.024,0.47,0.365,1.025c0.341,0.555-0.22,1.217-0.78,1.26  c-0.561,0.042-0.585-0.791-0.585-0.427c0,0.363-0.243,0.021,0.634,3.417c0.878,3.396-0.683,6.622-2.34,7.583  c-1.658,0.961-4.827,2.179-4.827,2.179s-0.146,0.704,0.22,1.836c0.365,1.133,2.315,0.428,2.853,0.449  c0.536,0.021-0.146,0.342,0.121,0.342c0.269,0,1.024,0.299,1.024,0.299c0.634,0.342,0.365,0.982,0.365,0.747  c0-0.234-0.171-0.299-0.414-0.256c-0.244,0.043-1.755,0.085-2.292-0.106c-0.536-0.192-1.608-0.406-1.048-0.107  s0.561,1.004,0.561,1.004c0-0.363-0.683-0.513-0.683-0.513s-0.024-0.085-0.39-0.106c-0.366-0.021-0.609-0.534-0.609-0.79  c0-0.257-0.634,0.277-0.805,0.277s-0.171,0.32-0.171,0.32c-0.121-0.171-0.146-0.299-0.146-0.299  c-0.049-0.235,0.414-0.619,0.658-0.833c0.243-0.214,0-0.705-0.098-0.919c-0.098-0.213,0.049-1.174,0.049-1.003  c0,0.17-1.926,1.195-2.438,1.388c-0.512,0.192,0.195,1.901,0.464,2.563c0.268,0.662,1.853,0.234,2.413,0.256  s0.634,0.406,0.634,0.406s-1.828-0.064-1.901-0.064s0.878,0.171,1.39,0.128s1.243,0.171,1.243,0.171  c0.999,0.385,0.536,0.812,0.536,0.812c0-0.32-0.683-0.384-0.683-0.384s-0.487,0.213-1.121,0.149c-0.634-0.064-1.95-0.406-1.95-0.406  l0.536,0.513C19.461,29.68,19.096,30,19.096,30c-0.024-0.577-0.512-0.556-0.999-0.705c-0.488-0.149-0.488-0.684-0.609-0.833  c-0.122-0.149-0.707,0.556-0.951,0.556s-0.171,0.32-0.293,0.149c-0.121-0.171,0.049-0.214,0.049-0.214  c-0.097-0.448,0.683-0.812,0.683-0.812s-0.024-0.513-0.121-1.089c-0.098-0.577-0.391-1.863-0.391-1.863  c-0.487-0.483-0.715-1.141-0.715-1.141c-2.503-1.623-2.664-3.131-2.664-3.131c-1.821-0.799-1.626-1.995-1.626-1.995  c-1.104,0.313-0.65,1.738-0.65,1.738c-1.17-1.423-0.098-3.104-0.098-3.104c-1.106,0.427-1.397,1.936-1.397,1.936  c-0.714-3.332,0.975-3.845,0.975-3.845c-1.787,0-2.145,1.938-2.145,1.938c-1.007-2.619,1.138-3.933,1.138-3.933  c-1.755-0.056-2.503,1.708-2.503,1.708C5.9,11.833,9.963,12.23,9.963,12.23c-1.43-1.025-4.714,0.029-4.714,0.029  c0.488-3.075,4.648-1.738,4.648-1.738C7.98,8.671,3.56,9.81,3.56,9.81c2.048-3.417,6.338-1.367,6.338-1.367  C7.818,5.566,2,7.845,2,7.845C2,6.364,4.177,4.57,7.297,4.371c3.12-0.2,5.606,1.943,6.85,5.146c1.243,3.204,1.877,3.994,4.021,4.058  c2.146,0.064,2.755-1.965,3.804-4.634c1.048-2.669,3.851-2.669,3.851-2.669c-0.268-0.641-0.194-1.751-0.17-1.901  s0.585,0.085,0.536-0.192s0.585-0.256,0.683-0.256s0.316,0.555,0.316,0.833s0.513,0.299,0.683,0.128  c0.171-0.171,0.439-0.363,0.585-0.043c0.146,0.32,0,0.449,0.342,0.662c0.341,0.213,0.414,0.299,0.609,0.491  s-0.269,0.214-0.146,0.513s0.731,0.149,0.414,0.384c-0.316,0.235-0.706,0.513-0.706,0.513L29.139,7.532z"></path></svg>