<svg xmlns="http://www.w3.org/2000/svg" xmlns:xlink="http://www.w3.org/1999/xlink" version="1.1" x="0px" y="0px" viewBox="0 0 100 100" enable-background="new 0 0 100 100" xml:space="preserve"><g><polygon points="87.486,38.848 87.486,39.86 91.141,41.506 92.082,41.072 93.66,36.626 93.291,35.692 90.023,34.798 89.004,35.381     "></polygon><polygon points="89.667,33.31 90.16,29.589 90.75,28.607 94.244,28.768 94.735,29.842 94.321,34.145 93.424,34.798 90.3,34.13  "></polygon><polygon points="90.312,27.315 89.366,24.014 89.667,22.482 93.221,21.525 93.958,22.249 94.917,26.899 94.302,27.824    90.892,27.824  "></polygon><polygon points="89.142,21.725 92.981,20.606 92.97,19.411 90.775,16.627 89.933,16.492 87.39,17.624 87.127,18.449 88.443,21.295     "></polygon><polygon points="86.634,17.031 89.499,15.42 85.777,13.168  "></polygon><polygon points="84.89,13.504 85.536,17.379 80.643,25.201 76.647,26.899 79.728,23.624 78.643,19.107 80.491,15.281  "></polygon><polygon points="84.006,56.586 81.58,55.979 81.263,54.044 76.717,49.03 73.346,49.03 70.356,50.736 67.441,50.399 64.723,51.604    61.343,50.866 57.14,52.166 53.066,51.761 48.993,52.946 44.862,53.235 41.931,54.202 38.896,53.466 33.653,51.992 21.833,49.375    14.039,51.465 5.083,57.821 18.776,53.199 16.061,57.128 9.186,60.305 18.834,59.092 27.211,56.203 32.7,55.372 37.004,57.511    33.364,60.805 38.595,59.848 39.46,60.659 35.214,63.866 42.073,64.772 42.696,69.066 39.721,71.579 34.174,71.666 29.168,69.087    20.827,67.968 11.496,70.539 6.73,72.099 15.627,73.226 23.08,77.299 13.576,78.253 6.036,75.479 13.548,81.546 31.746,82.238    44.313,75.651 49.658,67.506 53.935,66.561 58.959,71.146 62.167,81.025 66.24,86.832 64.593,80.592 63.379,70.278 60.607,66.119    63.813,65.6 68.06,68.408 71.613,76.952 76.207,81.459 73.554,76.069 71.093,67.333 68.146,64.386 70.746,62.999 75.868,64.208    80.742,73.082 84.67,74.555 82.013,72.302 77.564,62.363 74.733,60.485 78.287,58.926 83.226,59.013 86.462,64.964 90.853,66.234    87.646,63.779  "></polygon><polygon points="82.577,53.51 83.958,53.203 87.098,49.825 87.088,48.855 82.359,45.21 81.32,45.406 77.922,47.692 77.396,48.723     "></polygon><polygon points="86.969,40.406 86.058,40.871 83.185,43.591 82.73,44.626 87.486,47.919 88.615,47.395 91.141,43.673    90.853,42.373  "></polygon></g></svg>