<svg xmlns="http://www.w3.org/2000/svg" xmlns:xlink="http://www.w3.org/1999/xlink" version="1.1" x="0px" y="0px" viewBox="0 0 100 100" enable-background="new 0 0 100 100" xml:space="preserve"><g><path fill="#000000" d="M96.375,63.438L93.062,63.5l2.438-0.625c0,0-2-0.688-4.938-0.562c0,0,3.625-0.188,3.5-0.812   s-0.812-1.5-3.938-2.25S87,58.5,87,58.5s-1.625-2.562-6.312-3.188c0,0-1.625-2.562-7.5-5c0,0,1.812-0.188,0.938-0.438   S72,49.375,72,49.375s2.438,0.375,1.625-0.188c0,0,4.375,1.875,3.875,1.312s-3.562-2.875-9.938-4c0,0-0.25-1.125-1.062-1.375   c0,0,0.898,0.141,1.084-0.257c0.035-0.038,0.079-0.064,0.104-0.118c0.277-0.616-0.634-1.343-1.852-2.004   c0.109-0.123,0.131-0.33,0.039-0.652c-0.245-0.856-1.897-1.752-3.307-2.375c-0.27-0.59-0.761-1.274-1.649-1.934   c1.582,0.39,2.943,0.449,1.894-0.66c-2.449-2.141-5.17-3.25-7.433-3.827c-0.867-0.562-2.465-1.309-4.036-1.642   c-1.492-0.316-3.131-0.228-4.282-0.09c-7.024-0.917-8.005-1.823-8.312-2.129c-0.312-0.312,1.5-9.062-0.5-13.188   S33.375,8.5,27.062,8.875S19.438,14.188,19,15.188c0,0-2,2.906-4,3.906S8,19,7,26h1c0,0,1.344-1.625,3.344-1.656   c0.656,0,3.719-2.155,6.011-2.03c0.562,0.021,4.75,1.792,5,2.229s0.062,0.396-0.646,1.396s-1.188,2.042-1.188,2.042   S14,41.031,23.625,54.469c5.438,7.812,11.188,8.609,13.25,9.609s3.562,3.43,3.625,4.492s0.5,1.184,0.5,1.184s-0.25,2.121-0.5,2.621   s0.312,1.375,0.188,2.375s-0.5,9.188-1.25,9.812S39,85.5,39,85.5s-1.438,0.5-3.25,0.562s-1.5,0.562-2.625,0.688s-2,0.438-2.875,0.5   s-1.5-0.312-2.125,0s-1.188,0.938-0.875,1.062s0.312,0.125,0.312,0.125s0,0.5,0.625,0.438s1.062-0.25,2.062-0.188   s4.188-0.375,6.75,0.062c0,0,0.312,0.438,1,0.312c0,0,0.125,0.5,1.125,0.438s3.125-0.188,6.562,0.5s3.875,0.875,3.812-1.438   c-0.125-0.438-0.125-0.438-0.125-0.438s0.438,0.188,0.25-0.312s-0.312-3.562-0.188-6.312s0.5-4.438,1.062-5.938   S51.021,73,50.583,72.25C50.146,71.5,50,70.625,50,70.125c0-0.053,0-0.09,0-0.125c0,0,0.104-1.125,0.229-2.312   s1.322,1.188,8.322-0.625c0-0.062,3.475,0.75,6.787-1.562c0.062,0,3.049,0.5,5.799-0.938c0.062,0,3.869,0.938,9.057,0.25   c-0.062,0.062,5.527,1.812,6.527,0.312c-0.062-0.062,3.077,0.75,3.765,0.125l-2.739-0.812c0,0,2.251,0.312,2.313,0.125   s0.064-0.188,0.064-0.188s4.562,0.5,6.062,0.188S97.312,63.438,96.375,63.438z M47.708,73c-1,1.125,0.208,2.291,0.208,3.208   s0.125,8.125-1.5,10.5c-0.292,0.334-0.125,0.5-0.125,0.5s-1.625,0.75-4.333,0.25c0,0,0.708-0.624,0.625-1.291s0-1.084,0-1.084   s0.708,0,0.375-0.583S42,83.833,42.333,79.458s1.125-4.666,1.125-5.166s0.292-1.583,0.25-2.25s-1.167-2.833-1.208-3.5   s0.25-0.959,0.875-1.209s2.75-0.125,3.708,0.75c0,0,0.417,1.209,1.417,2.167C48.5,70.25,48.708,71.875,47.708,73z"></path><path fill="#000000" d="M71.882,59.937c-0.161-0.335-0.382-0.593-0.382-0.593S71.622,59.652,71.882,59.937z"></path><path fill="#000000" d="M88.094,62.438c-1.688,0.25-5.375-0.219-5.438-0.25c-0.634,0.066-1.663,0.038-2.727-0.026   c1.415,0.466,2.39,1.21,0.529,1.839c-2.958,1-8.292-1.083-8.292-1.083s0.458,0.166,0.583,1s-4.375-0.167-4.375-0.167   c4.125-0.042,2.167-1.917,2.167-1.917c0.263-0.143,0.527-0.251,0.791-0.341c-0.226-0.033-0.364-0.055-0.364-0.055   c1.279-0.193,1.176-0.952,0.913-1.501c0.269,0.296,0.686,0.565,1.274,0.438c1.156-0.25-0.438-1.438-0.438-1.438   s0.469,0.344,2.531,0.719s1.781-1.156,1.781-1.156s0.406,0.719,2.625,1.188S79.5,57.594,79.5,57.594s2.062,1.125,2.812,0.688   s-1.781-2.562-1.781-2.562C82.219,56.031,83,56.812,83,56.812c2.531,0.062,4.062,2,4.062,2c1.438-0.125,2.062,0.625,2.062,0.625   c3.125,0.438,3.781,1.312,4.219,1.75s-1.562-0.031-1.562-0.031s0.25,0.094,0.094,0.594s-4.188,0.062-4.188,0.062   S89.781,62.188,88.094,62.438z M81.625,62.5c0,0,2.458,1.208,0.25,2c0,0,4.125,1.292,4.542-0.333S81.625,62.5,81.625,62.5z    M96.792,63.833l-4.25-0.166L94,62.875c0,0-0.916-0.416-4.833-0.333c0,0,0.333,0.458-1.417,0.583c0,0,2.042,1,5.917,1.25   S96.792,63.833,96.792,63.833z"></path><path fill="#000000" d="M26.292,16.774c-0.234,0-0.44,0.086-0.625,0.204c-0.211,0.044-0.369,0.209-0.402,0.425   c-0.091,0.168-0.157,0.351-0.157,0.555c0,0.652,0.531,1.183,1.184,1.183c0.652,0,1.183-0.531,1.183-1.183   C27.475,17.305,26.944,16.774,26.292,16.774z M26.292,18.858c-0.497,0-0.9-0.404-0.9-0.9c0-0.037,0.017-0.068,0.021-0.104   C25.506,17.943,25.632,18,25.771,18c0.288,0,0.521-0.233,0.521-0.521c0-0.154-0.07-0.29-0.177-0.385   c0.059-0.013,0.114-0.036,0.177-0.036c0.496,0,0.9,0.404,0.9,0.9C27.192,18.454,26.788,18.858,26.292,18.858z"></path></g></svg>