<svg xmlns="http://www.w3.org/2000/svg" xmlns:xlink="http://www.w3.org/1999/xlink" version="1.1" x="0px" y="0px" viewBox="0 0 100 100" enable-background="new 0 0 100 100" xml:space="preserve"><g><path fill-rule="evenodd" clip-rule="evenodd" fill="#000000" d="M2.593,55.759v6.898c0,0.686,0.348,2.234,0.517,2.582   c0.169,0.525,1.037,2.064,1.896,3.444c1.033,1.211,0.347,2.075,0.173,2.929c-0.342,0.864-0.511,2.244-0.511,3.107v9.659   c0,0.516,0.511,0.685,1.032,0.685l-0.173,2.413c0.859,0,1.722-0.338,2.586-0.338c0.685-0.169,1.38-0.704,2.065-0.864   c-0.347-0.694-0.859-1.38-1.549-1.718c-0.516-0.178-0.169-0.694-0.169-0.694c0.169-2.929,0.512-5.867,0.859-8.795   c0,0,0-1.211,0.859-1.896c0.864-0.694,2.413-1.728,2.413-1.728s0.521-0.507,0.864-0.178c0.342,0.178,0.342,0.525,0.342,0.873   c0.179,0.338,1.211,6.552,1.211,6.552s1.037,4.478,1.206,5.003c0.174,0.507,0.174,0.507,0.686,0.507   c0.525,0.179,0.868,0,1.042,0.517c0.169,0.516,0.338,1.389,0.338,1.389l0.348,1.202c0.521-0.517,1.379,0,1.9-0.338   c0.512-0.179,0.686-0.357,1.206-0.535c0-0.507-0.347-1.202-0.347-1.371c-0.174-0.507-0.695-0.507-0.859-0.685v-0.517   c-0.348-1.905-0.689-3.971-1.216-6.036c0-2.064,0-4.139-0.164-6.383c0.164,0-0.174-3.792,2.412-5.172   c2.239-1.032,3.103,0,4.825,0.348c1.9,0.347,7.073,1.727,15.174,1.727s8.964-1.042,10.512-0.694   c1.033,0.348,1.901,1.728,2.934,2.76c1.032,1.201,1.032,2.243,1.032,2.76s-0.689,4.14-0.858,4.824   c-0.521,1.549-0.521,6.026-0.521,6.026c0.347,0.179,0.689,0.357,1.206,0.535c0,0.676,0,1.549,0.173,2.413   c0.69,0.338,1.723,0.507,2.413,0.507c0.689,0,1.385-0.864,2.069-1.202c-0.169-0.863-1.032-2.581-1.38-3.106   c-0.343-0.695-0.169-0.864-0.169-1.033c0,0,0-2.074,0.169-2.76c0-0.516,0.695-3.613,0.864-4.308   c0.347-0.695,0.863-2.591,1.549-3.455c0.863-0.676,1.727-1.022,1.727-1.022c0.348,3.267,0.348,11.714,0.348,12.578   c0,0.694,0.686,1.032,1.032,1.211c0.517,0.178,1.032,1.201,1.206,2.056h4.304c-0.164-1.202-0.685-3.089-0.685-3.089   s-1.549-1.905-1.549-2.074c-0.179-0.169-0.179-0.686-0.179-0.863c0.179,0,0.694-7.754,0.694-8.101c0-0.348,0.343-2.76,1.033-3.624   c0.685-0.854,2.064-1.38,2.76-1.718c0.516-0.347,3.275-2.074,3.966-3.106c0.858-1.033,2.412-3.276,3.444-5.52   c0.869-2.065,2.587-6.205,3.103-8.27c0.521-2.075,1.559-5.857,1.559-7.06c0.169-1.22,0.517-4.665,0.517-5.359   c0-0.695,0.347-1.718,0.858-2.065c0.69-0.347,1.554-0.517,1.728-0.517c0.342,0,0.858,0.348,1.553,0.517   c0.859,0.169,4.994,1.549,5.511,1.718h1.042c0,0,0.512-0.169,0.685-0.169c0.169-0.179,0.864-1.032,1.38-1.201   c0.517-0.179,1.723-0.348,1.896-0.864c0.174-0.347,0.517-0.525,0.517-1.032c0-0.347-0.343-2.074-0.69-2.76   c-0.858-1.38-2.755-3.971-3.623-4.824c-0.69-1.042-3.619-4.318-4.478-4.994c-0.868-0.704-2.934-2.591-3.966-2.938   c-0.863-0.347-1.896-0.863-3.276-1.21c-1.38-0.169-1.9,0-1.9,0s-0.512-1.558-0.859-2.065c-0.347-0.517-1.554-1.559-2.064-2.065   c-0.695-0.516-1.559-0.863-2.075-0.516c-0.516,0.516-0.516,1.202-0.169,2.065c0.517,0.686,0.686,1.887,0.686,1.887   s-4.998,2.938-6.205,3.802c-3.961,2.581-6.721,6.543-8.964,6.89c-2.239,0.348-3.445,0.179-4.999,0.179   c-10.338-0.525-32.064-1.559-34.998-1.559c-3.107,0-6.031-0.178-7.754,0.357c-1.727,0.676-7.247,2.581-10.175,6.542   c-2.929,3.802-4.656,7.932-4.478,11.208c0.338,3.267,1.201,4.309,1.375,5.003c0.174,0.686,1.037,1.718,1.037,3.793L2.593,55.759z"></path></g></svg>