<svg xmlns="http://www.w3.org/2000/svg" xmlns:xlink="http://www.w3.org/1999/xlink" version="1.1" x="0px" y="0px" viewBox="0 0 100 100" enable-background="new 0 0 100 100" xml:space="preserve"><path fill="#000000" d="M95.406,46.777c-1.178-0.91-1.848-2.121-3.024-3.059c-2.027-1.616-4.606-2.521-7.079-3.196  c-7.159-1.954-14.975-0.592-22.315-1.078c-4.008-0.265-7.629-1.442-11.281-1.824c-4.3-1.024-9.039-0.349-13.057,1.325  c-4.429,1.844-8.804,4.347-13.094,6.528c-4.621,2.35-7.701,6.377-11.716,9.504c-4.862,3.786,1.334,9.915,6.059,7.853  c3.19-1.393,7.416-0.829,10.938-1.244c5.539-0.653,11.063-1.073,16.637-1.291c8.964-0.35,17.882-1.268,26.844-1.59  c0.342-0.069,0.695-0.1,1.058-0.08c0.375,0.021,0.75,0.037,1.125,0.015c0.182-0.011,0.847-0.091,0.777-0.07  c0.283-0.046,0.567-0.092,0.851-0.138c0.578-0.257,1.239-0.417,1.997-0.432c1.898-0.037,4.167-1.474,6.008-2.014  c1.619-0.475,3.079-1.069,4.581-1.821c0.604-0.302,1.209-0.6,1.813-0.902c0.114-0.069,0.229-0.141,0.343-0.209  c0.306-0.181,3.022-1.932,4.375-2.522c0.115-0.262,0.247-0.505,0.395-0.727C96.997,48.716,96.427,47.565,95.406,46.777z"></path><path fill="#000000" d="M6.849,50.638c-1.935,0-1.935,3,0,3S8.783,50.638,6.849,50.638z"></path><path fill="#000000" d="M14.25,47.638c-1.935,0-1.935,3,0,3S16.185,47.638,14.25,47.638z"></path><g><path fill="#000000" d="M5.8,51.659c0.8,0.379,1.568,0.801,2.354,1.2c0.775,0.413,1.54,0.841,2.296,1.281   c0.756,0.439,1.617,0.734,2.237,1.362c0.628,0.618,1.21,1.3,1.595,2.256l-0.117,0.162c-1.029-0.061-1.86-0.396-2.646-0.794   c-0.793-0.389-1.346-1.11-2.004-1.688c-0.658-0.576-1.307-1.165-1.945-1.769c-0.628-0.617-1.273-1.212-1.887-1.85L5.8,51.659z"></path></g><g><path fill="#000000" d="M14.14,49.197c0.428,0.328,0.813,0.687,1.22,1.03c0.393,0.353,0.772,0.715,1.139,1.088   c0.367,0.371,0.879,0.639,1.057,1.146c0.188,0.498,0.312,1.042,0.16,1.781l-0.163,0.115c-0.748-0.102-1.22-0.398-1.628-0.74   c-0.419-0.335-0.502-0.907-0.731-1.377c-0.23-0.469-0.446-0.946-0.649-1.435c-0.188-0.498-0.4-0.979-0.567-1.493L14.14,49.197z"></path></g><line x1="18.691" y1="6.54" x2="23.131" y2="6.21"></line><line fill="none" x1="-2.691" y1="13.283" x2="1.75" y2="12.954"></line><path fill="#000000" stroke="#070808" stroke-miterlimit="10" d="M12.5,59.125c-0.561,0.14-0.992,0.643-1.375,1"></path><path fill="#000000" stroke="#070808" stroke-miterlimit="10" d="M15.5,62c0,0.625,0,1.25,0,1.875"></path><path fill="none" d="M93.875,45.25c1.552,0.907,2.808,2.452,3.648,4.022"></path><ellipse fill="#000000" cx="11.125" cy="60.125" rx="0.587" ry="0.563"></ellipse><ellipse fill="#000000" cx="15.5" cy="63.875" rx="0.587" ry="0.563"></ellipse></svg>