<svg xmlns="http://www.w3.org/2000/svg" xmlns:xlink="http://www.w3.org/1999/xlink" version="1.2" baseProfile="tiny" x="0px" y="0px" viewBox="0 0 32 32" xml:space="preserve"><path d="M2.187,6.736c0.296,0.21-0.031,0.591-0.031,0.591l3.207,5.917c0,0,0.935-0.405,1.464-0.094l4.578-5.418  c0,0-0.109-0.639,0.287-0.382c0.397,0.257,0.756,0.74-0.023,0.662c0,0-3.772,5.574-4.084,5.968c0,0,0.893,2.886,3.633,3.634  c0,0,0.955-3.945,6.353-4.194c5.397-0.249,8.719,5.232,6.976,8.554c0,0,1.204,0.976,3.674,1.62c2.471,0.643,2.886,0.829,2.762,0.829  c-0.125,0-15.155,0.623-22.192-0.062c0,0,0.747-0.25-0.125-0.873c-0.872-0.622-3.83-3.611-3.736-6.726h-0.28  c0,0,0.404-1.059,0-2.584c-0.405-1.526-2.305-6.384-2.865-6.82c0,0-0.451,0.125-0.561-0.327C1.112,6.58,1.891,6.525,2.187,6.736z"></path></svg>