<svg xmlns="http://www.w3.org/2000/svg" xmlns:xlink="http://www.w3.org/1999/xlink" version="1.1" x="0px" y="0px" viewBox="0 0 100 100" enable-background="new 0 0 100 100" xml:space="preserve"><path fill="#000000" d="M91.962,63.455c-3.17-2.725-6.689-4.898-10.287-6.872c-3.62-1.954-7.319-3.668-11.18-5.153l-0.425-0.164  l-0.42,0.223c-1.153,0.609-2.503,0.94-3.885,1.083c-0.69,0.071-1.395,0.104-2.097,0.07c-0.618-0.017-1.264-0.104-1.842-0.206  c-0.984-0.583-1.986-1.015-2.996-1.386c0.116-0.023,0.226-0.038,0.342-0.065c0.604-0.149,1.201-0.307,1.896-0.613l0.21-0.094  l0.082-0.063c1.315-1.043,2.578-2.101,3.831-3.208c0.636-0.543,1.249-1.114,1.877-1.695c0.312-0.292,0.617-0.601,0.925-0.935  c0.307-0.366,0.621-0.617,0.936-1.379l0.01-0.025l0.02-0.08c0.149-0.636,0.37-1.339,0.632-1.952c0.134-0.31,0.28-0.605,0.441-0.871  c0.082-0.132,0.165-0.254,0.251-0.365l0.353-0.479l2.681-3.606c1.8-2.396,3.62-4.777,5.464-7.136  c1.846-2.358,3.716-4.696,5.633-6.984c1.925-2.268,3.88-4.565,6.003-6.516l0.02-0.018c0.41-0.376,0.437-1.014,0.061-1.424  c-0.377-0.411-1.014-0.438-1.426-0.062c-2.305,2.114-4.25,4.407-6.215,6.71c-1.943,2.311-3.83,4.66-5.69,7.028  c-1.859,2.367-3.69,4.755-5.502,7.157l-2.702,3.618l-0.314,0.428c-0.144,0.185-0.272,0.373-0.388,0.561  c-0.229,0.376-0.416,0.754-0.581,1.133c-0.332,0.767-0.57,1.499-0.772,2.322l0.028-0.105c0.009,0.002-0.245,0.369-0.484,0.603  c-0.251,0.263-0.539,0.521-0.834,0.777c-0.585,0.517-1.234,0.989-1.879,1.465c-1.237,0.875-2.527,1.715-3.812,2.518  c-0.343,0.092-0.809,0.155-1.274,0.197c-0.502,0.043-1.026,0.064-1.553,0.072c-0.013,0-0.025,0-0.038,0  c0.043-0.038,0.087-0.071,0.129-0.108c0.712-0.629,1.389-1.296,2.026-1.998c1.271-1.403,2.391-2.962,3.237-4.672l0.003-0.004  l0.155-0.276l0.004-0.257c0.016-1.104,0.082-2.241,0.209-3.339c0.061-0.551,0.131-1.098,0.226-1.625  c0.086-0.496,0.211-1.023,0.347-1.342L80.84,8.432c0.311-0.461,0.189-1.087-0.271-1.399c-0.462-0.312-1.09-0.192-1.401,0.27  L61.612,33.251l-0.042,0.063l-0.025,0.054c-0.344,0.725-0.457,1.3-0.592,1.904c-0.124,0.595-0.217,1.179-0.299,1.762  c-0.136,1.038-0.245,2.059-0.349,3.098c-0.926,1.285-2.041,2.432-3.278,3.436c-0.445,0.361-0.922,0.682-1.393,1.008  c-0.086-0.212-0.178-0.413-0.276-0.595c1.014-2.092,1.824-6.35-1.813-13.696c-0.236-0.48-0.817-0.683-1.305-0.44  c-0.48,0.238-0.679,0.822-0.44,1.305c2.867,5.791,2.694,9.305,2.104,11.194c-1.225-0.815-2.476-0.72-2.476-0.72  s0.78-1.039-1.428-1.039c-2.208,0-1.428,1.039-1.428,1.039s-1.25-0.096-2.476,0.72c-0.59-1.888-0.765-5.402,2.102-11.194  c0.238-0.482,0.041-1.066-0.441-1.305c-0.485-0.244-1.067-0.04-1.304,0.44c-3.637,7.346-2.827,11.604-1.812,13.696  c-0.099,0.182-0.19,0.382-0.276,0.594c-0.471-0.325-0.947-0.646-1.394-1.007c-1.236-1.004-2.353-2.152-3.279-3.436  c-0.103-1.04-0.213-2.06-0.348-3.097c-0.081-0.583-0.173-1.168-0.297-1.763c-0.136-0.604-0.248-1.18-0.592-1.904l-0.025-0.054  l-0.042-0.063L20.831,7.303c-0.312-0.46-0.938-0.583-1.398-0.271c-0.462,0.312-0.585,0.938-0.273,1.4l17.447,25.907  c0.136,0.318,0.261,0.846,0.347,1.342c0.093,0.526,0.165,1.074,0.226,1.625c0.125,1.099,0.191,2.235,0.207,3.338l0.004,0.258  l0.155,0.277l0.003,0.003c0.847,1.71,1.966,3.269,3.239,4.672c0.637,0.701,1.312,1.368,2.024,1.998  c0.043,0.037,0.086,0.071,0.129,0.108c-0.013,0-0.024,0-0.037,0c-0.527-0.007-1.051-0.029-1.553-0.072  c-0.465-0.042-0.932-0.105-1.274-0.197c-1.284-0.802-2.574-1.643-3.812-2.518c-0.645-0.477-1.294-0.948-1.879-1.465  c-0.294-0.256-0.582-0.514-0.833-0.777c-0.239-0.234-0.493-0.601-0.485-0.603l0.028,0.105c-0.202-0.823-0.44-1.555-0.772-2.322  c-0.165-0.379-0.351-0.757-0.581-1.133c-0.115-0.188-0.244-0.376-0.387-0.561l-0.314-0.428l-2.703-3.618  c-1.811-2.402-3.642-4.79-5.501-7.157c-1.861-2.368-3.747-4.717-5.691-7.028c-1.965-2.303-3.91-4.596-6.215-6.71  c-0.411-0.376-1.049-0.349-1.425,0.061c-0.376,0.41-0.35,1.049,0.061,1.426l0.02,0.018c2.123,1.95,4.078,4.248,6.002,6.516  c1.917,2.288,3.788,4.625,5.633,6.984c1.844,2.359,3.664,4.741,5.464,7.136l2.681,3.606l0.353,0.479  c0.086,0.111,0.169,0.233,0.251,0.365c0.161,0.266,0.307,0.562,0.441,0.871c0.262,0.612,0.482,1.316,0.632,1.952l0.02,0.08  l0.01,0.025c0.314,0.762,0.629,1.014,0.936,1.379c0.308,0.334,0.613,0.642,0.925,0.935c0.627,0.582,1.241,1.152,1.876,1.695  c1.253,1.108,2.516,2.165,3.831,3.208l0.082,0.063l0.21,0.094c0.695,0.307,1.291,0.464,1.896,0.613  c0.116,0.026,0.226,0.042,0.341,0.065c-1.009,0.371-2.013,0.801-2.997,1.386c-0.578,0.102-1.224,0.189-1.842,0.206  c-0.702,0.034-1.406,0.001-2.096-0.07c-1.38-0.143-2.732-0.474-3.882-1.083l-0.421-0.223l-0.424,0.164  c-3.861,1.485-7.56,3.199-11.18,5.153c-3.597,1.974-7.117,4.147-10.287,6.872l-0.01,0.009c-0.418,0.369-0.458,1.006-0.089,1.425  c0.37,0.417,1.007,0.457,1.424,0.087c2.975-2.591,6.389-4.731,9.917-6.625c3.409-1.818,6.966-3.446,10.555-4.826  c1.346,0.633,2.766,0.967,4.168,1.136c0.784,0.09,1.567,0.123,2.349,0.141c0.792,0,1.541,0.016,2.388-0.064l0.103-0.01l0.281-0.12  c0.929-0.395,1.983-0.656,3.06-0.868c-1.813,1.526-3.571,3.096-5.279,4.748c-1.632,1.559-3.26,3.132-4.738,4.868  c-1.48,1.77-2.784,3.501-4.134,5.312c-2.65,3.595-5.159,7.294-7.479,11.12c-2.312,3.828-4.453,7.781-6.166,11.963  c-0.208,0.515,0.038,1.106,0.554,1.317c0.516,0.21,1.105-0.038,1.315-0.556c1.659-4.032,3.763-7.905,6.043-11.665  c2.289-3.758,4.774-7.407,7.396-10.948c1.304-1.745,2.678-3.556,4.05-5.187c1.418-1.627,2.958-3.176,4.632-4.573  c0.834-0.676,1.69-1.333,2.564-1.971c-1.772,1.936-3.017,4.393-3.017,7.217c0,7.011,5.843,18.177,12.075,18.177  c6.232,0,12.075-11.166,12.075-18.177c0-2.824-1.245-5.281-3.017-7.217c0.874,0.638,1.729,1.295,2.564,1.971  c1.674,1.397,3.214,2.946,4.632,4.573c1.371,1.631,2.746,3.441,4.05,5.187c2.622,3.541,5.107,7.19,7.396,10.948  c2.28,3.76,4.384,7.633,6.043,11.665c0.213,0.515,0.802,0.766,1.316,0.554c0.516-0.211,0.763-0.801,0.553-1.315  c-1.713-4.182-3.854-8.135-6.166-11.963c-2.32-3.826-4.829-7.525-7.479-11.12c-1.351-1.811-2.654-3.542-4.135-5.312  c-1.477-1.736-3.104-3.31-4.737-4.868c-1.709-1.652-3.467-3.223-5.279-4.748c1.076,0.21,2.13,0.474,3.059,0.868l0.281,0.12  l0.103,0.01c0.848,0.08,1.596,0.064,2.388,0.064c0.783-0.018,1.565-0.051,2.351-0.141c1.402-0.169,2.821-0.503,4.168-1.136  c3.589,1.38,7.146,3.008,10.556,4.826c3.528,1.894,6.942,4.034,9.917,6.625l0.01,0.009c0.423,0.364,1.06,0.315,1.422-0.107  C92.434,64.454,92.385,63.817,91.962,63.455z"></path></svg>