<?xml version="1.0" encoding="utf-8"?><!DOCTYPE svg PUBLIC "-//W3C//DTD SVG 1.1//EN" "http://www.w3.org/Graphics/SVG/1.1/DTD/svg11.dtd"><svg version="1.1" xmlns="http://www.w3.org/2000/svg" xmlns:xlink="http://www.w3.org/1999/xlink" x="0px" y="0px" viewBox="0 0 100 100" enable-background="new 0 0 100 100" xml:space="preserve"><path d="M98.896,37.591C97.831,18.596,90.301,2.056,70.531,0.214c-8.995-0.839-17.914,0.775-22.694,5.01
	c1.45-0.42,2.931-1,4.339-0.336c-1.561,1.397-3.368,2.335-4.673,4.007c-6.608,8.464-2.48,24.732,6.675,27.698
	c0.698-0.193-0.479-1.259-0.332-2.004c2.027,1.309,3.868,2.808,6.676,3.335c-2.812-2.458-4.775-10.706,1.668-12.008
	c10.328-2.094,13.34,8.846,12.68,18.686c-0.498,7.462-3.362,11.593-7.676,15.687c-4.256,4.042-8.916,6.994-11.344,12.013
	c-1.943-15.125-11.805-25.263-18.024-37.376c-1.95-3.801-4.496-7.765-5.673-11.347c-0.938-2.855-0.536-6.356-2.67-9.014
	c4.768-1.592,3.114-8.485,3.672-13.682c-0.516,0.804-1.6,0.528-0.667-0.333c-2.925,2.084-9.837,3.069-10.681,8.345
	c-4.021-1.221-8.23,0.309-11.013,2.333c-2.382,1.735-3.785,4.373-5.673,6.342c-1.447,1.511-3.721,2.58-4.005,4.338
	c-0.893,5.503,4.742,8.889,11.349,8.677c0.146,3.346-4.011,5.05-4.007,9.345c0.303,0.906,1.229-0.28,1.335-0.669
	c-0.881,2.271-1.176,7.018-0.333,10.679c-4.726-0.026-8.787,3.559-7.344,8.681c0.25,0.88,1.159,1.597,2.002,2.333
	c0.362-1.662,0.057-1.087,1.671-0.334c0.653-1.236,0.074-3.704,1.334-4.337c3.78-1.631,5.147,4.861,8.676,6.34
	c1.955,0.669,2.701-1.866,3.338-0.667c2.638,6.824-4.21,12.255-5.005,18.69c-0.773,6.254,1.006,10.721,4.004,14.682
	c0,0-1.812,0.219-2.002,1.671c-0.168,1.603-2.689,0.044-3.337,2.334c0.442,0.635,2.104-0.322,2.67-0.667
	c0.986,0.288-0.774,0.501-0.333,1.336c0.223,0,0.445,0,0.667,0c3.546-0.982,8.637-1.15,13.025-1.346
	c-1.065,1.509,1.781,0.748,1.781,0.748c0.688-0.266,2.021-0.374,3.22-0.415c-0.002,0.005-0.004,0.008-0.004,0.008
	c2.754-0.024,5.817,0.256,7.675-0.669c0.416-1.53,0.124-1.814,1.002-3c1.177,0.077,3.013,0.377,3.672,0
	c5.419-3.092,9.126-10.809,17.019-12.014c0,0-0.631-0.453-1.769-0.185c1.753-1.446,4.077-2.317,7.108-2.483
	c-0.461-0.764-2.323-0.127-3.338-0.338c14.305-8.935,32.033-16.312,33.705-38.041C99.014,40.758,98.996,39.355,98.896,37.591z"></path></svg>