<svg xmlns="http://www.w3.org/2000/svg" xmlns:xlink="http://www.w3.org/1999/xlink" version="1.1" x="0px" y="0px" viewBox="0 0 100 100" enable-background="new 0 0 100 100" xml:space="preserve"><g><path d="M21.813,45.358c1.367,0.651,3.254-0.055,2.224-1.242c-1.031-1.192-4.806-2.52-4.267-5.632   c1.521-8.726,22.665-34.918,24.457-35.792c0.793-0.565,1.611-0.21,1.113,1.197c-0.503,1.412-8.959,15.728-9.818,16.3   c0,0,6.636-8.171,9.535-14.696c0.357-0.904,1.36-0.078,0.97,1.316c-0.398,1.389-5.026,11.175-9.166,16.193   c0,0,2.97-3.356,5.585-7.072c0.311-0.666,1.764-1.199,1,0.646c-0.766,1.841-3.159,6.184-4.006,7.022c0,0,2.608-3.032,2.974-2.884   c0.354,0.149,0.898,0.027-0.124,1.53c-1.02,1.501-4.454,6.554-4.454,6.554s3.513-3.959,3.635-3.453   c0.11,0.51-1.377,4.531-4.458,7.034c0,0,3.493-2.845,3.357-1.973c-0.128,0.864-3,3.982-3.568,4.922   C30.584,45.579,42.7,51.102,46.738,52.07c10.258,1.679,33.514-1.703,43.767-8.136c0,0,0.976-0.257,0.371,0.671   c-2.043,3.139-19.516,9.164-21.53,9.835c-4.829,1.615-12.613,7.146,1.212,11.56c5.415,1.729,20.635,4.521,22.025,4.906   c0,0,0.944,0.699-0.093,0.979c-1.854,0.494-30.538-1-44.674-8.675c-5.031-2.942-12.233,8.738-9.57,14.233   c0.581,1.199,2.963,3.743,1.849,3.634c-1.112-0.12-3.391-3.938-4.548-3.994c0,0,6.7,6.779,6.131,7.62   c-0.441,0.643-1.598-0.692-1.921-0.901c0,0,3.465,4.854,3.089,5.132c-0.58,0.43-2.708-2.244-2.708-2.244s4.193,5.463,3.367,6.011   c-0.472,0.307-6.361-8.296-7.9-8.599c0,0,9.986,13.025,8.777,13.455c-1.207,0.433-14.102-15.453-16.745-19.107   c-2.887-4.003-9.843-11.078-6.984-18.935c0,0-9.677-4.897-11.667-11.912c-0.328-0.601-2.077-0.739-1.956-1.181   c0.117-0.447,1.154-0.479,2.222-0.296c0.544,0.105,1.437-1.094,2.4-1.6C14.72,42.917,19.743,44.37,21.813,45.358z"></path></g></svg>