<svg xmlns="http://www.w3.org/2000/svg" xmlns:xlink="http://www.w3.org/1999/xlink" version="1.2" baseProfile="tiny" x="0px" y="0px" viewBox="0 0 32 32" xml:space="preserve"><path d="M0.24,30.783c-0.286,0.921,0.762,0.667,0.762,0.667c0.381,0,0.826-0.413,1.43-1.716s1.843-2.446,2.764-3.717  c0.921-1.271,1.334-1.811,1.334-1.811c0.413,1.366-1.175,2.573-1.175,2.573s-0.032,0.159-0.032,0.921  c0,0.763-1.048,1.812-1.208,2.859c-0.159,1.049,0.572,0.572,0.572,0.572c-0.063,0.222-0.508,0.317-0.508,0.317  s-0.159,0.636,0.54,0.54c0.981-0.133,1.303-1.779,1.779-3.336s3.082-3.271,4.447-5.305c1.382-2.058,1.684-1.525,4.511-1.812  c0.91-0.091,1.678-0.308,2.398-0.575c-0.58-0.328-1.243-0.888-1.382-1.807c-0.188-1.253-0.87-1.871-1.205-2.105  c0.425,0.278,1.455,1.057,1.682,2.264c0.133,0.709,0.699,1.184,1.267,1.497c1.354-0.571,2.506-1.401,3.753-2.45  c2.001-1.684,3.907-0.984,4.479-0.794c0.571,0.19-0.127,0.826-0.127,0.826c-0.731,0.763,0.317,1.334,0.317,1.334  c0.699,0.572,1.271,0.063,1.271,0.063c1.334-0.286,1.049-1.843,1.049-1.843c0.794,0,1.111,0.731,1.111,0.731  c-0.317,0.222-0.063,0.604-0.063,0.604c-0.286,0.413,0,0.54,0,0.54c1.049,0.158,1.747-0.032,1.747-1.62  c0-1.589-1.207-2.319-1.207-2.319s0.032-0.159,0.096-0.318s0.508-0.73,0.508-0.73s0.54-0.191,0.636-0.667  c0.095-0.476-0.413-1.334-0.509-1.938c-0.095-0.604-0.349-1.493-0.349-1.493s0.158-0.667,0.158-0.89c0-0.222-0.89,0.095-0.89,0.095  c0-0.413-1.048-0.73-1.048-0.73s0.667,2.255-0.096,0.127S27.18,9.308,27.18,9.308c-0.258-0.058-0.611-0.071-1.003-0.06  c-0.828,0.497-1.943,1.537-0.84,3.268c0,0-1.271-1.08-0.667-2.51c0.105-0.25,0.163-0.393,0.206-0.498  c-0.012,0.006-0.025,0.01-0.037,0.016c-0.077,0.157-0.169,0.355-0.169,0.355s-0.315-0.049-0.751,0.056  c-0.548,0.256-0.933,0.453-0.933,0.453c0.346-0.27,0.657-0.385,0.933-0.453c0.274-0.127,0.588-0.27,0.92-0.411  c0.031-0.065,0.058-0.115,0.075-0.149c-1.096,0.167-2.262,0.473-2.977,0.822c-0.268,0.131-0.663,0.339-1.107,0.578  c-0.711,3.802,1.426,5.395,1.426,5.395c-2.26-0.897-2.052-3.979-1.887-5.145c-0.371,0.203-0.771,0.423-1.178,0.649  c-0.188,1.331-0.081,2.621-0.081,2.621c-0.421-0.824-0.401-1.771-0.321-2.395c-0.425,0.236-0.838,0.468-1.239,0.697  c-0.139,0.84-0.268,1.876-0.219,2.587c0.096,1.366,1.208,2.097,1.208,2.097c-0.985-0.508-1.303-1.239-1.303-1.239  c0.031,1.398,0.763,2.097,0.763,2.097c-1.271-0.854-1.271-3.463-1.12-5.163c-0.405,0.23-0.737,0.421-1.021,0.583  c-0.37,1.378,0.202,2.577,0.202,2.577c-0.532-0.57-0.659-1.6-0.681-2.305c-0.467,0.262-1.174,0.622-1.934,0.999  c-0.473,0.552-1.07,1.37-1.166,2.069c0,0,0.004-0.868,0.26-1.628c-1.08,0.522-2.139,1.019-2.707,1.279  c-1.175,0.54-2.573-1.779-3.177-2.446c-0.604-0.667-1.207-1.874-2.605-3.018C2.654,9.943,1.67,9.339,1.67,9.339  c-1.048-0.159-0.572,0.635-0.318,0.794c0.254,0.159,0.572,0.381,1.684,1.461c0.878,0.852,2.288,2.669,3.368,3.971  C7.564,16.968,7.42,17.6,7.197,18.14c-0.222,0.54-2.128,1.811-2.382,4.288c-0.254,2.479-2.192,3.939-2.192,3.939  c-0.19,1.461-1.842,2.541-2.382,3.304S0.24,30.783,0.24,30.783z M11.042,18.616c0.095-0.826,0.762-2.574,0.762-2.574  C11.74,17.44,10.946,19.441,11.042,18.616z M6.784,21.094c0.699-1.176,0.636-2.065,0.636-2.065c0.063,0.668-0.096,1.462-0.381,2.732  c-0.286,1.271,0.445,1.62,0.445,1.62l-0.572,0.413C6.912,23.794,6.085,22.27,6.784,21.094z"></path></svg>