<svg xmlns="http://www.w3.org/2000/svg" xmlns:xlink="http://www.w3.org/1999/xlink" version="1.1" x="0px" y="0px" viewBox="0 0 100 100" enable-background="new 0 0 100 100" xml:space="preserve"><g><g><g><path fill="#000000" d="M73.082,25.42c0,0,1.529-3.865,3.231-5.364c-0.356-2.538,0.706-1.313-4.447-6.275     c-4.653-5.782,0.149-10.312,5.2-9.175c1.307,0.475,3.484,1.307,3.418,3.18c1.84,1.685,3.561,3.373,4.065,4.926     c0.803,4.723,0.445,5.354,0.445,5.354c-0.054,1.102-0.439,1.139-0.782,0.089l-1.348-3.97c-0.497-1.326-3.041-1.781-3.041-1.781     s-1.25,1.26,1.097,3.107c4.215,2.716,4.431,16.146,3.913,18.705c15.772,4.911,9.029,35.538-10.296,40.872l0.157,0.021     c0,0-6.36,10.969-12.395,14.119c0.021,2.753,0.111,4.847,0.172,4.959c0.183,0.335,3.154,1.086,3.396,1.288     c0.354,0.298,0.677,0.608,0.579,0.905c-0.579-0.476-0.354-0.803-3.047-1.279c3.133,1.125,2.801,1.811,2.468,1.811     c-0.653-1.044-0.48-0.838-3.104-1.727c0.637,0.484,2.762,1.504,2.094,1.727c-0.533-0.771-3.285-1.67-3.467-1.619     c-0.73-0.276-0.976,0.492-2.739,0.761c0.036-1.05,3.038,0.027,2.475-4.229c-0.073-0.557-0.154-1.239-0.239-2.006     c-1.501,0.456-2.947,0.318-4.232-0.715c-0.527-0.715,3.229-3.597,3.229-6.689c0-3.024,0.377-1.412-1.285,1.696     c-1.663,3.108-4.511,4.16-5.492,4.075c-0.136-0.021-0.271-0.053-0.403-0.095c-0.084,3.363-0.113,6.092-0.113,6.092     c0,0.5,3,1,3.5,1.5c0,0,0.5,0.5,0.5,1c-0.5-0.5-0.5-1-3-1.5c3,1,2.5,2,2.5,2c-1-1-0.5-1-3.5-2c1,0.5,3,1.5,2.5,2     c-0.5-1-3.5-2-3.5-2c-1,0-1,0.5-3,1c0-1,3,0,2.5-4.5c-0.235-1.884-0.582-5.433-0.883-8.66l-0.62,0.728     c0,0-0.888,1.053-1.382,1.781s-3.719,8.656-4.197,5.517c0-5.109,3.188-12.843,2.448-13.436     c-0.878-0.23-2.852,14.626-6.177,14.944c-2.323,0.845,4.631-18.912,3.729-20.528c-2.691-0.572-8.215,13.955-8.802,15.948     c-2.333,3.6,0.833-13.842,0.386-15.7c-1.56,0.242-4.228,2.439-4.75,1.603c-2.302-2.031,2.387-10.65,2.302-12.336     c-3.479,3.568-7.819,1.604-10.775,0.908C-13.774-1.532,27.014-10.839,49.15,20.076C67.308,15.499,73.082,25.42,73.082,25.42z"></path></g></g></g></svg>